<svg width="18" height="12" viewBox="0 0 18 12" fill="none" xmlns="http://www.w3.org/2000/svg">
<path d="M11.6469 0.303726L11.7195 0.219615C11.9858 -0.0466241 12.4025 -0.0707868 12.6961 0.147098L12.7802 0.219725L17.7768 5.21737C18.0429 5.48352 18.0672 5.8999 17.8496 6.19349L17.7771 6.27761L12.7805 11.2811C12.4878 11.5742 12.0129 11.5745 11.7198 11.2818C11.4534 11.0157 11.4289 10.5991 11.6465 10.3053L11.7191 10.2211L15.43 6.504L0.75 6.50495C0.370304 6.50495 0.0565091 6.22279 0.00684667 5.85672L0 5.75495C0 5.37525 0.282154 5.06146 0.64823 5.01179L0.75 5.00495L15.443 5.004L11.7194 1.28028C11.4532 1.01398 11.429 0.597315 11.6469 0.303726L11.7195 0.219615L11.6469 0.303726Z" fill="#212121"/>
</svg>
