<svg width="18" height="21" viewBox="0 0 18 21" fill="none" xmlns="http://www.w3.org/2000/svg">
<path d="M7.27818 2.73018L7.51684 2.66484L7.60965 2.43545C7.72171 2.15849 7.91393 1.9213 8.16167 1.75428C8.4094 1.58727 8.70137 1.49805 9.00015 1.49805C9.29893 1.49805 9.5909 1.58727 9.83863 1.75428C10.0864 1.9213 10.2786 2.15849 10.3906 2.43545L10.4833 2.6645L10.7216 2.73002C12.0947 3.10767 13.306 3.92565 14.1692 5.05834C15.0325 6.19103 15.5001 7.57579 15.5002 8.99994V13.6969V13.8483L15.5841 13.9743L17.4161 16.7223L17.4162 16.7224C17.4665 16.7977 17.4953 16.8852 17.4997 16.9757C17.5041 17.0661 17.4839 17.156 17.4412 17.2358C17.3985 17.3156 17.3349 17.3823 17.2572 17.4289C17.1796 17.4754 17.0907 17.4999 17.0002 17.4999H17.0002H12.4651H12.0322L11.9703 17.9284C11.8671 18.6425 11.51 19.2956 10.9646 19.7679C10.4191 20.2402 9.72169 20.5001 9.00015 20.5001C8.27861 20.5001 7.58122 20.2402 7.03574 19.7679C6.49026 19.2956 6.13322 18.6425 6.03001 17.9284L5.96808 17.4999H5.53515H1.00015H1.00007C0.909555 17.4999 0.820727 17.4754 0.74307 17.4289C0.665413 17.3823 0.601842 17.3156 0.559138 17.2358C0.516433 17.156 0.496197 17.0661 0.500589 16.9757C0.504981 16.8853 0.533836 16.7977 0.584075 16.7224L0.584175 16.7223L2.41617 13.9743L2.50015 13.8483V13.6969V8.99992C2.50015 6.00685 4.52399 3.48419 7.27818 2.73018ZM7.58515 17.9999V18.0003L7.11465 18.1663C7.25235 18.5565 7.5077 18.8944 7.84548 19.1334C8.18327 19.3724 8.58686 19.5007 9.00065 19.5007C9.41443 19.5007 9.81803 19.3724 10.1558 19.1334C10.4936 18.8944 10.7489 18.5565 10.8867 18.1663L11.1218 17.4999H10.4151H7.93992H7.58615H7.58515V17.9999ZM3.50015 13.9999V14C3.50017 14.0988 3.47094 14.1954 3.41615 14.2775L3.41608 14.2776L2.45308 15.7226L1.93507 16.4999H2.86915H15.1301H16.0642L15.5462 15.7226L14.5836 14.2783C14.5836 14.2783 14.5836 14.2782 14.5836 14.2782C14.529 14.196 14.5 14.0995 14.5001 14.0008V13.9999V8.99992C14.5001 7.54123 13.9207 6.14229 12.8892 5.11084C11.8578 4.07939 10.4588 3.49992 9.00015 3.49992C7.54146 3.49992 6.14251 4.07939 5.11106 5.11084C4.07961 6.14229 3.50015 7.54123 3.50015 8.99992V13.9999Z" fill="#262829" stroke="#262829"/>
</svg>
