<svg viewBox="0 0 21 21" fill="none" xmlns="http://www.w3.org/2000/svg">
<path d="M10.0059 20.0079C15.5299 20.0079 20.0079 15.5299 20.0079 10.0059C20.0079 4.48195 15.5299 0.00390625 10.0059 0.00390625C4.48195 0.00390625 0.00390625 4.48195 0.00390625 10.0059C0.00390625 15.5299 4.48195 20.0079 10.0059 20.0079Z" fill="#0EB37E"/>
<path d="M6.87251 9.49473C6.61882 9.21649 6.18783 9.1974 5.90868 9.45108C5.63135 9.70477 5.61135 10.1358 5.86503 10.4149L8.30643 13.0909C8.56103 13.371 8.99566 13.3891 9.2739 13.1318L15.0551 7.77802C15.3315 7.52251 15.3478 7.09061 15.0914 6.81419C14.8359 6.53777 14.404 6.5214 14.1276 6.77782L8.85109 11.6643L6.87251 9.49473Z" fill="white"/>
</svg>
