<svg width="34" height="34" viewBox="0 0 34 34" fill="none" xmlns="http://www.w3.org/2000/svg">
<mask id="mask0_2241_85301" style="mask-type:alpha" maskUnits="userSpaceOnUse" x="3" y="0" width="28" height="34">
<path fill-rule="evenodd" clip-rule="evenodd" d="M18.6164 27.4299C25.4552 26.6298 30.7621 20.8156 30.7621 13.7619C30.7621 6.16141 24.6007 0 17.0002 0C9.39971 0 3.23828 6.16141 3.23828 13.7619C3.23828 20.8155 8.54496 26.6297 15.3837 27.4299C15.3819 27.461 15.381 27.4923 15.381 27.5238V32.3809C15.381 33.2751 16.106 34 17 34C17.8942 34 18.6191 33.2751 18.6191 32.3809V27.5238C18.6191 27.4923 18.6183 27.461 18.6164 27.4299Z" fill="white"/>
</mask>
<g mask="url(#mask0_2241_85301)">
<path fill-rule="evenodd" clip-rule="evenodd" d="M18.6164 27.4299C25.4552 26.6298 30.7621 20.8156 30.7621 13.7619C30.7621 6.16141 24.6007 0 17.0002 0C9.39971 0 3.23828 6.16141 3.23828 13.7619C3.23828 20.8155 8.54496 26.6297 15.3837 27.4299C15.3819 27.461 15.381 27.4923 15.381 27.5238V32.3809C15.381 33.2751 16.106 34 17 34C17.8942 34 18.6191 33.2751 18.6191 32.3809V27.5238C18.6191 27.4923 18.6183 27.461 18.6164 27.4299Z" fill="#EA001E"/>
<path d="M18.6164 27.4299L18.5223 26.6258L17.7647 26.7145L17.8082 27.4761L18.6164 27.4299ZM15.3837 27.4299L16.1919 27.4761L16.2354 26.7145L15.4777 26.6258L15.3837 27.4299ZM29.9525 13.7619C29.9525 20.4001 24.9581 25.873 18.5223 26.6258L18.7104 28.2338C25.9524 27.3867 31.5715 21.2311 31.5715 13.7619H29.9525ZM17.0001 0.809479C24.1536 0.809479 29.9525 6.60846 29.9525 13.7619H31.5715C31.5715 5.71428 25.0478 -0.80957 17.0001 -0.80957V0.809479ZM4.04775 13.7619C4.04775 6.60846 9.84673 0.809479 17.0001 0.809479V-0.80957C8.95256 -0.80957 2.42871 5.71428 2.42871 13.7619H4.04775ZM15.4777 26.6258C9.04211 25.8728 4.04775 20.4 4.04775 13.7619H2.42871C2.42871 21.231 8.04769 27.3865 15.2896 28.2338L15.4777 26.6258ZM16.1905 27.5238C16.1905 27.5077 16.1909 27.4918 16.1919 27.4761L14.5755 27.3836C14.5728 27.43 14.5715 27.4768 14.5715 27.5238H16.1905ZM16.1905 32.3808V27.5238H14.5715V32.3808H16.1905ZM16.9999 33.1905C16.553 33.1905 16.1905 32.8279 16.1905 32.3808H14.5715C14.5715 33.7221 15.6588 34.8094 16.9999 34.8094V33.1905ZM17.8096 32.3808C17.8096 32.8279 17.4471 33.1905 16.9999 33.1905V34.8094C18.3412 34.8094 19.4285 33.7221 19.4285 32.3808H17.8096ZM17.8096 27.5238V32.3808H19.4285V27.5238H17.8096ZM17.8082 27.4761C17.8091 27.4918 17.8096 27.5077 17.8096 27.5238H19.4285C19.4285 27.4768 19.4273 27.43 19.4246 27.3837L17.8082 27.4761Z" fill="white"/>
<path d="M16.9994 23.4764C22.3645 23.4764 26.7137 19.1272 26.7137 13.7621C26.7137 8.39708 22.3645 4.04785 16.9994 4.04785C11.6344 4.04785 7.28516 8.39708 7.28516 13.7621C7.28516 19.1272 11.6344 23.4764 16.9994 23.4764Z" fill="#FFF5F3"/>
<path d="M17.2019 7.76855C20.735 7.76855 23.5991 10.6327 23.5991 14.1658C23.5991 17.6989 20.735 20.563 17.2019 20.563C13.6688 20.563 10.8047 17.6989 10.8047 14.1658C10.8047 10.6327 13.6688 7.76855 17.2019 7.76855ZM19.8874 12.2837C19.7487 12.1449 19.5333 12.1295 19.3774 12.2375L19.322 12.2837L16.4023 15.2037L15.0856 13.8869L15.0303 13.8407C14.8744 13.7327 14.6591 13.7481 14.5202 13.8869C14.3814 14.0257 14.366 14.2412 14.4739 14.3971L14.5202 14.4524L16.1195 16.0517L16.1749 16.0979C16.3112 16.1924 16.4932 16.1924 16.6297 16.0979L16.6849 16.0517L19.8874 12.8492L19.9338 12.7938C20.0417 12.638 20.0263 12.4225 19.8874 12.2837Z" fill="#EA001E"/>
</g>
</svg>
