<svg width="24" height="24" viewBox="0 0 24 24" fill="none" xmlns="http://www.w3.org/2000/svg">
<mask id="path-1-inside-1_1636_129833" fill="white">
<path d="M22 12C22 17.5228 17.5228 22 12 22C6.47715 22 2 17.5228 2 12C2 6.47715 6.47715 2 12 2C17.5228 2 22 6.47715 22 12Z"/>
</mask>
<path d="M22 12C22 17.5228 17.5228 22 12 22C6.47715 22 2 17.5228 2 12C2 6.47715 6.47715 2 12 2C17.5228 2 22 6.47715 22 12Z" fill="#006644"/>
<path d="M21.2857 12C21.2857 17.1284 17.1284 21.2857 12 21.2857V22.7143C17.9173 22.7143 22.7143 17.9173 22.7143 12H21.2857ZM12 21.2857C6.87164 21.2857 2.71429 17.1284 2.71429 12H1.28571C1.28571 17.9173 6.08266 22.7143 12 22.7143V21.2857ZM2.71429 12C2.71429 6.87164 6.87164 2.71429 12 2.71429V1.28571C6.08266 1.28571 1.28571 6.08266 1.28571 12H2.71429ZM12 2.71429C17.1284 2.71429 21.2857 6.87164 21.2857 12H22.7143C22.7143 6.08266 17.9173 1.28571 12 1.28571V2.71429Z" fill="white" mask="url(#path-1-inside-1_1636_129833)"/>
<circle cx="12.0002" cy="11.9993" r="7.05882" fill="#FFF5F3"/>
<path d="M11.8171 10.3012C11.9287 10.4128 11.9287 10.5937 11.8171 10.7052L10.8171 11.7052C10.7091 11.8132 10.5352 11.8171 10.4224 11.7141L9.99384 11.3227C9.87733 11.2163 9.86914 11.0356 9.97556 10.919C10.082 10.8025 10.2627 10.7944 10.3792 10.9008L10.6062 11.108L11.4131 10.3012C11.5247 10.1896 11.7056 10.1896 11.8171 10.3012ZM11.8171 13.5624C11.9287 13.4508 11.9287 13.2699 11.8171 13.1583C11.7056 13.0467 11.5247 13.0467 11.4131 13.1583L10.6062 13.9652L10.3792 13.7579C10.2627 13.6515 10.082 13.6597 9.97556 13.7762C9.86914 13.8927 9.87733 14.0734 9.99384 14.1798L10.4224 14.5713C10.5352 14.6743 10.7091 14.6704 10.8171 14.5623L11.8171 13.5624ZM12.4722 13.7889C12.4722 13.6311 12.6002 13.5032 12.758 13.5032H14.1865C14.3443 13.5032 14.4722 13.6311 14.4722 13.7889C14.4722 13.9467 14.3443 14.0746 14.1865 14.0746H12.758C12.6002 14.0746 12.4722 13.9467 12.4722 13.7889ZM12.758 10.6461C12.6002 10.6461 12.4722 10.774 12.4722 10.9318C12.4722 11.0896 12.6002 11.2175 12.758 11.2175H14.1865C14.3443 11.2175 14.4722 11.0896 14.4722 10.9318C14.4722 10.774 14.3443 10.6461 14.1865 10.6461H12.758ZM8.18652 9.21749C8.18652 8.74411 8.57028 8.36035 9.04367 8.36035H15.3294C15.8028 8.36035 16.1865 8.74411 16.1865 9.21749V15.5032C16.1865 15.9766 15.8028 16.3604 15.3294 16.3604H9.04367C8.57028 16.3604 8.18652 15.9766 8.18652 15.5032V9.21749ZM9.04367 8.93178C8.88587 8.93178 8.75795 9.0597 8.75795 9.21749V15.5032C8.75795 15.661 8.88587 15.7889 9.04367 15.7889H15.3294C15.4872 15.7889 15.6151 15.661 15.6151 15.5032V9.21749C15.6151 9.0597 15.4872 8.93178 15.3294 8.93178H9.04367Z" fill="#006644"/>
</svg>
