<svg width="20" height="20" viewBox="0 0 20 20" fill="none" xmlns="http://www.w3.org/2000/svg">
<path fill-rule="evenodd" clip-rule="evenodd" d="M4.28571 0C1.91878 0 0 1.91878 0 4.28571C0 6.65265 1.91878 8.57143 4.28571 8.57143C6.65265 8.57143 8.57143 6.65265 8.57143 4.28571C8.57143 1.91878 6.65265 0 4.28571 0ZM4.28571 11.4286C1.91878 11.4286 0 13.3474 0 15.7143C0 18.0812 1.91878 20 4.28571 20C6.65265 20 8.57143 18.0812 8.57143 15.7143C8.57143 13.3474 6.65265 11.4286 4.28571 11.4286ZM11.4286 4.28571C11.4286 1.91878 13.3474 0 15.7143 0C18.0812 0 20 1.91878 20 4.28571C20 6.65265 18.0812 8.57143 15.7143 8.57143C13.3474 8.57143 11.4286 6.65265 11.4286 4.28571ZM15.7143 11.4286C13.3474 11.4286 11.4286 13.3474 11.4286 15.7143C11.4286 18.0812 13.3474 20 15.7143 20C18.0812 20 20 18.0812 20 15.7143C20 13.3474 18.0812 11.4286 15.7143 11.4286Z" fill="currentColor"/>
</svg>
