<svg width="14" height="16" viewBox="0 0 14 16" fill="currentColor" xmlns="http://www.w3.org/2000/svg">
<path d="M5.5 6.5V0.75C5.5 0.335786 5.83579 0 6.25 0C6.66421 0 7 0.335786 7 0.75V6.5C7 6.77614 7.22386 7 7.5 7C7.77614 7 8 6.77614 8 6.5V1.75C8 1.33579 8.33579 1 8.75 1C9.16421 1 9.5 1.33579 9.5 1.75V8.24983C10.1616 7.82409 10.8919 7.5 11.5 7.5C12.4711 7.5 13.2874 7.82415 13.4841 8.61554C13.4959 8.66307 13.5 8.71216 13.5 8.76113C13.5 8.9115 13.4292 9.0531 13.3089 9.14332L11.9965 10.1276C10.9341 10.9244 9.93337 11.9933 9.23546 13.1163C8.85782 13.7239 8.51737 14.3529 8.18176 14.9844C7.82167 15.6615 7.59375 16 6.5 16H3.45452C2.5 16 2.13707 15.467 1.5 14C0.862931 12.533 0.5 11.0556 0.5 10.5V3.25C0.5 2.83579 0.835787 2.5 1.25 2.5C1.66421 2.5 2 2.83579 2 3.25V7C2 7.27614 2.22386 7.5 2.5 7.5C2.77614 7.5 3 7.27614 3 7V1.75C3 1.33579 3.33579 1 3.75 1C4.16421 1 4.5 1.33579 4.5 1.75V6.5C4.5 6.77614 4.72386 7 5 7C5.27614 7 5.5 6.77614 5.5 6.5Z"/>
</svg>
