<svg width="18" height="19" viewBox="0 0 18 19" fill="none" xmlns="http://www.w3.org/2000/svg">
<path d="M9 0.0627441C13.9706 0.0627441 18 4.09218 18 9.06274C18 14.0333 13.9706 18.0627 9 18.0627C7.29039 18.0627 5.64945 17.5845 4.23081 16.6965C3.65294 16.3348 3.1177 15.9084 2.63566 15.4263C2.1529 14.9435 1.72601 14.4073 1.36401 13.8284C0.477401 12.4105 0 10.7709 0 9.06274C0 8.78859 0.0122797 8.51583 0.0366964 8.24502C0.0738916 7.83248 0.438474 7.5282 0.851014 7.56539C1.26355 7.60259 1.56783 7.96717 1.53064 8.37971C1.51026 8.60575 1.5 8.83357 1.5 9.06274C1.5 10.4876 1.89727 11.852 2.63583 13.0331C2.93764 13.5158 3.29368 13.963 3.69639 14.3657C4.09848 14.7679 4.5449 15.1235 5.02668 15.4251C6.20844 16.1648 7.57394 16.5627 9 16.5627C13.1421 16.5627 16.5 13.2049 16.5 9.06274C16.5 4.92061 13.1421 1.56274 9 1.56274C6.60271 1.56274 4.39953 2.69556 2.99775 4.56471L5.75419 4.56484C6.1684 4.56484 6.50419 4.90062 6.50419 5.31484C6.50419 5.69453 6.22203 6.00833 5.85596 6.05799L5.75419 6.06484H1.25C0.870304 6.06484 0.556509 5.78268 0.506847 5.41661L0.5 5.31484V0.814837C0.5 0.400624 0.835786 0.0648375 1.25 0.0648375C1.6297 0.0648375 1.94349 0.346992 1.99315 0.713067L2 0.814837L1.999 3.40623C3.68587 1.31878 6.23628 0.0627441 9 0.0627441ZM8.25 4.06274C8.6295 4.06274 8.94346 4.34508 8.99315 4.71102L9 4.81274V9.06274H11.25C11.664 9.06274 12 9.39874 12 9.81274C12 10.1922 11.7177 10.5062 11.3517 10.5559L11.25 10.5627H8.25C7.8705 10.5627 7.55654 10.2804 7.50685 9.91447L7.5 9.81274V4.81274C7.5 4.39874 7.836 4.06274 8.25 4.06274Z" fill="#EA001E"/>
</svg>
