<svg width="27" height="27" viewBox="0 0 27 27" fill="none" xmlns="http://www.w3.org/2000/svg">
<rect x="3.22949" y="3.3125" width="19.5505" height="20.3714" stroke="#36B37E" stroke-width="2"/>
<path d="M25.5085 2.7C25.5085 3.93281 24.5504 4.9 23.4076 4.9C22.2647 4.9 21.3066 3.93281 21.3066 2.7C21.3066 1.46719 22.2647 0.5 23.4076 0.5C24.5504 0.5 25.5085 1.46719 25.5085 2.7Z" fill="white" stroke="#36B37E"/>
<path d="M4.70184 2.7C4.70184 3.93281 3.74377 4.9 2.60092 4.9C1.45807 4.9 0.5 3.93281 0.5 2.7C0.5 1.46719 1.45807 0.5 2.60092 0.5C3.74377 0.5 4.70184 1.46719 4.70184 2.7Z" fill="white" stroke="#36B37E"/>
<path d="M25.5085 24.3016C25.5085 25.5344 24.5504 26.5016 23.4076 26.5016C22.2647 26.5016 21.3066 25.5344 21.3066 24.3016C21.3066 23.0688 22.2647 22.1016 23.4076 22.1016C24.5504 22.1016 25.5085 23.0688 25.5085 24.3016Z" fill="white" stroke="#36B37E"/>
<path d="M4.70184 24.3016C4.70184 25.5344 3.74377 26.5016 2.60092 26.5016C1.45807 26.5016 0.5 25.5344 0.5 24.3016C0.5 23.0688 1.45807 22.1016 2.60092 22.1016C3.74377 22.1016 4.70184 23.0688 4.70184 24.3016Z" fill="white" stroke="#36B37E"/>
</svg>
