<svg width="27" height="27" viewBox="0 0 27 27" fill="none" xmlns="http://www.w3.org/2000/svg">
<rect x="4.1377" y="3.3125" width="19.5505" height="20.3714" stroke="#FF8B00" stroke-width="2"/>
<path d="M26.4167 2.7C26.4167 3.93281 25.4586 4.9 24.3158 4.9C23.1729 4.9 22.2148 3.93281 22.2148 2.7C22.2148 1.46719 23.1729 0.5 24.3158 0.5C25.4586 0.5 26.4167 1.46719 26.4167 2.7Z" fill="white" stroke="#FF8B00"/>
<path d="M5.61004 2.7C5.61004 3.93281 4.65197 4.9 3.50912 4.9C2.36627 4.9 1.4082 3.93281 1.4082 2.7C1.4082 1.46719 2.36627 0.5 3.50912 0.5C4.65197 0.5 5.61004 1.46719 5.61004 2.7Z" fill="white" stroke="#FF8B00"/>
<path d="M26.4167 24.3016C26.4167 25.5344 25.4586 26.5016 24.3158 26.5016C23.1729 26.5016 22.2148 25.5344 22.2148 24.3016C22.2148 23.0688 23.1729 22.1016 24.3158 22.1016C25.4586 22.1016 26.4167 23.0688 26.4167 24.3016Z" fill="white" stroke="#FF8B00"/>
<path d="M5.61004 24.3016C5.61004 25.5344 4.65197 26.5016 3.50912 26.5016C2.36627 26.5016 1.4082 25.5344 1.4082 24.3016C1.4082 23.0688 2.36627 22.1016 3.50912 22.1016C4.65197 22.1016 5.61004 23.0688 5.61004 24.3016Z" fill="white" stroke="#FF8B00"/>
</svg>
