<svg width="27" height="27" viewBox="0 0 27 27" fill="none" xmlns="http://www.w3.org/2000/svg">
<rect x="3.71582" y="3.3125" width="19.5505" height="20.3714" stroke="#EA001E" stroke-width="2"/>
<path d="M25.9948 2.7C25.9948 3.93281 25.0367 4.9 23.8939 4.9C22.751 4.9 21.793 3.93281 21.793 2.7C21.793 1.46719 22.751 0.5 23.8939 0.5C25.0367 0.5 25.9948 1.46719 25.9948 2.7Z" fill="white" stroke="#EA001E"/>
<path d="M5.18816 2.7C5.18816 3.93281 4.2301 4.9 3.08725 4.9C1.9444 4.9 0.986328 3.93281 0.986328 2.7C0.986328 1.46719 1.9444 0.5 3.08725 0.5C4.2301 0.5 5.18816 1.46719 5.18816 2.7Z" fill="white" stroke="#EA001E"/>
<path d="M25.9948 24.3016C25.9948 25.5344 25.0367 26.5016 23.8939 26.5016C22.751 26.5016 21.793 25.5344 21.793 24.3016C21.793 23.0688 22.751 22.1016 23.8939 22.1016C25.0367 22.1016 25.9948 23.0688 25.9948 24.3016Z" fill="white" stroke="#EA001E"/>
<path d="M5.18816 24.3016C5.18816 25.5344 4.2301 26.5016 3.08725 26.5016C1.9444 26.5016 0.986328 25.5344 0.986328 24.3016C0.986328 23.0688 1.9444 22.1016 3.08725 22.1016C4.2301 22.1016 5.18816 23.0688 5.18816 24.3016Z" fill="white" stroke="#EA001E"/>
</svg>
