<svg width="18" height="18" viewBox="0 0 18 18" fill="currentColor" xmlns="http://www.w3.org/2000/svg">
<path d="M3.25 0.933594C1.73122 0.933594 0.5 2.16481 0.5 3.68359V13.2493C0.5 13.6635 0.835786 13.9993 1.25 13.9993C1.66421 13.9993 2 13.6635 2 13.2493V3.68359C2 2.99324 2.55964 2.43359 3.25 2.43359H12.75C13.4404 2.43359 14 2.99324 14 3.68359V8.27667C14.4734 8.06802 14.9893 7.97685 15.5 8.00427V3.68359C15.5 2.16481 14.2688 0.933594 12.75 0.933594H3.25ZM16.8063 9.55657L16.6773 9.45076L16.6742 9.44838C15.7943 8.78128 14.5073 8.86185 13.7228 9.66008L9.91969 13.5295C9.68418 13.7691 9.51156 14.0589 9.41664 14.375L8.83029 16.3273C8.26401 16.4135 7.76097 16.4056 7.22557 16.3206C7.20151 16.3168 7.18788 16.2909 7.19829 16.2689L7.23245 16.1966L7.23547 16.1902C7.30061 16.052 7.41551 15.8083 7.45281 15.5574C7.47361 15.4174 7.47955 15.2232 7.40405 15.0165C7.32287 14.7943 7.17071 14.6211 6.98183 14.5049C6.65843 14.306 6.25504 14.2908 5.90872 14.3108C5.63449 14.3266 5.29514 14.3733 4.87789 14.4546C4.41595 14.5446 3.97693 14.7514 3.53945 14.9574C2.96264 15.229 2.38848 15.4994 1.76798 15.4994C1.54503 15.4994 1.3306 15.4629 1.13034 15.3956C1.00723 15.3542 0.871743 15.454 0.902989 15.5801C0.959654 15.8087 1.06469 16.1175 1.29525 16.3554C1.42127 16.4854 1.59027 16.5993 1.80333 16.6541C2.01538 16.7086 2.22083 16.6915 2.40086 16.6386C3.85473 16.2119 4.8205 15.9799 5.44874 15.875C5.58062 15.8529 5.67967 15.9862 5.63919 16.1136C5.57578 16.3132 5.48619 16.6914 5.67263 17.0741C5.87486 17.4892 6.27319 17.6631 6.61738 17.7339C7.76018 17.9691 8.74624 17.9384 9.95273 17.6217C10.0054 17.6132 10.0581 17.6006 10.1102 17.5837L10.2274 17.5458C10.3985 17.4963 10.5743 17.4413 10.7558 17.3808C10.7831 17.3717 10.8095 17.3612 10.8351 17.3493L12.2228 16.9005C12.5608 16.7912 12.8658 16.6039 13.1105 16.3551L16.9049 12.4946C17.6911 11.6939 17.6877 10.4604 16.9233 9.66909L16.8063 9.55657ZM10.9311 14.7873C10.9564 14.7032 11.0025 14.6254 11.0662 14.5606L14.8692 10.6912C15.0987 10.4577 15.4852 10.4444 15.7301 10.6616C15.949 10.8556 15.9792 11.1673 15.8161 11.3949L15.7551 11.4669L11.964 15.3239C11.8979 15.3912 11.8148 15.4424 11.7222 15.4723L10.6181 15.8294L10.9311 14.7873Z"/>
</svg>
