<svg width="64" height="64" viewBox="0 0 64 64" fill="none" xmlns="http://www.w3.org/2000/svg">
<path d="M64 32C64 49.6731 49.6731 64 32 64C14.3269 64 0 49.6731 0 32C0 14.3269 14.3269 0 32 0C49.6731 0 64 14.3269 64 32Z" fill="#FEEEE5"/>
<path fill-rule="evenodd" clip-rule="evenodd" d="M32 56C45.2548 56 56 45.2548 56 32C56 18.7452 45.2548 8 32 8C18.7452 8 8 18.7452 8 32C8 45.2548 18.7452 56 32 56ZM32 64C49.6731 64 64 49.6731 64 32C64 14.3269 49.6731 0 32 0C14.3269 0 0 14.3269 0 32C0 49.6731 14.3269 64 32 64Z" fill="#D12030"/>
<path d="M44.8243 19.2519C37.8044 12.2494 26.2847 12.2494 19.2649 19.2519C12.245 26.2544 12.245 37.7456 19.2649 44.7481C26.2847 51.7506 37.6244 51.7506 44.6443 44.7481C51.6641 37.7456 51.8441 26.2544 44.8243 19.2519ZM37.0844 39.5411L32.0446 34.5137L27.0047 39.5411L24.4847 37.0274L29.5246 32L24.4847 26.9726L27.0047 24.4589L32.0446 29.4863L37.0844 24.4589L39.6044 26.9726L34.5645 32L39.6044 37.0274L37.0844 39.5411Z" fill="#BA0517"/>
</svg>
