<svg width="20" height="16" viewBox="0 0 20 16" fill="none" xmlns="http://www.w3.org/2000/svg">
<path fill-rule="evenodd" clip-rule="evenodd" d="M3.33333 0C1.49238 0 0 1.49238 0 3.33333C0 5.17428 1.49238 6.66667 3.33333 6.66667C5.17428 6.66667 6.66667 5.17428 6.66667 3.33333C6.66667 1.49238 5.17428 0 3.33333 0ZM3.33333 8.88889C1.49238 8.88889 0 10.3813 0 12.2222C0 14.0632 1.49238 15.5556 3.33333 15.5556C5.17428 15.5556 6.66667 14.0632 6.66667 12.2222C6.66667 10.3813 5.17428 8.88889 3.33333 8.88889ZM8.88889 3.33333C8.88889 2.10603 9.88381 1.11111 11.1111 1.11111H17.7778C19.0051 1.11111 20 2.10603 20 3.33333C20 4.56063 19.0051 5.55556 17.7778 5.55556H11.1111C9.88381 5.55556 8.88889 4.56063 8.88889 3.33333ZM11.1111 10C9.88381 10 8.88889 10.9949 8.88889 12.2222C8.88889 13.4495 9.88381 14.4444 11.1111 14.4444H17.7778C19.0051 14.4444 20 13.4495 20 12.2222C20 10.9949 19.0051 10 17.7778 10H11.1111Z" fill="currentColor"/>
</svg>
