<svg width="25" height="24" viewBox="0 0 25 24" fill="none" xmlns="http://www.w3.org/2000/svg">
<path d="M12 1.56661e-06C5.383 1.56661e-06 0 5.383 0 12C0 18.617 5.383 24 12 24C16.05 24 19.64 21.988 21.813 18.906L20.188 17.75C19.2656 19.0647 18.0397 20.1374 16.6142 20.8773C15.1888 21.6172 13.606 22.0023 12 22C6.465 22 2 17.535 2 12C2 6.465 6.465 2 12 2C13.6059 1.99813 15.1886 2.38343 16.614 3.12326C18.0393 3.86309 19.2653 4.93564 20.188 6.25L21.813 5.094C20.7064 3.51956 19.2369 2.2347 17.5289 1.34805C15.8209 0.461396 13.9245 -0.000982228 12 1.56661e-06ZM19.344 7.281L17.906 8.719L20.188 11H8V13H20.188L17.906 15.281L19.344 16.719L23.344 12.719L24.03 12L23.343 11.281L19.344 7.281Z" fill="#EA001E"/>
</svg>
