<svg width="24" height="24" viewBox="0 0 24 24" fill="none" xmlns="http://www.w3.org/2000/svg">
<circle cx="12" cy="12" r="12" fill="#FFAB00"/>
<circle cx="12" cy="12" r="9" fill="#FFC400"/>
<path d="M11.3093 6.57317C11.5682 6.04852 12.3163 6.04853 12.5752 6.57317L13.9379 9.33423L16.9849 9.77698C17.5639 9.86111 17.7951 10.5726 17.3761 10.981L15.1713 13.1302L15.6918 16.1649C15.7907 16.7415 15.1854 17.1813 14.6676 16.909L11.9422 15.4762L9.21692 16.909C8.69906 17.1813 8.09382 16.7415 8.19272 16.1649L8.71321 13.1302L6.50837 10.981C6.08942 10.5726 6.32061 9.86111 6.89958 9.77698L9.94659 9.33423L11.3093 6.57317Z" fill="#FFAB00"/>
</svg>
