<svg width="24" height="24" viewBox="0 0 24 24" fill="none" xmlns="http://www.w3.org/2000/svg">
<circle cx="12" cy="12" r="12" fill="#36B37E"/>
<circle cx="12" cy="12" r="9" fill="#ABF5D1"/>
<path d="M9.47093 5.94141C8.88616 5.94141 8.41211 6.41546 8.41211 7.00023V16.1767C8.41211 16.7615 8.88616 17.2355 9.47093 17.2355H14.4121C14.9969 17.2355 15.4709 16.7615 15.4709 16.1767V7.00023C15.4709 6.41546 14.9969 5.94141 14.4121 5.94141H9.47093ZM11.2356 14.412H12.6474C12.8423 14.412 13.0003 14.57 13.0003 14.7649C13.0003 14.9599 12.8423 15.1179 12.6474 15.1179H11.2356C11.0407 15.1179 10.8827 14.9599 10.8827 14.7649C10.8827 14.57 11.0407 14.412 11.2356 14.412Z" fill="#36B37E"/>
</svg>
