<svg width="34" height="34" viewBox="0 0 34 34" fill="none" xmlns="http://www.w3.org/2000/svg">
<mask id="mask0_2241_85274" style="mask-type:alpha" maskUnits="userSpaceOnUse" x="3" y="0" width="28" height="34">
<path fill-rule="evenodd" clip-rule="evenodd" d="M18.6164 27.4299C25.4554 26.6298 30.7621 20.8156 30.7621 13.7619C30.7621 6.16141 24.6007 0 17.0002 0C9.39971 0 3.23828 6.16141 3.23828 13.7619C3.23828 20.8155 8.54497 26.6298 15.3837 27.4299C15.382 27.461 15.381 27.4923 15.381 27.5238V32.3809C15.381 33.2751 16.106 34 17.0002 34C17.8944 34 18.6191 33.2751 18.6191 32.3809V27.5238C18.6191 27.4923 18.6183 27.461 18.6164 27.4299Z" fill="white"/>
</mask>
<g mask="url(#mask0_2241_85274)">
<path fill-rule="evenodd" clip-rule="evenodd" d="M18.6164 27.4299C25.4554 26.6298 30.7621 20.8156 30.7621 13.7619C30.7621 6.16141 24.6007 0 17.0002 0C9.39971 0 3.23828 6.16141 3.23828 13.7619C3.23828 20.8155 8.54497 26.6298 15.3837 27.4299C15.382 27.461 15.381 27.4923 15.381 27.5238V32.3809C15.381 33.2751 16.106 34 17.0002 34C17.8944 34 18.6191 33.2751 18.6191 32.3809V27.5238C18.6191 27.4923 18.6183 27.461 18.6164 27.4299Z" fill="#EA001E"/>
<path d="M18.6164 27.4299L18.5003 26.4367L17.5643 26.5462L17.6181 27.487L18.6164 27.4299ZM15.3837 27.4299L16.3821 27.487L16.4359 26.5462L15.4999 26.4367L15.3837 27.4299ZM29.762 13.7619C29.762 20.3024 24.8411 25.6948 18.5003 26.4367L18.7327 28.4231C26.0695 27.5648 31.7621 21.3289 31.7621 13.7619H29.762ZM17.0001 0.999999C24.0483 0.999999 29.762 6.7137 29.762 13.7619H31.7621C31.7621 5.60913 25.1529 -1 17.0001 -1V0.999999ZM4.23829 13.7619C4.23829 6.7137 9.95199 0.999999 17.0001 0.999999V-1C8.84741 -1 2.23828 5.60913 2.23828 13.7619H4.23829ZM15.4999 26.4367C9.15917 25.6948 4.23829 20.3022 4.23829 13.7619H2.23828C2.23828 21.3288 7.93079 27.5646 15.2676 28.4231L15.4999 26.4367ZM16.3811 27.5238C16.3811 27.5114 16.3815 27.4991 16.3821 27.487L14.3854 27.3728C14.3826 27.4228 14.381 27.4731 14.381 27.5238H16.3811ZM16.3811 32.3809V27.5238H14.381V32.3809H16.3811ZM17.0001 33C16.6582 33 16.3811 32.7229 16.3811 32.3809H14.381C14.381 33.8274 15.5536 35 17.0001 35V33ZM17.6191 32.3809C17.6191 32.7229 17.342 33 17.0001 33V35C18.4466 35 19.6191 33.8274 19.6191 32.3809H17.6191ZM17.6191 27.5238V32.3809H19.6191V27.5238H17.6191ZM17.6181 27.487C17.6188 27.4991 17.6191 27.5114 17.6191 27.5238H19.6191C19.6191 27.4733 19.6177 27.4228 19.6149 27.3728L17.6181 27.487Z" fill="white"/>
<path d="M16.9994 23.4764C22.3645 23.4764 26.7137 19.1272 26.7137 13.7621C26.7137 8.39708 22.3645 4.04785 16.9994 4.04785C11.6344 4.04785 7.28516 8.39708 7.28516 13.7621C7.28516 19.1272 11.6344 23.4764 16.9994 23.4764Z" fill="#FFF5F3"/>
<mask id="mask1_2241_85274" style="mask-type:alpha" maskUnits="userSpaceOnUse" x="8" y="5" width="17" height="17">
<path d="M24.9289 5.66602H8.9043V21.6906H24.9289V5.66602Z" fill="white"/>
</mask>
<g mask="url(#mask1_2241_85274)">
<path d="M17.8882 8.07362C18.2345 7.31113 19.2361 7.12947 19.8283 7.72169L23.8506 11.7441C24.4428 12.3363 24.2612 13.3377 23.4987 13.6842L19.8915 15.3235C19.7902 15.3694 19.7127 15.4556 19.6775 15.5611L18.431 19.3005C18.3872 19.432 18.2784 19.5315 18.1436 19.5633C18.0087 19.5951 17.8669 19.5548 17.769 19.4568L15.2245 16.9123L12.3721 19.7648L12.3705 19.7631H11.8083V19.2009L11.8066 19.1992L14.659 16.3469L12.1146 13.8025C12.0166 13.7045 11.9763 13.5628 12.0082 13.4279C12.04 13.293 12.1394 13.1843 12.2709 13.1404L16.0119 11.8934C16.1175 11.8583 16.2035 11.7808 16.2495 11.6795L17.8882 8.07362Z" fill="#EA001E"/>
</g>
</g>
</svg>
