<svg width="18" height="23" viewBox="0 0 18 23" fill="none" xmlns="http://www.w3.org/2000/svg">
<path d="M14.6588 10.1587C14.7416 10.0815 14.8081 9.98835 14.8543 9.88486C14.9004 9.78136 14.9252 9.66963 14.9272 9.55634C14.9292 9.44305 14.9083 9.33051 14.8659 9.22545C14.8235 9.12039 14.7603 9.02495 14.6802 8.94483C14.6 8.86471 14.5046 8.80155 14.3995 8.75911C14.2945 8.71668 14.182 8.69584 14.0687 8.69783C13.9554 8.69983 13.8436 8.72463 13.7401 8.77075C13.6366 8.81686 13.5435 8.88335 13.4663 8.96625L7.875 14.5575L5.65875 12.3413C5.4988 12.1922 5.28725 12.1111 5.06866 12.1149C4.85007 12.1188 4.64151 12.2073 4.48693 12.3619C4.33234 12.5165 4.24378 12.7251 4.23993 12.9437C4.23607 13.1623 4.31721 13.3738 4.46625 13.5337L7.27875 16.3463C7.43695 16.5043 7.65141 16.593 7.875 16.593C8.09859 16.593 8.31305 16.5043 8.47125 16.3463L14.6588 10.1587ZM13.4933 2.3445C13.4461 1.70721 13.1597 1.11134 12.6914 0.676484C12.2232 0.241625 11.6078 -3.74599e-05 10.9688 4.35534e-09H7.03125C6.40863 1.8815e-05 5.80786 0.229508 5.3438 0.644593C4.87973 1.05968 4.58493 1.63124 4.51575 2.25H2.53125C1.85992 2.25 1.21609 2.51668 0.741386 2.99139C0.266685 3.46609 0 4.10992 0 4.78125V19.9688C0 20.6401 0.266685 21.2839 0.741386 21.7586C1.21609 22.2333 1.85992 22.5 2.53125 22.5H15.4688C15.8012 22.5 16.1303 22.4345 16.4374 22.3073C16.7445 22.1801 17.0236 21.9937 17.2586 21.7586C17.4937 21.5236 17.6801 21.2445 17.8073 20.9374C17.9345 20.6303 18 20.3012 18 19.9688V4.78125C18 4.44884 17.9345 4.11969 17.8073 3.81258C17.6801 3.50548 17.4937 3.22643 17.2586 2.99139C17.0236 2.75634 16.7445 2.56989 16.4374 2.44268C16.1303 2.31547 15.8012 2.25 15.4688 2.25H13.4843L13.4933 2.3445ZM13.4933 2.358L13.5 2.53125C13.5 2.47275 13.4978 2.41538 13.4944 2.358H13.4933ZM7.03125 5.0625H10.9688C11.8462 5.0625 12.6191 4.61587 13.0736 3.9375H15.4688C15.6925 3.9375 15.9071 4.02639 16.0654 4.18463C16.2236 4.34286 16.3125 4.55747 16.3125 4.78125V19.9688C16.3125 20.1925 16.2236 20.4071 16.0654 20.5654C15.9071 20.7236 15.6925 20.8125 15.4688 20.8125H2.53125C2.30747 20.8125 2.09286 20.7236 1.93463 20.5654C1.77639 20.4071 1.6875 20.1925 1.6875 19.9688V4.78125C1.6875 4.55747 1.77639 4.34286 1.93463 4.18463C2.09286 4.02639 2.30747 3.9375 2.53125 3.9375H4.92637C5.38087 4.61587 6.15375 5.0625 7.03125 5.0625ZM7.03125 1.6875H10.9688C11.1925 1.6875 11.4071 1.77639 11.5654 1.93463C11.7236 2.09286 11.8125 2.30747 11.8125 2.53125C11.8125 2.75503 11.7236 2.96964 11.5654 3.12787C11.4071 3.28611 11.1925 3.375 10.9688 3.375H7.03125C6.80747 3.375 6.59286 3.28611 6.43463 3.12787C6.2764 2.96964 6.1875 2.75503 6.1875 2.53125C6.1875 2.30747 6.2764 2.09286 6.43463 1.93463C6.59286 1.77639 6.80747 1.6875 7.03125 1.6875Z" fill="#262829"/>
</svg>
