<svg width="24" height="24" viewBox="0 0 24 24" fill="none" xmlns="http://www.w3.org/2000/svg">
<path d="M7.13823 11.0171C6.48001 11.0171 5.85736 11.1489 5.28809 11.3844C6.05305 13.9038 7.60077 16.2583 9.76668 17.8782C10.1936 18.1984 10.6606 18.4857 11.1498 18.74C11.6969 17.9442 12.0171 16.9788 12.0171 15.9334C12.0171 13.2209 9.8334 11.0171 7.14268 11.0171H7.13823Z" fill="#828282"/>
<path d="M18.3191 13.6965C20.1069 12.2461 24.6256 9.10517 23.9273 7.83372C23.3625 6.80714 20.8897 8.04562 18.1011 9.65142C15.9085 10.9182 16.3844 9.38771 17.7765 7.16032C19.004 5.19663 20.8497 2.55012 19.8223 1.82963C18.6259 0.996126 14.9568 5.61574 14.0984 6.52459C13.2401 7.43815 12.4573 7.9279 12.8887 5.3897C13.4669 2.018 13.5781 0.252091 12.862 0.0401817C11.8613 -0.256491 11.2343 1.06676 9.73101 4.77281C8.65472 7.43344 7.71631 7.90435 7.60067 5.51685C7.44946 1.22687 6.42209 2.21107 6.02627 2.87034C4.94109 4.68334 4.57195 6.87777 4.81656 9.08162C5.67047 8.73786 6.60444 8.54479 7.58288 8.54479C11.7679 8.54479 15.1569 12.006 15.1569 16.2677C15.1569 17.5486 14.85 18.7541 14.3075 19.8183C16.6957 20.2798 19.213 20.0585 21.1076 19.0602C21.4234 18.8954 22.1884 18.3962 21.7125 17.7087C20.7607 16.3336 19.0396 17.0541 17.2028 16.4937C15.5928 15.9993 17.0293 14.7372 18.3191 13.6918V13.6965Z" fill="#EA001E"/>
<path d="M11.1454 18.7399C10.2603 20.0208 8.79709 20.859 7.13818 20.859C4.44302 20.859 2.26376 18.6552 2.26376 15.9333C2.26376 13.8755 3.5135 12.119 5.28804 11.3796C5.05677 10.6215 4.89666 9.84919 4.81216 9.0769C1.99691 10.2024 0 12.9949 0 16.2677C0 20.5341 3.39342 24 7.57848 24C10.5049 24 13.0444 22.3 14.3031 19.8183C13.2001 19.6017 12.1193 19.2391 11.1454 18.7352V18.7399Z" fill="#828282"/>
</svg>
