<svg width="64" height="64" viewBox="0 0 64 64" fill="none" xmlns="http://www.w3.org/2000/svg">
<path d="M64 32C64 49.6731 49.6731 64 32 64C14.3269 64 0 49.6731 0 32C0 14.3269 14.3269 0 32 0C49.6731 0 64 14.3269 64 32Z" fill="#FFFAE6"/>
<path fill-rule="evenodd" clip-rule="evenodd" d="M32 56C45.2548 56 56 45.2548 56 32C56 18.7452 45.2548 8 32 8C18.7452 8 8 18.7452 8 32C8 45.2548 18.7452 56 32 56ZM32 64C49.6731 64 64 49.6731 64 32C64 14.3269 49.6731 0 32 0C14.3269 0 0 14.3269 0 32C0 49.6731 14.3269 64 32 64Z" fill="#FFAB00"/>
<path d="M33.5 33H30.5V25.5H33.5M33.5 39H30.5V36H33.5M15.5 43.5H48.5L32 15L15.5 43.5Z" fill="#FFAB00"/>
</svg>
