<svg width="96" height="97" viewBox="0 0 96 97" fill="none" xmlns="http://www.w3.org/2000/svg">
<path d="M96 48.002C96 74.5116 74.5097 96.002 48 96.002C21.4903 96.002 0 74.5116 0 48.002C0 21.4923 21.4903 0.00195312 48 0.00195312C74.5097 0.00195312 96 21.4923 96 48.002Z" fill="#EAE6FF"/>
<g filter="url(#filter0_f_4363_38173)">
<path d="M18.7295 25.8821C18.7295 22.5019 21.4697 19.7617 24.8498 19.7617H63.3198C66.6999 19.7617 69.4401 22.5019 69.4401 25.8821V64.352C69.4401 67.7322 66.6999 70.4723 63.3198 70.4723H24.8498C21.4697 70.4723 18.7295 67.7322 18.7295 64.352V25.8821Z" fill="url(#paint0_linear_4363_38173)"/>
</g>
<mask id="mask0_4363_38173" style="mask-type:alpha" maskUnits="userSpaceOnUse" x="18" y="19" width="52" height="52">
<path d="M18.7295 25.8821C18.7295 22.5019 21.4697 19.7617 24.8498 19.7617H63.6878C67.0679 19.7617 69.8081 22.5019 69.8081 25.8821V64.352C69.8081 67.7322 67.0679 70.4723 63.6878 70.4723H24.8498C21.4697 70.4723 18.7295 67.7322 18.7295 64.352V25.8821Z" fill="url(#paint1_linear_4363_38173)"/>
</mask>
<g mask="url(#mask0_4363_38173)">
<path fill-rule="evenodd" clip-rule="evenodd" d="M69.3672 48.0144L19.1826 70.7647V67.4544L69.3672 44.7041V48.0144Z" fill="url(#paint2_linear_4363_38173)"/>
<path fill-rule="evenodd" clip-rule="evenodd" d="M23.6097 14.2119C22.7966 14.5824 22.0503 15.0945 21.4071 15.733C21.31 15.8294 21.2189 15.9258 21.1279 16.0222L51.2217 75.8062C51.5949 76.5502 52.5081 76.8544 53.2575 76.4809C54.0069 76.1104 54.3102 75.2038 53.934 74.4598L23.6097 14.2119Z" fill="url(#paint3_linear_4363_38173)"/>
<path fill-rule="evenodd" clip-rule="evenodd" d="M29.4289 64.4867L34.4774 75.0892C34.8354 75.8392 35.7395 76.1615 36.498 75.8061C37.2535 75.4507 37.5781 74.5531 37.2201 73.8001L32.1716 63.1975C31.8136 62.4475 30.9095 62.1252 30.151 62.4806C29.3956 62.836 29.0709 63.7336 29.4289 64.4867Z" fill="url(#paint4_linear_4363_38173)"/>
<path fill-rule="evenodd" clip-rule="evenodd" d="M69.367 26.2031L34.4827 38.7997C33.6969 39.0858 33.2903 39.9503 33.5755 40.7304C33.8607 41.5106 34.7314 41.9142 35.5203 41.6311L69.367 29.408V26.2031Z" fill="url(#paint5_linear_4363_38173)"/>
</g>
<g filter="url(#filter1_f_4363_38173)">
<path fill-rule="evenodd" clip-rule="evenodd" d="M31.938 28.3656C32.687 26.7729 32.5701 24.9081 31.6269 23.4224C30.6845 21.9367 29.047 21.0366 27.2867 21.0366C27.2867 21.0366 27.2859 21.0366 27.2851 21.0366C25.5331 21.0366 23.9022 21.9325 22.9632 23.4116C22.0233 24.8907 21.9047 26.7472 22.6488 28.3332C23.7421 30.6642 24.9026 33.1363 25.7372 34.9156C26.0209 35.5195 26.6281 35.9061 27.295 35.9061C27.9628 35.9061 28.57 35.5212 28.8546 34.9173C29.6882 33.1462 30.8455 30.6875 31.938 28.3656Z" fill="url(#paint6_linear_4363_38173)"/>
</g>
<g filter="url(#filter2_d_4363_38173)">
<path d="M27.4688 26.0465C28.4284 26.0465 29.2062 25.2687 29.2062 24.3092C29.2062 23.3496 28.4284 22.5718 27.4688 22.5718C26.5093 22.5718 25.7314 23.3496 25.7314 24.3092C25.7314 25.2687 26.5093 26.0465 27.4688 26.0465Z" fill="url(#paint7_linear_4363_38173)"/>
</g>
<g filter="url(#filter3_d_4363_38173)">
<path d="M24.3066 28.7182C24.2661 28.8702 24.2785 29.0315 24.3416 29.1756C24.4047 29.3198 24.5149 29.4382 24.654 29.5116C25.5263 29.9508 26.4891 30.1799 27.4657 30.1805C28.444 30.1789 29.4086 29.9499 30.2831 29.5116C30.4247 29.4411 30.5367 29.3227 30.5992 29.1774C30.6618 29.0322 30.6709 28.8695 30.6248 28.7182C30.4034 28.0585 29.9781 27.4862 29.4103 27.0839C28.8424 26.6816 28.1615 26.4701 27.4657 26.4798C26.7698 26.4696 26.0886 26.6809 25.5207 27.0833C24.9529 27.4857 24.5276 28.0582 24.3066 28.7182Z" fill="url(#paint8_linear_4363_38173)"/>
</g>
<g filter="url(#filter4_f_4363_38173)">
<path fill-rule="evenodd" clip-rule="evenodd" d="M66.8584 39.9212C67.9607 37.5775 67.7886 34.8333 66.4006 32.647C65.0139 30.4607 62.6042 29.1362 60.0139 29.1362C60.0139 29.1362 60.0127 29.1362 60.0114 29.1362C57.4333 29.1362 55.0334 30.4546 53.6515 32.6311C52.2685 34.8077 52.0939 37.5396 53.1889 39.8736C54.7978 43.3038 56.5056 46.9415 57.7336 49.56C58.1511 50.4486 59.0446 51.0175 60.0261 51.0175C61.0088 51.0175 61.9023 50.4511 62.321 49.5624C63.5478 46.9562 65.2507 43.338 66.8584 39.9212Z" fill="url(#paint9_linear_4363_38173)"/>
</g>
<g filter="url(#filter5_d_4363_38173)">
<path d="M60.0468 36.3949C61.4318 36.3949 62.5546 35.2722 62.5546 33.8872C62.5546 32.5022 61.4318 31.3794 60.0468 31.3794C58.6618 31.3794 57.5391 32.5022 57.5391 33.8872C57.5391 35.2722 58.6618 36.3949 60.0468 36.3949Z" fill="url(#paint10_linear_4363_38173)"/>
</g>
<g filter="url(#filter6_d_4363_38173)">
<path d="M55.4829 40.2514C55.4245 40.4708 55.4424 40.7036 55.5335 40.9117C55.6246 41.1197 55.7836 41.2907 55.9845 41.3966C57.2435 42.0305 58.6333 42.3612 60.0429 42.3621C61.455 42.3599 62.8472 42.0293 64.1096 41.3966C64.314 41.2948 64.4756 41.1239 64.5659 40.9143C64.6562 40.7046 64.6693 40.4698 64.6028 40.2514C64.2832 39.2991 63.6693 38.4731 62.8497 37.8924C62.0301 37.3117 61.0472 37.0064 60.0429 37.0205C59.0384 37.0057 58.0552 37.3108 57.2355 37.8916C56.4158 38.4724 55.802 39.2988 55.4829 40.2514Z" fill="url(#paint11_linear_4363_38173)"/>
</g>
<g filter="url(#filter7_f_4363_38173)">
<path fill-rule="evenodd" clip-rule="evenodd" d="M39.0311 53.7877C40.4167 50.8415 40.2004 47.392 38.4556 44.6437C36.7125 41.8954 33.6834 40.2305 30.4272 40.2305C30.4272 40.2305 30.4256 40.2305 30.4241 40.2305C27.1832 40.2305 24.1664 41.8877 22.4294 44.6237C20.6908 47.3597 20.4714 50.7939 21.8478 53.7279C23.8703 58.0398 26.017 62.6126 27.5607 65.9041C28.0855 67.0212 29.2088 67.7363 30.4425 67.7363C31.6778 67.7363 32.801 67.0243 33.3274 65.9072C34.8695 62.631 37.0102 58.0828 39.0311 53.7877Z" fill="url(#paint12_linear_4363_38173)"/>
</g>
<g filter="url(#filter8_d_4363_38173)">
<path d="M30.5147 49.3531C32.1834 49.3531 33.5362 48.0003 33.5362 46.3316C33.5362 44.6628 32.1834 43.3101 30.5147 43.3101C28.8459 43.3101 27.4932 44.6628 27.4932 46.3316C27.4932 48.0003 28.8459 49.3531 30.5147 49.3531Z" fill="url(#paint13_linear_4363_38173)"/>
</g>
<g filter="url(#filter9_d_4363_38173)">
<path d="M25.0152 53.9998C24.9449 54.2642 24.9664 54.5447 25.0761 54.7954C25.1859 55.046 25.3775 55.252 25.6195 55.3796C27.1364 56.1435 28.811 56.5419 30.5094 56.5429C32.2108 56.5403 33.8883 56.142 35.4093 55.3796C35.6555 55.257 35.8502 55.0511 35.959 54.7985C36.0678 54.5459 36.0836 54.2629 36.0035 53.9998C35.6184 52.8525 34.8787 51.8572 33.8912 51.1575C32.9037 50.4579 31.7195 50.09 30.5094 50.1071C29.2991 50.0893 28.1145 50.4568 27.1269 51.1566C26.1392 51.8563 25.3997 52.8521 25.0152 53.9998Z" fill="url(#paint14_linear_4363_38173)"/>
</g>
<g style="mix-blend-mode:overlay">
<path d="M45.6748 70.5902L59.2496 52.5898L67.3141 70.5902H45.6748Z" fill="url(#paint15_linear_4363_38173)"/>
</g>
<g filter="url(#filter10_f_4363_38173)">
<path d="M82.4174 63.3826C82.4174 71.1859 76.0916 77.5117 68.2883 77.5117C60.485 77.5117 54.1592 71.1859 54.1592 63.3826C54.1592 55.5792 60.485 49.2534 68.2883 49.2534C76.0916 49.2534 82.4174 55.5792 82.4174 63.3826Z" fill="url(#paint16_linear_4363_38173)"/>
</g>
<g filter="url(#filter11_d_4363_38173)">
<path fill-rule="evenodd" clip-rule="evenodd" d="M72.0626 57.3466C72.0626 59.1577 70.5944 60.6258 68.7833 60.6258C66.9723 60.6258 65.5041 59.1577 65.5041 57.3466C65.5041 55.5355 66.9723 54.0674 68.7833 54.0674C70.5944 54.0674 72.0626 55.5355 72.0626 57.3466ZM63.1184 60.3266C64.2335 60.3266 65.1375 59.4227 65.1375 58.3075C65.1375 57.1924 64.2335 56.2884 63.1184 56.2884C62.0032 56.2884 61.0993 57.1924 61.0993 58.3075C61.0993 59.4227 62.0032 60.3266 63.1184 60.3266ZM74.4483 60.3266C75.5634 60.3266 76.4674 59.4227 76.4674 58.3075C76.4674 57.1924 75.5634 56.2884 74.4483 56.2884C73.3332 56.2884 72.4292 57.1924 72.4292 58.3075C72.4292 59.4227 73.3332 60.3266 74.4483 60.3266ZM65.9432 62.1548C66.5612 61.6899 67.1353 61.4727 68.1266 61.3288C68.3405 61.2977 69.8668 61.344 70.1098 61.389C71.4784 61.642 72.7163 62.7738 73.1579 64.1758C73.33 64.7221 73.3467 64.9649 73.336 66.7555L73.3271 68.2457C73.3265 68.3422 73.305 68.4374 73.2641 68.5247L73.2384 68.5794C73.1208 68.8302 72.9438 69.0192 72.7471 69.1038C72.3963 69.2547 72.2897 69.2587 68.6766 69.2587H65.4107C65.3116 69.2587 65.2137 69.2366 65.1242 69.194L65.0435 69.1556C64.7795 69.0299 64.5761 68.832 64.4536 68.5817L64.4256 68.5244C64.3835 68.4383 64.3604 68.3441 64.358 68.2482L64.3317 67.2096C64.2889 65.5135 64.3484 64.7418 64.5766 64.0338C64.8207 63.2765 65.2659 62.6644 65.9432 62.1548ZM60.4239 62.8973C60.6635 62.1663 61.2988 61.5715 62.027 61.3963C62.3095 61.3283 63.5413 61.3259 63.8602 61.3926C64.0961 61.4419 64.5604 61.6525 64.706 61.7762C64.7491 61.8128 64.7529 61.8779 64.7143 61.9192L64.6355 62.0035C64.0689 62.6092 63.6555 63.4245 63.4783 64.2857C63.353 64.8949 63.3317 65.2685 63.3382 66.7498L63.344 68.0922C63.3442 68.1403 63.3116 68.1822 63.265 68.1939C63.2214 68.2049 62.7075 68.2089 62.1231 68.203L61.2117 68.1937C61.1121 68.1927 61.014 68.1694 60.9247 68.1255L60.871 68.0991C60.6658 67.9983 60.5203 67.8536 60.4023 67.6329C60.353 67.5405 60.3271 67.4374 60.3271 67.3326V65.3423V63.5031C60.3271 63.2973 60.3598 63.0929 60.4239 62.8973ZM73.8119 61.3944C73.5616 61.4487 73.1725 61.6263 73.0182 61.7567C72.9591 61.8067 72.9529 61.8957 73.0046 61.9534L73.1095 62.0705C73.6774 62.7049 74.0371 63.4258 74.2086 64.2736C74.3256 64.8516 74.3492 65.278 74.3458 66.7499L74.3427 68.0924C74.3425 68.1404 74.3752 68.1823 74.4217 68.194C74.4653 68.2049 74.9716 68.209 75.5468 68.203C76.5322 68.1928 76.6016 68.188 76.7467 68.1209C76.958 68.0232 77.1638 67.8293 77.2702 67.6276C77.3287 67.5168 77.3593 67.3934 77.3593 67.268V65.3257V63.5058C77.3593 63.2982 77.3264 63.092 77.2617 62.8948C77.0209 62.16 76.3808 61.5667 75.6427 61.3943C75.3541 61.3268 74.1233 61.3269 73.8119 61.3944Z" fill="url(#paint17_linear_4363_38173)"/>
</g>
<defs>
<filter id="filter0_f_4363_38173" x="18.388" y="19.4202" width="51.394" height="51.3935" filterUnits="userSpaceOnUse" color-interpolation-filters="sRGB">
<feFlood flood-opacity="0" result="BackgroundImageFix"/>
<feBlend mode="normal" in="SourceGraphic" in2="BackgroundImageFix" result="shape"/>
<feGaussianBlur stdDeviation="0.170769" result="effect1_foregroundBlur_4363_38173"/>
</filter>
<filter id="filter1_f_4363_38173" x="21.8852" y="20.7578" width="10.8204" height="15.4273" filterUnits="userSpaceOnUse" color-interpolation-filters="sRGB">
<feFlood flood-opacity="0" result="BackgroundImageFix"/>
<feBlend mode="normal" in="SourceGraphic" in2="BackgroundImageFix" result="shape"/>
<feGaussianBlur stdDeviation="0.139428" result="effect1_foregroundBlur_4363_38173"/>
</filter>
<filter id="filter2_d_4363_38173" x="20.9875" y="17.8278" width="12.9625" height="12.9625" filterUnits="userSpaceOnUse" color-interpolation-filters="sRGB">
<feFlood flood-opacity="0" result="BackgroundImageFix"/>
<feColorMatrix in="SourceAlpha" type="matrix" values="0 0 0 0 0 0 0 0 0 0 0 0 0 0 0 0 0 0 127 0" result="hardAlpha"/>
<feOffset/>
<feGaussianBlur stdDeviation="2.37198"/>
<feComposite in2="hardAlpha" operator="out"/>
<feColorMatrix type="matrix" values="0 0 0 0 0.278431 0 0 0 0 0.219608 0 0 0 0 0.611765 0 0 0 0.5 0"/>
<feBlend mode="normal" in2="BackgroundImageFix" result="effect1_dropShadow_4363_38173"/>
<feBlend mode="normal" in="SourceGraphic" in2="effect1_dropShadow_4363_38173" result="shape"/>
</filter>
<filter id="filter3_d_4363_38173" x="19.5392" y="21.7355" width="15.8581" height="13.1891" filterUnits="userSpaceOnUse" color-interpolation-filters="sRGB">
<feFlood flood-opacity="0" result="BackgroundImageFix"/>
<feColorMatrix in="SourceAlpha" type="matrix" values="0 0 0 0 0 0 0 0 0 0 0 0 0 0 0 0 0 0 127 0" result="hardAlpha"/>
<feOffset/>
<feGaussianBlur stdDeviation="2.37198"/>
<feComposite in2="hardAlpha" operator="out"/>
<feColorMatrix type="matrix" values="0 0 0 0 0.278431 0 0 0 0 0.219608 0 0 0 0 0.611765 0 0 0 0.5 0"/>
<feBlend mode="normal" in2="BackgroundImageFix" result="effect1_dropShadow_4363_38173"/>
<feBlend mode="normal" in="SourceGraphic" in2="effect1_dropShadow_4363_38173" result="shape"/>
</filter>
<filter id="filter4_f_4363_38173" x="52.1967" y="28.8574" width="15.6603" height="22.4391" filterUnits="userSpaceOnUse" color-interpolation-filters="sRGB">
<feFlood flood-opacity="0" result="BackgroundImageFix"/>
<feBlend mode="normal" in="SourceGraphic" in2="BackgroundImageFix" result="shape"/>
<feGaussianBlur stdDeviation="0.139428" result="effect1_foregroundBlur_4363_38173"/>
</filter>
<filter id="filter5_d_4363_38173" x="52.7951" y="26.6354" width="14.5036" height="14.5036" filterUnits="userSpaceOnUse" color-interpolation-filters="sRGB">
<feFlood flood-opacity="0" result="BackgroundImageFix"/>
<feColorMatrix in="SourceAlpha" type="matrix" values="0 0 0 0 0 0 0 0 0 0 0 0 0 0 0 0 0 0 127 0" result="hardAlpha"/>
<feOffset/>
<feGaussianBlur stdDeviation="2.37198"/>
<feComposite in2="hardAlpha" operator="out"/>
<feColorMatrix type="matrix" values="0 0 0 0 0.278431 0 0 0 0 0.219608 0 0 0 0 0.611765 0 0 0 0.5 0"/>
<feBlend mode="normal" in2="BackgroundImageFix" result="effect1_dropShadow_4363_38173"/>
<feBlend mode="normal" in="SourceGraphic" in2="effect1_dropShadow_4363_38173" result="shape"/>
</filter>
<filter id="filter6_d_4363_38173" x="50.7052" y="32.276" width="18.6833" height="14.8302" filterUnits="userSpaceOnUse" color-interpolation-filters="sRGB">
<feFlood flood-opacity="0" result="BackgroundImageFix"/>
<feColorMatrix in="SourceAlpha" type="matrix" values="0 0 0 0 0 0 0 0 0 0 0 0 0 0 0 0 0 0 127 0" result="hardAlpha"/>
<feOffset/>
<feGaussianBlur stdDeviation="2.37198"/>
<feComposite in2="hardAlpha" operator="out"/>
<feColorMatrix type="matrix" values="0 0 0 0 0.278431 0 0 0 0 0.219608 0 0 0 0 0.611765 0 0 0 0.5 0"/>
<feBlend mode="normal" in2="BackgroundImageFix" result="effect1_dropShadow_4363_38173"/>
<feBlend mode="normal" in="SourceGraphic" in2="effect1_dropShadow_4363_38173" result="shape"/>
</filter>
<filter id="filter7_f_4363_38173" x="20.6723" y="39.9516" width="19.5421" height="28.0636" filterUnits="userSpaceOnUse" color-interpolation-filters="sRGB">
<feFlood flood-opacity="0" result="BackgroundImageFix"/>
<feBlend mode="normal" in="SourceGraphic" in2="BackgroundImageFix" result="shape"/>
<feGaussianBlur stdDeviation="0.139428" result="effect1_foregroundBlur_4363_38173"/>
</filter>
<filter id="filter8_d_4363_38173" x="22.7492" y="38.5661" width="15.5309" height="15.5309" filterUnits="userSpaceOnUse" color-interpolation-filters="sRGB">
<feFlood flood-opacity="0" result="BackgroundImageFix"/>
<feColorMatrix in="SourceAlpha" type="matrix" values="0 0 0 0 0 0 0 0 0 0 0 0 0 0 0 0 0 0 127 0" result="hardAlpha"/>
<feOffset/>
<feGaussianBlur stdDeviation="2.37198"/>
<feComposite in2="hardAlpha" operator="out"/>
<feColorMatrix type="matrix" values="0 0 0 0 0.278431 0 0 0 0 0.219608 0 0 0 0 0.611765 0 0 0 0.5 0"/>
<feBlend mode="normal" in2="BackgroundImageFix" result="effect1_dropShadow_4363_38173"/>
<feBlend mode="normal" in="SourceGraphic" in2="effect1_dropShadow_4363_38173" result="shape"/>
</filter>
<filter id="filter9_d_4363_38173" x="20.2306" y="45.3625" width="20.567" height="15.9245" filterUnits="userSpaceOnUse" color-interpolation-filters="sRGB">
<feFlood flood-opacity="0" result="BackgroundImageFix"/>
<feColorMatrix in="SourceAlpha" type="matrix" values="0 0 0 0 0 0 0 0 0 0 0 0 0 0 0 0 0 0 127 0" result="hardAlpha"/>
<feOffset/>
<feGaussianBlur stdDeviation="2.37198"/>
<feComposite in2="hardAlpha" operator="out"/>
<feColorMatrix type="matrix" values="0 0 0 0 0.278431 0 0 0 0 0.219608 0 0 0 0 0.611765 0 0 0 0.5 0"/>
<feBlend mode="normal" in2="BackgroundImageFix" result="effect1_dropShadow_4363_38173"/>
<feBlend mode="normal" in="SourceGraphic" in2="effect1_dropShadow_4363_38173" result="shape"/>
</filter>
<filter id="filter10_f_4363_38173" x="53.8176" y="48.9119" width="28.9409" height="28.9414" filterUnits="userSpaceOnUse" color-interpolation-filters="sRGB">
<feFlood flood-opacity="0" result="BackgroundImageFix"/>
<feBlend mode="normal" in="SourceGraphic" in2="BackgroundImageFix" result="shape"/>
<feGaussianBlur stdDeviation="0.170769" result="effect1_foregroundBlur_4363_38173"/>
</filter>
<filter id="filter11_d_4363_38173" x="56.5732" y="50.3134" width="24.5402" height="22.6994" filterUnits="userSpaceOnUse" color-interpolation-filters="sRGB">
<feFlood flood-opacity="0" result="BackgroundImageFix"/>
<feColorMatrix in="SourceAlpha" type="matrix" values="0 0 0 0 0 0 0 0 0 0 0 0 0 0 0 0 0 0 127 0" result="hardAlpha"/>
<feOffset/>
<feGaussianBlur stdDeviation="1.87699"/>
<feComposite in2="hardAlpha" operator="out"/>
<feColorMatrix type="matrix" values="0 0 0 0 0.294118 0 0 0 0 0.235294 0 0 0 0 0.631373 0 0 0 0.5 0"/>
<feBlend mode="normal" in2="BackgroundImageFix" result="effect1_dropShadow_4363_38173"/>
<feBlend mode="normal" in="SourceGraphic" in2="effect1_dropShadow_4363_38173" result="shape"/>
</filter>
<linearGradient id="paint0_linear_4363_38173" x1="44.0848" y1="19.7617" x2="44.619" y2="80.553" gradientUnits="userSpaceOnUse">
<stop stop-color="#C0B6F2"/>
<stop offset="0.47603" stop-color="#8777D9"/>
<stop offset="0.753951" stop-color="#6554C0"/>
<stop offset="1" stop-color="#403294"/>
</linearGradient>
<linearGradient id="paint1_linear_4363_38173" x1="44.2688" y1="19.7617" x2="44.2688" y2="70.4723" gradientUnits="userSpaceOnUse">
<stop stop-color="#FCFDFD"/>
<stop offset="0.989583" stop-color="#F2F4F6"/>
</linearGradient>
<linearGradient id="paint2_linear_4363_38173" x1="44.2749" y1="44.7041" x2="44.2749" y2="70.7647" gradientUnits="userSpaceOnUse">
<stop stop-color="#FCFDFD"/>
<stop offset="0.989583" stop-color="#F2F4F6"/>
</linearGradient>
<linearGradient id="paint3_linear_4363_38173" x1="37.6118" y1="14.2119" x2="37.6118" y2="76.6407" gradientUnits="userSpaceOnUse">
<stop stop-color="#FCFDFD"/>
<stop offset="0.989583" stop-color="#F2F4F6"/>
</linearGradient>
<linearGradient id="paint4_linear_4363_38173" x1="33.3245" y1="62.3359" x2="33.3245" y2="75.9508" gradientUnits="userSpaceOnUse">
<stop stop-color="#FCFDFD"/>
<stop offset="0.989583" stop-color="#F2F4F6"/>
</linearGradient>
<linearGradient id="paint5_linear_4363_38173" x1="51.4257" y1="26.2031" x2="51.4257" y2="41.7215" gradientUnits="userSpaceOnUse">
<stop stop-color="#FCFDFD"/>
<stop offset="0.989583" stop-color="#F2F4F6"/>
</linearGradient>
<linearGradient id="paint6_linear_4363_38173" x1="27.3254" y1="21.1298" x2="28.0232" y2="37.4448" gradientUnits="userSpaceOnUse">
<stop stop-color="#FFF0B3"/>
<stop offset="0.255208" stop-color="#FFC400"/>
<stop offset="0.539749" stop-color="#FFAB00"/>
<stop offset="1" stop-color="#FF8B00"/>
</linearGradient>
<linearGradient id="paint7_linear_4363_38173" x1="26.9911" y1="22.5718" x2="26.9911" y2="26.0198" gradientUnits="userSpaceOnUse">
<stop stop-color="#FCFDFD"/>
<stop offset="0.989583" stop-color="#F2F4F6"/>
</linearGradient>
<linearGradient id="paint8_linear_4363_38173" x1="26.5927" y1="26.4795" x2="26.5927" y2="30.152" gradientUnits="userSpaceOnUse">
<stop stop-color="#FCFDFD"/>
<stop offset="0.989583" stop-color="#F2F4F6"/>
</linearGradient>
<linearGradient id="paint9_linear_4363_38173" x1="60.0707" y1="29.2734" x2="61.0976" y2="53.2818" gradientUnits="userSpaceOnUse">
<stop stop-color="#FFF0B3"/>
<stop offset="0.255208" stop-color="#FFC400"/>
<stop offset="0.539749" stop-color="#FFAB00"/>
<stop offset="1" stop-color="#FF8B00"/>
</linearGradient>
<linearGradient id="paint10_linear_4363_38173" x1="59.3573" y1="31.3794" x2="59.3573" y2="36.3563" gradientUnits="userSpaceOnUse">
<stop stop-color="#FCFDFD"/>
<stop offset="0.989583" stop-color="#F2F4F6"/>
</linearGradient>
<linearGradient id="paint11_linear_4363_38173" x1="58.7828" y1="37.02" x2="58.7828" y2="42.3209" gradientUnits="userSpaceOnUse">
<stop stop-color="#FCFDFD"/>
<stop offset="0.989583" stop-color="#F2F4F6"/>
</linearGradient>
<linearGradient id="paint12_linear_4363_38173" x1="30.4986" y1="40.4029" x2="31.7895" y2="70.5826" gradientUnits="userSpaceOnUse">
<stop stop-color="#FFF0B3"/>
<stop offset="0.255208" stop-color="#FFC400"/>
<stop offset="0.539749" stop-color="#FFAB00"/>
<stop offset="1" stop-color="#FF8B00"/>
</linearGradient>
<linearGradient id="paint13_linear_4363_38173" x1="29.6839" y1="43.3101" x2="29.6839" y2="49.3066" gradientUnits="userSpaceOnUse">
<stop stop-color="#FCFDFD"/>
<stop offset="0.989583" stop-color="#F2F4F6"/>
</linearGradient>
<linearGradient id="paint14_linear_4363_38173" x1="28.9911" y1="50.1064" x2="28.9911" y2="56.4934" gradientUnits="userSpaceOnUse">
<stop stop-color="#FCFDFD"/>
<stop offset="0.989583" stop-color="#F2F4F6"/>
</linearGradient>
<linearGradient id="paint15_linear_4363_38173" x1="59.3475" y1="52.7226" x2="44.1839" y2="73.8681" gradientUnits="userSpaceOnUse">
<stop/>
<stop offset="1" stop-opacity="0"/>
</linearGradient>
<linearGradient id="paint16_linear_4363_38173" x1="78.4135" y1="55.2548" x2="54.8156" y2="71.6345" gradientUnits="userSpaceOnUse">
<stop stop-color="#C0B6F2"/>
<stop offset="0.255208" stop-color="#8777D9"/>
<stop offset="0.51605" stop-color="#6554C0"/>
<stop offset="1" stop-color="#403294"/>
</linearGradient>
<linearGradient id="paint17_linear_4363_38173" x1="71.2548" y1="31.883" x2="71.2548" y2="69.2592" gradientUnits="userSpaceOnUse">
<stop stop-color="#FCFDFD"/>
<stop offset="0.989583" stop-color="#F2F4F6"/>
</linearGradient>
</defs>
</svg>
