<svg width="96" height="96" viewBox="0 0 96 96" fill="none" xmlns="http://www.w3.org/2000/svg">
<circle cx="48" cy="48" r="48" fill="#EAE6FF"/>
<g filter="url(#filter0_f_4363_38575)">
<rect x="31.0352" y="32.8164" width="35.3292" height="35.3292" rx="12.2055" fill="url(#paint0_linear_4363_38575)"/>
</g>
<g filter="url(#filter1_f_4363_38575)">
<rect x="19.9951" y="24.3521" width="35.3292" height="35.3292" rx="12.2055" fill="url(#paint1_linear_4363_38575)"/>
</g>
<g style="mix-blend-mode:overlay">
<path d="M47.9033 68.1312L58.9288 53.5112L65.4788 68.1312H47.9033Z" fill="url(#paint2_linear_4363_38575)"/>
</g>
<g filter="url(#filter2_f_4363_38575)">
<circle cx="66.2697" cy="62.277" r="11.4757" fill="url(#paint3_linear_4363_38575)"/>
</g>
<g filter="url(#filter3_d_4363_38575)">
<path fill-rule="evenodd" clip-rule="evenodd" d="M64.762 56.2939C64.1448 56.4359 63.6353 56.8985 63.4242 57.5084L63.3895 57.6087L62.1299 57.623C60.914 57.6368 60.8676 57.6393 60.7914 57.6962C60.6415 57.8082 60.5947 57.8996 60.5947 58.0802C60.5947 58.2609 60.6415 58.3523 60.7914 58.4643C60.8676 58.5212 60.914 58.5237 62.1299 58.5375L63.3895 58.5518L63.4242 58.6521C63.6422 59.282 64.157 59.7368 64.804 59.8709C65.2225 59.9576 65.7058 59.8734 66.09 59.6468C66.4215 59.4513 66.7445 59.0469 66.8787 58.6593L66.9159 58.5518L70.0043 58.5375C73.0679 58.5233 73.0934 58.5227 73.1717 58.4643C73.3216 58.3523 73.3684 58.261 73.3684 58.0802C73.3684 57.8995 73.3216 57.8082 73.1717 57.6962C73.0934 57.6378 73.0679 57.6372 70.0043 57.623L66.9159 57.6087L66.8787 57.5012C66.7445 57.1136 66.4215 56.7092 66.09 56.5137C65.7041 56.2861 65.1758 56.1987 64.762 56.2939ZM65.5828 57.2832C65.776 57.3862 65.8633 57.4771 65.9747 57.6914C66.0391 57.8154 66.0506 57.8738 66.0511 58.0802C66.0517 58.3027 66.0436 58.3383 65.9547 58.5032C65.8465 58.7038 65.7569 58.7903 65.5415 58.9023C65.4171 58.9669 65.3598 58.9781 65.1527 58.9781C64.9455 58.9781 64.8883 58.9669 64.7638 58.9023C64.5485 58.7903 64.4588 58.7038 64.3507 58.5032C64.2617 58.3381 64.2537 58.303 64.2545 58.0802C64.2555 57.8145 64.3056 57.6705 64.464 57.4783C64.5503 57.3736 64.7869 57.2297 64.9366 57.1908C65.1154 57.1443 65.3982 57.1848 65.5828 57.2832ZM68.4198 60.8661C67.8026 61.0081 67.2932 61.4706 67.082 62.0806L67.0473 62.181L63.9588 62.1953C60.8952 62.2094 60.8697 62.21 60.7915 62.2685C60.6415 62.3804 60.5947 62.4718 60.5947 62.6525C60.5947 62.8332 60.6415 62.9245 60.7915 63.0365C60.8697 63.0949 60.8952 63.0955 63.9588 63.1097L67.0473 63.124L67.082 63.2243C67.3001 63.8544 67.8148 64.309 68.4618 64.4431C68.8803 64.5298 69.3636 64.4457 69.7478 64.2191C70.0793 64.0235 70.4023 63.619 70.5364 63.2315L70.5736 63.124L71.8332 63.1097C73.0492 63.0959 73.0956 63.0934 73.1717 63.0365C73.3216 62.9245 73.3684 62.8332 73.3684 62.6525C73.3684 62.4718 73.3216 62.3805 73.1717 62.2685C73.0956 62.2116 73.0492 62.2091 71.8332 62.1953L70.5736 62.181L70.5364 62.0735C70.4023 61.6859 70.0793 61.2814 69.7477 61.0859C69.3619 60.8583 68.8336 60.7709 68.4198 60.8661ZM69.2406 61.8555C69.4338 61.9584 69.5211 62.0494 69.6325 62.2636C69.6969 62.3877 69.7084 62.4461 69.7089 62.6525C69.7095 62.8749 69.7014 62.9106 69.6125 63.0754C69.5043 63.276 69.4147 63.3626 69.1993 63.4745C69.0749 63.5392 69.0176 63.5503 68.8105 63.5503C68.6033 63.5503 68.5461 63.5392 68.4216 63.4745C68.2063 63.3626 68.1166 63.276 68.0085 63.0754C67.9194 62.9104 67.9114 62.8752 67.9123 62.6525C67.9133 62.3867 67.9634 62.2427 68.1218 62.0506C68.2081 61.9459 68.4447 61.8019 68.5944 61.763C68.7731 61.7166 69.056 61.757 69.2406 61.8555ZM64.762 65.4383C64.1448 65.5804 63.6353 66.043 63.4242 66.6529L63.3895 66.7532L62.1299 66.7675C60.914 66.7813 60.8676 66.7838 60.7914 66.8407C60.6415 66.9527 60.5947 67.044 60.5947 67.2247C60.5947 67.4054 60.6415 67.4967 60.7914 67.6087C60.8676 67.6656 60.914 67.6681 62.1299 67.6819L63.3895 67.6962L63.4242 67.7966C63.6422 68.4265 64.157 68.8812 64.804 69.0154C65.2225 69.1021 65.7058 69.0179 66.09 68.7913C66.4215 68.5958 66.7445 68.1914 66.8787 67.8037L66.9159 67.6962L70.0043 67.6819C73.0679 67.6678 73.0934 67.6672 73.1717 67.6087C73.3216 67.4968 73.3684 67.4054 73.3684 67.2247C73.3684 67.044 73.3216 66.9527 73.1717 66.8407C73.0934 66.7823 73.0679 66.7817 70.0043 66.7675L66.9159 66.7532L66.8787 66.6457C66.7445 66.2581 66.4215 65.8537 66.09 65.6581C65.7041 65.4306 65.1758 65.3431 64.762 65.4383ZM65.5828 66.4277C65.776 66.5307 65.8633 66.6216 65.9747 66.8359C66.0391 66.9599 66.0506 67.0183 66.0511 67.2247C66.0517 67.4472 66.0436 67.4828 65.9547 67.6477C65.8465 67.8482 65.7569 67.9348 65.5415 68.0467C65.4171 68.1114 65.3598 68.1226 65.1527 68.1226C64.9455 68.1226 64.8883 68.1114 64.7638 68.0467C64.5485 67.9348 64.4588 67.8482 64.3507 67.6477C64.2617 67.4826 64.2537 67.4474 64.2545 67.2247C64.2555 66.959 64.3056 66.8149 64.464 66.6228C64.5503 66.5181 64.7869 66.3742 64.9366 66.3353C65.1154 66.2888 65.3982 66.3293 65.5828 66.4277Z" fill="url(#paint4_linear_4363_38575)"/>
</g>
<defs>
<filter id="filter0_f_4363_38575" x="30.5992" y="32.3805" width="36.2009" height="36.2009" filterUnits="userSpaceOnUse" color-interpolation-filters="sRGB">
<feFlood flood-opacity="0" result="BackgroundImageFix"/>
<feBlend mode="normal" in="SourceGraphic" in2="BackgroundImageFix" result="shape"/>
<feGaussianBlur stdDeviation="0.217955" result="effect1_foregroundBlur_4363_38575"/>
</filter>
<filter id="filter1_f_4363_38575" x="19.5592" y="23.9161" width="36.2009" height="36.2009" filterUnits="userSpaceOnUse" color-interpolation-filters="sRGB">
<feFlood flood-opacity="0" result="BackgroundImageFix"/>
<feBlend mode="normal" in="SourceGraphic" in2="BackgroundImageFix" result="shape"/>
<feGaussianBlur stdDeviation="0.217955" result="effect1_foregroundBlur_4363_38575"/>
</filter>
<filter id="filter2_f_4363_38575" x="54.5151" y="50.5224" width="23.5089" height="23.5094" filterUnits="userSpaceOnUse" color-interpolation-filters="sRGB">
<feFlood flood-opacity="0" result="BackgroundImageFix"/>
<feBlend mode="normal" in="SourceGraphic" in2="BackgroundImageFix" result="shape"/>
<feGaussianBlur stdDeviation="0.139428" result="effect1_foregroundBlur_4363_38575"/>
</filter>
<filter id="filter3_d_4363_38575" x="56.7417" y="52.4028" width="20.4796" height="20.4991" filterUnits="userSpaceOnUse" color-interpolation-filters="sRGB">
<feFlood flood-opacity="0" result="BackgroundImageFix"/>
<feColorMatrix in="SourceAlpha" type="matrix" values="0 0 0 0 0 0 0 0 0 0 0 0 0 0 0 0 0 0 127 0" result="hardAlpha"/>
<feOffset/>
<feGaussianBlur stdDeviation="1.92653"/>
<feComposite in2="hardAlpha" operator="out"/>
<feColorMatrix type="matrix" values="0 0 0 0 0.278431 0 0 0 0 0.219608 0 0 0 0 0.611765 0 0 0 0.5 0"/>
<feBlend mode="normal" in2="BackgroundImageFix" result="effect1_dropShadow_4363_38575"/>
<feBlend mode="normal" in="SourceGraphic" in2="effect1_dropShadow_4363_38575" result="shape"/>
</filter>
<linearGradient id="paint0_linear_4363_38575" x1="48.6998" y1="32.8164" x2="49.0719" y2="75.1686" gradientUnits="userSpaceOnUse">
<stop stop-color="#C0B6F2"/>
<stop offset="0.47603" stop-color="#8777D9"/>
<stop offset="0.753951" stop-color="#6554C0"/>
<stop offset="1" stop-color="#403294"/>
</linearGradient>
<linearGradient id="paint1_linear_4363_38575" x1="37.6597" y1="24.3521" x2="38.0319" y2="66.7043" gradientUnits="userSpaceOnUse">
<stop stop-color="#C0B6F2"/>
<stop offset="0.47603" stop-color="#8777D9"/>
<stop offset="0.753951" stop-color="#6554C0"/>
<stop offset="1" stop-color="#403294"/>
</linearGradient>
<linearGradient id="paint2_linear_4363_38575" x1="59.0083" y1="53.619" x2="46.6924" y2="70.7935" gradientUnits="userSpaceOnUse">
<stop/>
<stop offset="1" stop-opacity="0"/>
</linearGradient>
<linearGradient id="paint3_linear_4363_38575" x1="66.3362" y1="50.9451" x2="67.0803" y2="76.1519" gradientUnits="userSpaceOnUse">
<stop stop-color="#FFF0B3"/>
<stop offset="0.255208" stop-color="#FFC400"/>
<stop offset="0.539749" stop-color="#FFAB00"/>
<stop offset="1" stop-color="#FF8B00"/>
</linearGradient>
<linearGradient id="paint4_linear_4363_38575" x1="65.2255" y1="56.2559" x2="65.2255" y2="68.9503" gradientUnits="userSpaceOnUse">
<stop stop-color="#FCFDFD"/>
<stop offset="0.989583" stop-color="#F2F4F6"/>
</linearGradient>
</defs>
</svg>
