<svg width="150" height="151" viewBox="0 0 150 151" fill="none" xmlns="http://www.w3.org/2000/svg">
<circle cx="75" cy="75.1787" r="75" fill="#E3FCEF"/>
<g filter="url(#filter0_f_326_91885)">
<path fill-rule="evenodd" clip-rule="evenodd" d="M84.3113 38.5683C83.0744 37.3317 81.3971 36.6367 79.6484 36.6367C72.2644 36.6367 50.58 36.6367 50.58 36.6367C48.3935 36.6367 46.2966 37.5054 44.7505 39.0515C43.2044 40.5976 42.3357 42.6945 42.3357 44.881C42.3357 59.2735 42.3357 90.5819 42.3357 104.974C42.3357 107.161 43.2044 109.258 44.7505 110.804C46.2966 112.35 48.3935 113.219 50.58 113.219C61.4621 113.219 81.497 113.219 92.3791 113.219C94.5656 113.219 96.6625 112.35 98.2086 110.804C99.7547 109.258 100.623 107.161 100.623 104.974C100.623 104.974 100.623 67.5977 100.623 57.6121C100.623 55.863 99.9288 54.1857 98.6918 52.9488C95.2873 49.5443 87.7158 41.9728 84.3113 38.5683Z" fill="url(#paint0_linear_326_91885)"/>
</g>
<path d="M98.8895 53.0444L83.6079 37.7629C82.9039 37.0589 81.9491 36.6634 80.9535 36.6634L81.3068 51.8395C81.377 54.8582 83.8309 57.2761 86.8503 57.3016L100.701 57.4189C100.701 55.7781 100.05 54.2046 98.8895 53.0444Z" fill="url(#paint1_linear_326_91885)"/>
<path fill-rule="evenodd" clip-rule="evenodd" d="M65.8632 60.7927L86.1809 60.7926C87.5568 60.7926 88.674 61.9098 88.674 63.2857C88.674 64.6616 87.5568 65.7784 86.1809 65.7784L65.8632 65.7785C64.4874 65.7785 63.3705 64.6617 63.3705 63.2858C63.3705 61.9096 64.4874 60.7927 65.8632 60.7927ZM75.1753 92.4218H65.8634C64.4875 92.4218 63.3706 93.539 63.3706 94.9149C63.3706 96.2908 64.4875 97.4077 65.8634 97.4077H75.1753C76.5512 97.4077 77.6681 96.2908 77.6681 94.9149C77.6681 93.539 76.5512 92.4218 75.1753 92.4218ZM79.2237 76.6072H65.8634C64.4875 76.6072 63.3706 77.7241 63.3706 79.1003C63.3706 80.4762 64.4875 81.5931 65.8634 81.5931H79.2237C80.5996 81.5931 81.7168 80.4762 81.7168 79.1003C81.7168 77.7244 80.5996 76.6072 79.2237 76.6072Z" fill="url(#paint2_linear_326_91885)"/>
<rect x="50.3347" y="58.8967" width="8.57788" height="8.57788" rx="1.9689" stroke="url(#paint3_linear_326_91885)" stroke-width="1.9689" stroke-linejoin="round"/>
<rect x="50.3347" y="74.8582" width="8.57788" height="8.57788" rx="1.9689" stroke="url(#paint4_linear_326_91885)" stroke-width="1.9689" stroke-linejoin="round"/>
<rect x="50.3347" y="90.8196" width="8.57788" height="8.57788" rx="1.9689" stroke="url(#paint5_linear_326_91885)" stroke-width="1.9689" stroke-linejoin="round"/>
<path d="M55.8171 66.0641C55.4608 66.0641 55.1045 65.9328 54.8233 65.6515L52.0105 62.8388C51.4667 62.295 51.4667 61.3949 52.0105 60.8511C52.5543 60.3073 53.4544 60.3073 53.9982 60.8511L55.8171 62.67L62.324 56.1632C62.8678 55.6194 63.7678 55.6194 64.3116 56.1632C64.8554 56.707 64.8554 57.607 64.3116 58.1508L56.811 65.6515C56.5297 65.9328 56.1734 66.0641 55.8171 66.0641Z" fill="url(#paint6_linear_326_91885)"/>
<g style="mix-blend-mode:overlay">
<path d="M67.1241 113.767L86.4717 87.2758L94.806 113.767H67.1241Z" fill="url(#paint7_linear_326_91885)"/>
</g>
<g filter="url(#filter1_f_326_91885)">
<circle cx="100.488" cy="98.5288" r="18.0746" fill="url(#paint8_linear_326_91885)"/>
</g>
<g filter="url(#filter2_d_326_91885)">
<path fill-rule="evenodd" clip-rule="evenodd" d="M105.228 92.5077C105.228 94.8245 103.35 96.7026 101.033 96.7026C98.7162 96.7026 96.8381 94.8245 96.8381 92.5077C96.8381 90.1909 98.7162 88.3127 101.033 88.3127C103.35 88.3127 105.228 90.1909 105.228 92.5077ZM93.7861 96.3195C95.2126 96.3195 96.369 95.1631 96.369 93.7366C96.369 92.3101 95.2126 91.1537 93.7861 91.1537C92.3596 91.1537 91.2032 92.3101 91.2032 93.7366C91.2032 95.1631 92.3596 96.3195 93.7861 96.3195ZM108.28 96.3195C109.706 96.3195 110.863 95.1631 110.863 93.7366C110.863 92.3101 109.706 91.1537 108.28 91.1537C106.853 91.1537 105.697 92.3101 105.697 93.7366C105.697 95.1631 106.853 96.3195 108.28 96.3195ZM97.3998 98.6579C98.1903 98.0631 98.9248 97.7852 100.193 97.6011C100.466 97.5614 102.419 97.6206 102.73 97.6781C104.481 98.0019 106.064 99.4496 106.629 101.243C106.849 101.942 106.871 102.253 106.857 104.543L106.846 106.45C106.845 106.573 106.817 106.695 106.765 106.806L106.732 106.876C106.582 107.197 106.355 107.439 106.104 107.547C105.655 107.74 105.518 107.745 100.896 107.745H96.7186C96.5918 107.745 96.4665 107.717 96.352 107.663L96.2488 107.613C95.9111 107.453 95.6509 107.2 95.4942 106.879L95.4584 106.806C95.4044 106.696 95.3749 106.575 95.3718 106.453L95.3383 105.124C95.2835 102.954 95.3596 101.967 95.6515 101.062C95.9638 100.093 96.5334 99.3097 97.3998 98.6579ZM90.3392 99.6077C90.6457 98.6726 91.4584 97.9116 92.39 97.6875C92.7513 97.6005 94.3271 97.5974 94.7351 97.6828C95.0368 97.7459 95.6308 98.0152 95.8171 98.1734C95.8722 98.2203 95.877 98.3036 95.8276 98.3565L95.7269 98.4642C95.0021 99.2391 94.4732 100.282 94.2465 101.384C94.0862 102.163 94.059 102.641 94.0673 104.536L94.0748 106.253C94.075 106.315 94.0333 106.368 93.9737 106.383C93.9179 106.397 93.2605 106.403 92.5129 106.395L91.347 106.383C91.2196 106.382 91.0942 106.352 90.9798 106.296L90.9112 106.262C90.6486 106.133 90.4625 105.948 90.3116 105.666C90.2485 105.547 90.2155 105.416 90.2155 105.282V102.735V100.383C90.2155 100.119 90.2572 99.8578 90.3392 99.6077ZM107.466 97.6851C107.145 97.7545 106.648 97.9817 106.45 98.1485C106.375 98.2125 106.367 98.3263 106.433 98.4001L106.567 98.55C107.294 99.3615 107.754 100.284 107.973 101.368C108.123 102.108 108.153 102.653 108.149 104.536L108.145 106.253C108.145 106.315 108.186 106.368 108.246 106.383C108.302 106.397 108.949 106.403 109.685 106.395C110.946 106.382 111.034 106.376 111.22 106.29C111.49 106.165 111.754 105.917 111.89 105.659C111.965 105.517 112.004 105.359 112.004 105.199V102.714V100.386C112.004 100.121 111.962 99.8567 111.879 99.6045C111.571 98.6645 110.752 97.9055 109.808 97.6849C109.439 97.5986 107.864 97.5987 107.466 97.6851Z" fill="url(#paint9_linear_326_91885)"/>
</g>
<defs>
<filter id="filter0_f_326_91885" x="42.0561" y="36.3571" width="58.847" height="77.1413" filterUnits="userSpaceOnUse" color-interpolation-filters="sRGB">
<feFlood flood-opacity="0" result="BackgroundImageFix"/>
<feBlend mode="normal" in="SourceGraphic" in2="BackgroundImageFix" result="shape"/>
<feGaussianBlur stdDeviation="0.139811" result="effect1_foregroundBlur_326_91885"/>
</filter>
<filter id="filter1_f_326_91885" x="82.1341" y="80.1754" width="36.7069" height="36.7069" filterUnits="userSpaceOnUse" color-interpolation-filters="sRGB">
<feFlood flood-opacity="0" result="BackgroundImageFix"/>
<feBlend mode="normal" in="SourceGraphic" in2="BackgroundImageFix" result="shape"/>
<feGaussianBlur stdDeviation="0.139428" result="effect1_foregroundBlur_326_91885"/>
</filter>
<filter id="filter2_d_326_91885" x="87.142" y="85.2393" width="27.9351" height="25.5796" filterUnits="userSpaceOnUse" color-interpolation-filters="sRGB">
<feFlood flood-opacity="0" result="BackgroundImageFix"/>
<feColorMatrix in="SourceAlpha" type="matrix" values="0 0 0 0 0 0 0 0 0 0 0 0 0 0 0 0 0 0 127 0" result="hardAlpha"/>
<feOffset/>
<feGaussianBlur stdDeviation="1.53672"/>
<feComposite in2="hardAlpha" operator="out"/>
<feColorMatrix type="matrix" values="0 0 0 0 1 0 0 0 0 0.627451 0 0 0 0 0.180392 0 0 0 1 0"/>
<feBlend mode="normal" in2="BackgroundImageFix" result="effect1_dropShadow_326_91885"/>
<feBlend mode="normal" in="SourceGraphic" in2="effect1_dropShadow_326_91885" result="shape"/>
</filter>
<linearGradient id="paint0_linear_326_91885" x1="71.4796" y1="36.6367" x2="72.5395" y2="128.437" gradientUnits="userSpaceOnUse">
<stop stop-color="#ABF5D1"/>
<stop offset="0.255208" stop-color="#57D9A3"/>
<stop offset="0.661458" stop-color="#36B37E"/>
<stop offset="1" stop-color="#006644"/>
</linearGradient>
<linearGradient id="paint1_linear_326_91885" x1="90.8275" y1="36.6634" x2="90.8275" y2="57.4189" gradientUnits="userSpaceOnUse">
<stop stop-color="#FCFDFD"/>
<stop offset="0.989583" stop-color="#F2F4F6"/>
</linearGradient>
<linearGradient id="paint2_linear_326_91885" x1="76.0222" y1="60.7926" x2="76.0222" y2="95.4388" gradientUnits="userSpaceOnUse">
<stop stop-color="#FCFDFD"/>
<stop offset="0.989583" stop-color="#F2F4F6"/>
</linearGradient>
<linearGradient id="paint3_linear_326_91885" x1="54.6237" y1="58.8967" x2="54.6237" y2="67.4746" gradientUnits="userSpaceOnUse">
<stop stop-color="#FCFDFD"/>
<stop offset="1" stop-color="#F2F4F6"/>
</linearGradient>
<linearGradient id="paint4_linear_326_91885" x1="54.6237" y1="74.8582" x2="54.6237" y2="83.436" gradientUnits="userSpaceOnUse">
<stop stop-color="#FCFDFD"/>
<stop offset="1" stop-color="#F2F4F6"/>
</linearGradient>
<linearGradient id="paint5_linear_326_91885" x1="54.6237" y1="90.8196" x2="54.6237" y2="99.3975" gradientUnits="userSpaceOnUse">
<stop stop-color="#FCFDFD"/>
<stop offset="1" stop-color="#F2F4F6"/>
</linearGradient>
<linearGradient id="paint6_linear_326_91885" x1="58.1611" y1="55.7553" x2="58.1611" y2="66.0641" gradientUnits="userSpaceOnUse">
<stop stop-color="#FDFDFD"/>
<stop offset="1" stop-color="#EDF0F2"/>
</linearGradient>
<linearGradient id="paint7_linear_326_91885" x1="84.6149" y1="90.9097" x2="65.217" y2="117.96" gradientUnits="userSpaceOnUse">
<stop/>
<stop offset="1" stop-opacity="0"/>
</linearGradient>
<linearGradient id="paint8_linear_326_91885" x1="100.592" y1="80.6808" x2="101.764" y2="120.382" gradientUnits="userSpaceOnUse">
<stop stop-color="#FFF0B3"/>
<stop offset="0.255208" stop-color="#FFC400"/>
<stop offset="0.539749" stop-color="#FFAB00"/>
<stop offset="1" stop-color="#FF8B00"/>
</linearGradient>
<linearGradient id="paint9_linear_326_91885" x1="104.195" y1="59.9343" x2="104.195" y2="107.746" gradientUnits="userSpaceOnUse">
<stop stop-color="#FCFDFD"/>
<stop offset="0.989583" stop-color="#F2F4F6"/>
</linearGradient>
</defs>
</svg>
