<svg width="103" height="96" viewBox="0 0 103 96" fill="none" xmlns="http://www.w3.org/2000/svg">
<circle cx="48" cy="48" r="48" fill="#EAE6FF"/>
<g filter="url(#filter0_f_4363_38787)">
<path d="M72.8954 30.2993H32.2732C30.7028 30.2993 29.4297 31.5724 29.4297 33.1429V63.4394H75.7389V33.1429C75.7389 31.5724 74.4658 30.2993 72.8954 30.2993Z" fill="url(#paint0_linear_4363_38787)"/>
</g>
<path d="M67.1616 33.6479H37.5127C34.8953 33.6479 32.7734 35.7698 32.7734 38.3872V54.9936C32.7734 57.611 34.8953 59.7329 37.5127 59.7329H67.1616C69.779 59.7329 71.9008 57.611 71.9008 54.9936V38.3872C71.9008 35.7698 69.779 33.6479 67.1616 33.6479Z" fill="url(#paint1_linear_4363_38787)"/>
<g filter="url(#filter1_df_4363_38787)">
<path d="M26.2939 62.7109H52.5842H78.8745C78.8745 64.4051 77.5011 65.7786 75.8069 65.7786H29.3616C27.6674 65.7786 26.2939 64.4051 26.2939 62.7109Z" fill="url(#paint2_linear_4363_38787)"/>
</g>
<g filter="url(#filter2_f_4363_38787)">
<path d="M53.1498 39.8721C49.6287 39.8721 46.3641 41.0652 43.6285 43.3218C43.3812 43.5266 43.3418 43.8996 43.5366 44.1549L44.3311 45.1944C44.5286 45.4526 44.8845 45.4857 45.1325 45.2799C47.423 43.3797 50.2761 42.2364 53.435 42.2364C56.4406 42.2364 59.1793 43.267 61.4061 45.0029C61.6531 45.1956 62.0029 45.149 62.1951 44.8977L62.7628 44.1549C62.958 43.8995 62.9181 43.5265 62.671 43.3218C59.9354 41.0652 56.6709 39.8721 53.1498 39.8721Z" fill="url(#paint3_linear_4363_38787)"/>
<path d="M53.1498 44.6128C50.6678 44.6128 48.3367 45.4551 46.4087 47.0492C46.1676 47.2487 46.1353 47.623 46.327 47.8739L47.1201 48.9113C47.3202 49.1731 47.6808 49.2015 47.932 48.9927C49.4432 47.7365 51.3534 46.9788 53.435 46.9788C55.3709 46.9788 57.1634 47.6287 58.6213 48.7293C58.8682 48.9158 59.213 48.8673 59.4031 48.6188L59.9724 47.8739C60.1674 47.6184 60.1276 47.2454 59.8804 47.0407C57.9545 45.4522 55.6273 44.6128 53.1498 44.6128Z" fill="url(#paint4_linear_4363_38787)"/>
<path d="M49.23 50.7772C48.9935 50.9744 48.9715 51.3454 49.1601 51.5922L49.9508 52.6274C50.1435 52.8797 50.5002 52.9333 50.7398 52.7289C51.4754 52.1018 52.4111 51.7213 53.435 51.7213C54.3194 51.7213 55.1336 52.0116 55.8136 52.4947C56.0507 52.663 56.3773 52.5899 56.5559 52.3562L57.1394 51.5922C57.3277 51.3455 57.3056 50.9741 57.0692 50.7771C54.8402 48.9202 51.459 48.9202 49.23 50.7772Z" fill="url(#paint5_linear_4363_38787)"/>
</g>
<g style="mix-blend-mode:overlay">
<path d="M33.9209 65.6808L37.2127 52.0908L48.9345 65.6808H33.9209Z" fill="url(#paint6_linear_4363_38787)"/>
</g>
<g filter="url(#filter3_f_4363_38787)">
<path d="M35.7485 39.6675H23.4432C22.246 39.6675 21.2754 40.7018 21.2754 41.9776V67.2621C21.2754 68.5379 22.246 69.5722 23.4432 69.5722H35.7485C36.9457 69.5722 37.9163 68.5379 37.9163 67.2621V41.9776C37.9163 40.7018 36.9457 39.6675 35.7485 39.6675Z" fill="url(#paint7_linear_4363_38787)"/>
</g>
<path d="M32.9604 41.0024H26.2306C24.3606 41.0024 22.8447 42.5184 22.8447 44.3883V64.8523C22.8447 66.7223 24.3606 68.2382 26.2306 68.2382H32.9604C34.8304 68.2382 36.3463 66.7223 36.3463 64.8523V44.3883C36.3463 42.5183 34.8304 41.0024 32.9604 41.0024Z" fill="url(#paint8_linear_4363_38787)"/>
<g filter="url(#filter4_d_4363_38787)">
<rect x="27.377" y="41.771" width="4.43743" height="1.08284" rx="0.541422" fill="url(#paint9_linear_4363_38787)"/>
</g>
<g filter="url(#filter5_d_4363_38787)">
<rect x="26.4785" y="66.7676" width="6.23483" height="0.648781" rx="0.32439" fill="url(#paint10_linear_4363_38787)"/>
</g>
<g filter="url(#filter6_f_4363_38787)">
<path d="M29.5149 47.957C27.4641 47.957 25.5626 48.652 23.9692 49.9663C23.8251 50.0857 23.8022 50.3029 23.9157 50.4516L24.3785 51.057C24.4935 51.2075 24.7008 51.2267 24.8452 51.1069C26.1793 50.0001 27.8412 49.3341 29.6811 49.3341C31.4317 49.3341 33.0269 49.9344 34.3239 50.9455C34.4678 51.0578 34.6715 51.0306 34.7835 50.8842L35.1141 50.4516C35.2279 50.3028 35.2046 50.0856 35.0607 49.9663C33.4673 48.652 31.5658 47.957 29.5149 47.957Z" fill="url(#paint11_linear_4363_38787)"/>
<path d="M29.5149 50.7183C28.0693 50.7183 26.7115 51.2089 25.5886 52.1374C25.4481 52.2536 25.4293 52.4716 25.541 52.6177L26.0029 53.222C26.1195 53.3745 26.3295 53.391 26.4758 53.2694C27.3561 52.5377 28.4686 52.0964 29.6811 52.0964C30.8087 52.0964 31.8527 52.475 32.7019 53.116C32.8457 53.2246 33.0466 53.1964 33.1572 53.0516L33.4888 52.6177C33.6025 52.4689 33.5793 52.2517 33.4353 52.1325C32.3135 51.2072 30.958 50.7183 29.5149 50.7183Z" fill="url(#paint12_linear_4363_38787)"/>
<path d="M27.2319 54.3088C27.0941 54.4237 27.0813 54.6397 27.1911 54.7835L27.6517 55.3865C27.7639 55.5334 27.9717 55.5646 28.1113 55.4456C28.5397 55.0803 29.0847 54.8587 29.6811 54.8587C30.1962 54.8587 30.6705 55.0278 31.0665 55.3092C31.2046 55.4072 31.3948 55.3646 31.4989 55.2285L31.8388 54.7835C31.9484 54.6398 31.9355 54.4235 31.7978 54.3087C30.4995 53.2272 28.5302 53.2272 27.2319 54.3088Z" fill="url(#paint13_linear_4363_38787)"/>
</g>
<defs>
<filter id="filter0_f_4363_38787" x="29.1927" y="30.0624" width="46.7835" height="33.6141" filterUnits="userSpaceOnUse" color-interpolation-filters="sRGB">
<feFlood flood-opacity="0" result="BackgroundImageFix"/>
<feBlend mode="normal" in="SourceGraphic" in2="BackgroundImageFix" result="shape"/>
<feGaussianBlur stdDeviation="0.118482" result="effect1_foregroundBlur_4363_38787"/>
</filter>
<filter id="filter1_df_4363_38787" x="2.59761" y="43.7539" width="99.9737" height="50.4605" filterUnits="userSpaceOnUse" color-interpolation-filters="sRGB">
<feFlood flood-opacity="0" result="BackgroundImageFix"/>
<feColorMatrix in="SourceAlpha" type="matrix" values="0 0 0 0 0 0 0 0 0 0 0 0 0 0 0 0 0 0 127 0" result="hardAlpha"/>
<feOffset dy="4.73927"/>
<feGaussianBlur stdDeviation="11.8482"/>
<feComposite in2="hardAlpha" operator="out"/>
<feColorMatrix type="matrix" values="0 0 0 0 0.752941 0 0 0 0 0.713726 0 0 0 0 0.94902 0 0 0 1 0"/>
<feBlend mode="normal" in2="BackgroundImageFix" result="effect1_dropShadow_4363_38787"/>
<feBlend mode="normal" in="SourceGraphic" in2="effect1_dropShadow_4363_38787" result="shape"/>
<feGaussianBlur stdDeviation="0.118482" result="effect2_foregroundBlur_4363_38787"/>
</filter>
<filter id="filter2_f_4363_38787" x="43.1342" y="39.5932" width="20.0313" height="13.5401" filterUnits="userSpaceOnUse" color-interpolation-filters="sRGB">
<feFlood flood-opacity="0" result="BackgroundImageFix"/>
<feBlend mode="normal" in="SourceGraphic" in2="BackgroundImageFix" result="shape"/>
<feGaussianBlur stdDeviation="0.139428" result="effect1_foregroundBlur_4363_38787"/>
</filter>
<filter id="filter3_f_4363_38787" x="21.0384" y="39.4305" width="17.1146" height="30.3787" filterUnits="userSpaceOnUse" color-interpolation-filters="sRGB">
<feFlood flood-opacity="0" result="BackgroundImageFix"/>
<feBlend mode="normal" in="SourceGraphic" in2="BackgroundImageFix" result="shape"/>
<feGaussianBlur stdDeviation="0.118482" result="effect1_foregroundBlur_4363_38787"/>
</filter>
<filter id="filter4_d_4363_38787" x="3.68061" y="22.8139" width="51.8302" height="48.4757" filterUnits="userSpaceOnUse" color-interpolation-filters="sRGB">
<feFlood flood-opacity="0" result="BackgroundImageFix"/>
<feColorMatrix in="SourceAlpha" type="matrix" values="0 0 0 0 0 0 0 0 0 0 0 0 0 0 0 0 0 0 127 0" result="hardAlpha"/>
<feOffset dy="4.73927"/>
<feGaussianBlur stdDeviation="11.8482"/>
<feComposite in2="hardAlpha" operator="out"/>
<feColorMatrix type="matrix" values="0 0 0 0 0.752941 0 0 0 0 0.713726 0 0 0 0 0.94902 0 0 0 1 0"/>
<feBlend mode="normal" in2="BackgroundImageFix" result="effect1_dropShadow_4363_38787"/>
<feBlend mode="normal" in="SourceGraphic" in2="effect1_dropShadow_4363_38787" result="shape"/>
</filter>
<filter id="filter5_d_4363_38787" x="2.78218" y="47.8105" width="53.6271" height="48.0416" filterUnits="userSpaceOnUse" color-interpolation-filters="sRGB">
<feFlood flood-opacity="0" result="BackgroundImageFix"/>
<feColorMatrix in="SourceAlpha" type="matrix" values="0 0 0 0 0 0 0 0 0 0 0 0 0 0 0 0 0 0 127 0" result="hardAlpha"/>
<feOffset dy="4.73927"/>
<feGaussianBlur stdDeviation="11.8482"/>
<feComposite in2="hardAlpha" operator="out"/>
<feColorMatrix type="matrix" values="0 0 0 0 0.752941 0 0 0 0 0.713726 0 0 0 0 0.94902 0 0 0 1 0"/>
<feBlend mode="normal" in2="BackgroundImageFix" result="effect1_dropShadow_4363_38787"/>
<feBlend mode="normal" in="SourceGraphic" in2="effect1_dropShadow_4363_38787" result="shape"/>
</filter>
<filter id="filter6_f_4363_38787" x="23.5649" y="47.6782" width="11.9005" height="8.11923" filterUnits="userSpaceOnUse" color-interpolation-filters="sRGB">
<feFlood flood-opacity="0" result="BackgroundImageFix"/>
<feBlend mode="normal" in="SourceGraphic" in2="BackgroundImageFix" result="shape"/>
<feGaussianBlur stdDeviation="0.139428" result="effect1_foregroundBlur_4363_38787"/>
</filter>
<linearGradient id="paint0_linear_4363_38787" x1="52.5843" y1="30.2993" x2="52.8342" y2="70.0287" gradientUnits="userSpaceOnUse">
<stop stop-color="#C0B6F2"/>
<stop offset="0.255208" stop-color="#8777D9"/>
<stop offset="0.661458" stop-color="#6554C0"/>
<stop offset="1" stop-color="#403294"/>
</linearGradient>
<linearGradient id="paint1_linear_4363_38787" x1="52.3371" y1="33.6479" x2="52.3371" y2="59.7329" gradientUnits="userSpaceOnUse">
<stop stop-color="#FCFDFD"/>
<stop offset="0.989583" stop-color="#F2F4F6"/>
</linearGradient>
<linearGradient id="paint2_linear_4363_38787" x1="52.5842" y1="62.7109" x2="52.5861" y2="66.3887" gradientUnits="userSpaceOnUse">
<stop stop-color="#C0B6F2"/>
<stop offset="0.255208" stop-color="#8777D9"/>
<stop offset="0.661458" stop-color="#6554C0"/>
<stop offset="1" stop-color="#403294"/>
</linearGradient>
<linearGradient id="paint3_linear_4363_38787" x1="53.2062" y1="39.9534" x2="53.487" y2="54.2183" gradientUnits="userSpaceOnUse">
<stop stop-color="#FFF0B3"/>
<stop offset="0.255208" stop-color="#FFC400"/>
<stop offset="0.539749" stop-color="#FFAB00"/>
<stop offset="1" stop-color="#FF8B00"/>
</linearGradient>
<linearGradient id="paint4_linear_4363_38787" x1="53.2062" y1="39.9534" x2="53.487" y2="54.2183" gradientUnits="userSpaceOnUse">
<stop stop-color="#FFF0B3"/>
<stop offset="0.255208" stop-color="#FFC400"/>
<stop offset="0.539749" stop-color="#FFAB00"/>
<stop offset="1" stop-color="#FF8B00"/>
</linearGradient>
<linearGradient id="paint5_linear_4363_38787" x1="53.2062" y1="39.9534" x2="53.487" y2="54.2183" gradientUnits="userSpaceOnUse">
<stop stop-color="#FFF0B3"/>
<stop offset="0.255208" stop-color="#FFC400"/>
<stop offset="0.539749" stop-color="#FFAB00"/>
<stop offset="1" stop-color="#FF8B00"/>
</linearGradient>
<linearGradient id="paint6_linear_4363_38787" x1="43.4072" y1="53.2839" x2="32.8865" y2="67.955" gradientUnits="userSpaceOnUse">
<stop/>
<stop offset="1" stop-opacity="0"/>
</linearGradient>
<linearGradient id="paint7_linear_4363_38787" x1="29.5958" y1="39.6675" x2="30.1619" y2="75.5108" gradientUnits="userSpaceOnUse">
<stop stop-color="#C0B6F2"/>
<stop offset="0.255208" stop-color="#8777D9"/>
<stop offset="0.661458" stop-color="#6554C0"/>
<stop offset="1" stop-color="#403294"/>
</linearGradient>
<linearGradient id="paint8_linear_4363_38787" x1="29.5955" y1="41.0024" x2="29.5955" y2="68.2382" gradientUnits="userSpaceOnUse">
<stop stop-color="#FCFDFD"/>
<stop offset="0.989583" stop-color="#F2F4F6"/>
</linearGradient>
<linearGradient id="paint9_linear_4363_38787" x1="29.5957" y1="41.771" x2="29.5985" y2="43.0692" gradientUnits="userSpaceOnUse">
<stop stop-color="#C0B6F2"/>
<stop offset="0.255208" stop-color="#8777D9"/>
<stop offset="0.661458" stop-color="#6554C0"/>
<stop offset="1" stop-color="#403294"/>
</linearGradient>
<linearGradient id="paint10_linear_4363_38787" x1="29.5959" y1="66.7676" x2="29.5966" y2="67.5454" gradientUnits="userSpaceOnUse">
<stop stop-color="#C0B6F2"/>
<stop offset="0.255208" stop-color="#8777D9"/>
<stop offset="0.661458" stop-color="#6554C0"/>
<stop offset="1" stop-color="#403294"/>
</linearGradient>
<linearGradient id="paint11_linear_4363_38787" x1="29.5478" y1="48.0044" x2="29.7114" y2="56.3131" gradientUnits="userSpaceOnUse">
<stop stop-color="#FFF0B3"/>
<stop offset="0.255208" stop-color="#FFC400"/>
<stop offset="0.539749" stop-color="#FFAB00"/>
<stop offset="1" stop-color="#FF8B00"/>
</linearGradient>
<linearGradient id="paint12_linear_4363_38787" x1="29.5478" y1="48.0044" x2="29.7114" y2="56.3131" gradientUnits="userSpaceOnUse">
<stop stop-color="#FFF0B3"/>
<stop offset="0.255208" stop-color="#FFC400"/>
<stop offset="0.539749" stop-color="#FFAB00"/>
<stop offset="1" stop-color="#FF8B00"/>
</linearGradient>
<linearGradient id="paint13_linear_4363_38787" x1="29.5478" y1="48.0044" x2="29.7114" y2="56.3131" gradientUnits="userSpaceOnUse">
<stop stop-color="#FFF0B3"/>
<stop offset="0.255208" stop-color="#FFC400"/>
<stop offset="0.539749" stop-color="#FFAB00"/>
<stop offset="1" stop-color="#FF8B00"/>
</linearGradient>
</defs>
</svg>
