<svg width="150" height="153" viewBox="0 0 150 153" fill="none" xmlns="http://www.w3.org/2000/svg">
<circle cx="75" cy="75.7139" r="75" fill="#E3FCEF"/>
<g filter="url(#filter0_f_326_91874)">
<path d="M67.5701 30.0287H34.0956V112.954H67.5701V30.0287Z" fill="url(#paint0_linear_326_91874)"/>
</g>
<g filter="url(#filter1_f_326_91874)">
<path d="M115.119 39.5392H85.4484V112.955H115.119V39.5392Z" fill="url(#paint1_linear_326_91874)"/>
</g>
<g filter="url(#filter2_df_326_91874)">
<path d="M114.548 87.2705H93.6268V112.947H114.548V87.2705Z" fill="url(#paint2_linear_326_91874)"/>
</g>
<g filter="url(#filter3_f_326_91874)">
<path d="M94.1979 73.7755H62.6254V112.956H94.1979V73.7755Z" fill="url(#paint3_linear_326_91874)"/>
</g>
<g filter="url(#filter4_f_326_91874)">
<path d="M50.4524 62.3638H22.6838V112.956H50.4524V62.3638Z" fill="url(#paint4_linear_326_91874)"/>
</g>
<path d="M68.426 31.5507H33.2398C31.9274 31.5507 30.8623 30.4856 30.8623 29.1732C30.8623 27.8609 31.9274 26.7958 33.2398 26.7958H68.426C69.7383 26.7958 70.8034 27.8609 70.8034 29.1732C70.8034 30.4856 69.7383 31.5507 68.426 31.5507Z" fill="url(#paint5_linear_326_91874)"/>
<path d="M96.0046 75.2975H60.8184C59.506 75.2975 58.4409 74.2324 58.4409 72.9201C58.4409 71.6077 59.506 70.5426 60.8184 70.5426H96.0046C97.317 70.5426 98.3821 71.6077 98.3821 72.9201C98.3821 74.2324 97.317 75.2975 96.0046 75.2975Z" fill="url(#paint6_linear_326_91874)"/>
<g filter="url(#filter5_d_326_91874)">
<path d="M47.0292 37.2581H39.4214V42.9639H47.0292V37.2581Z" fill="url(#paint7_linear_326_91874)"/>
</g>
<g filter="url(#filter6_d_326_91874)">
<path d="M62.2447 37.2581H54.6368V42.9639H62.2447V37.2581Z" fill="url(#paint8_linear_326_91874)"/>
</g>
<g filter="url(#filter7_d_326_91874)">
<path d="M47.0292 48.6686H39.4214V54.3745H47.0292V48.6686Z" fill="url(#paint9_linear_326_91874)"/>
</g>
<g filter="url(#filter8_d_326_91874)">
<path d="M62.2447 48.6686H54.6368V54.3745H62.2447V48.6686Z" fill="url(#paint10_linear_326_91874)"/>
</g>
<g filter="url(#filter9_d_326_91874)">
<path d="M62.2447 60.0802H54.6368V65.7861H62.2447V60.0802Z" fill="url(#paint11_linear_326_91874)"/>
</g>
<path fill-rule="evenodd" clip-rule="evenodd" d="M28.0094 67.6884H33.7153V75.2962H28.0094V67.6884ZM39.4214 67.6884H45.1273V75.2962H39.4214V67.6884ZM33.7153 81.0023H28.0094V88.6102H33.7153V81.0023ZM39.4214 81.0023H45.1273V88.6102H39.4214V81.0023ZM33.7153 94.3153H28.0094V101.923H33.7153V94.3153ZM39.4214 94.3138H45.1273V101.922H39.4214V94.3138Z" fill="url(#paint12_linear_326_91874)"/>
<g filter="url(#filter10_f_326_91874)">
<path fill-rule="evenodd" clip-rule="evenodd" d="M69.8527 79.1H75.5585V86.7078H69.8527V79.1ZM81.2646 79.1H86.9705V86.7078H81.2646V79.1ZM75.5585 90.5116H69.8527V98.1194H75.5585V90.5116ZM81.2646 90.5116H86.9705V98.1194H81.2646V90.5116Z" fill="url(#paint13_linear_326_91874)"/>
</g>
<g filter="url(#filter11_d_326_91874)">
<path fill-rule="evenodd" clip-rule="evenodd" d="M109.794 44.8636H104.088V52.4715H109.794V44.8636ZM96.4802 44.8651H90.7743V52.4729H96.4802V44.8651ZM90.7744 58.1786H96.4803V65.7864H90.7744V58.1786ZM109.794 58.1786H104.088V65.7864H109.794V58.1786ZM104.088 71.493H109.794V79.1009H104.088V71.493Z" fill="url(#paint14_linear_326_91874)"/>
</g>
<path d="M110.745 92.4142H98.3818V98.1201H110.745V92.4142Z" fill="url(#paint15_linear_326_91874)"/>
<path d="M110.745 101.925H98.3818V107.631H110.745V101.925Z" fill="url(#paint16_linear_326_91874)"/>
<g style="mix-blend-mode:overlay">
<path d="M76.4905 113.661L98.5284 83.486L108.022 113.661H76.4905Z" fill="url(#paint17_linear_326_91874)"/>
</g>
<g filter="url(#filter12_f_326_91874)">
<circle cx="114.493" cy="96.304" r="20.5879" fill="url(#paint18_linear_326_91874)"/>
</g>
<g filter="url(#filter13_d_326_91874)">
<path d="M114.922 110.563C114.055 110.563 113.188 110.274 112.514 109.696L110.339 107.824C110.119 107.631 109.568 107.439 109.279 107.439H106.912C104.876 107.439 103.224 105.787 103.224 103.75V101.397C103.224 101.108 103.032 100.571 102.839 100.351L100.981 98.1631C99.8526 96.8282 99.8526 94.7227 100.981 93.3878L102.839 91.1996C103.032 90.9795 103.224 90.4427 103.224 90.1537V87.7867C103.224 85.75 104.876 84.0985 106.912 84.0985H109.293C109.582 84.0985 110.133 83.8921 110.353 83.7132L112.527 81.8416C113.876 80.6856 115.981 80.6856 117.33 81.8416L119.505 83.7132C119.725 83.9059 120.275 84.0985 120.564 84.0985H122.904C124.94 84.0985 126.592 85.75 126.592 87.7867V90.1262C126.592 90.4152 126.798 90.9657 126.991 91.1859L128.863 93.3602C130.019 94.7089 130.019 96.8145 128.863 98.1631L126.991 100.337C126.798 100.558 126.592 101.108 126.592 101.397V103.737C126.592 105.773 124.94 107.425 122.904 107.425H120.564C120.275 107.425 119.725 107.631 119.505 107.81L117.33 109.682C116.656 110.274 115.789 110.563 114.922 110.563Z" fill="url(#paint19_linear_326_91874)"/>
</g>
<g filter="url(#filter14_f_326_91874)">
<path d="M113.256 100.131C112.981 100.131 112.72 100.02 112.527 99.8278L109.197 96.4974C108.798 96.0983 108.798 95.4377 109.197 95.0386C109.596 94.6396 110.256 94.6396 110.655 95.0386L113.256 97.6396L119.174 91.722C119.573 91.323 120.234 91.323 120.633 91.722C121.032 92.1211 121.032 92.7817 120.633 93.1808L113.986 99.8278C113.793 100.02 113.532 100.131 113.256 100.131Z" fill="url(#paint20_linear_326_91874)"/>
</g>
<defs>
<filter id="filter0_f_326_91874" x="33.7001" y="29.6333" width="34.2654" height="83.7163" filterUnits="userSpaceOnUse" color-interpolation-filters="sRGB">
<feFlood flood-opacity="0" result="BackgroundImageFix"/>
<feBlend mode="normal" in="SourceGraphic" in2="BackgroundImageFix" result="shape"/>
<feGaussianBlur stdDeviation="0.197717" result="effect1_foregroundBlur_326_91874"/>
</filter>
<filter id="filter1_f_326_91874" x="85.0529" y="39.1438" width="30.4614" height="74.2065" filterUnits="userSpaceOnUse" color-interpolation-filters="sRGB">
<feFlood flood-opacity="0" result="BackgroundImageFix"/>
<feBlend mode="normal" in="SourceGraphic" in2="BackgroundImageFix" result="shape"/>
<feGaussianBlur stdDeviation="0.197717" result="effect1_foregroundBlur_326_91874"/>
</filter>
<filter id="filter2_df_326_91874" x="61.9922" y="63.5445" width="84.1908" height="88.9457" filterUnits="userSpaceOnUse" color-interpolation-filters="sRGB">
<feFlood flood-opacity="0" result="BackgroundImageFix"/>
<feColorMatrix in="SourceAlpha" type="matrix" values="0 0 0 0 0 0 0 0 0 0 0 0 0 0 0 0 0 0 127 0" result="hardAlpha"/>
<feOffset dy="7.90866"/>
<feGaussianBlur stdDeviation="15.8173"/>
<feComposite in2="hardAlpha" operator="out"/>
<feColorMatrix type="matrix" values="0 0 0 0 0.588235 0 0 0 0 0.937255 0 0 0 0 0.776471 0 0 0 1 0"/>
<feBlend mode="normal" in2="BackgroundImageFix" result="effect1_dropShadow_326_91874"/>
<feBlend mode="normal" in="SourceGraphic" in2="effect1_dropShadow_326_91874" result="shape"/>
<feGaussianBlur stdDeviation="0.197717" result="effect2_foregroundBlur_326_91874"/>
</filter>
<filter id="filter3_f_326_91874" x="62.2299" y="73.3801" width="32.3634" height="39.9712" filterUnits="userSpaceOnUse" color-interpolation-filters="sRGB">
<feFlood flood-opacity="0" result="BackgroundImageFix"/>
<feBlend mode="normal" in="SourceGraphic" in2="BackgroundImageFix" result="shape"/>
<feGaussianBlur stdDeviation="0.197717" result="effect1_foregroundBlur_326_91874"/>
</filter>
<filter id="filter4_f_326_91874" x="22.2884" y="61.9683" width="28.5594" height="51.383" filterUnits="userSpaceOnUse" color-interpolation-filters="sRGB">
<feFlood flood-opacity="0" result="BackgroundImageFix"/>
<feBlend mode="normal" in="SourceGraphic" in2="BackgroundImageFix" result="shape"/>
<feGaussianBlur stdDeviation="0.197717" result="effect1_foregroundBlur_326_91874"/>
</filter>
<filter id="filter5_d_326_91874" x="36.2363" y="34.073" width="13.9779" height="12.076" filterUnits="userSpaceOnUse" color-interpolation-filters="sRGB">
<feFlood flood-opacity="0" result="BackgroundImageFix"/>
<feColorMatrix in="SourceAlpha" type="matrix" values="0 0 0 0 0 0 0 0 0 0 0 0 0 0 0 0 0 0 127 0" result="hardAlpha"/>
<feOffset/>
<feGaussianBlur stdDeviation="1.59252"/>
<feComposite in2="hardAlpha" operator="out"/>
<feColorMatrix type="matrix" values="0 0 0 0 0.027451 0 0 0 0 0.439216 0 0 0 0 0.298039 0 0 0 0.5 0"/>
<feBlend mode="normal" in2="BackgroundImageFix" result="effect1_dropShadow_326_91874"/>
<feBlend mode="normal" in="SourceGraphic" in2="effect1_dropShadow_326_91874" result="shape"/>
</filter>
<filter id="filter6_d_326_91874" x="51.4518" y="34.073" width="13.9779" height="12.076" filterUnits="userSpaceOnUse" color-interpolation-filters="sRGB">
<feFlood flood-opacity="0" result="BackgroundImageFix"/>
<feColorMatrix in="SourceAlpha" type="matrix" values="0 0 0 0 0 0 0 0 0 0 0 0 0 0 0 0 0 0 127 0" result="hardAlpha"/>
<feOffset/>
<feGaussianBlur stdDeviation="1.59252"/>
<feComposite in2="hardAlpha" operator="out"/>
<feColorMatrix type="matrix" values="0 0 0 0 0.027451 0 0 0 0 0.439216 0 0 0 0 0.298039 0 0 0 0.5 0"/>
<feBlend mode="normal" in2="BackgroundImageFix" result="effect1_dropShadow_326_91874"/>
<feBlend mode="normal" in="SourceGraphic" in2="effect1_dropShadow_326_91874" result="shape"/>
</filter>
<filter id="filter7_d_326_91874" x="36.2363" y="45.4835" width="13.9779" height="12.076" filterUnits="userSpaceOnUse" color-interpolation-filters="sRGB">
<feFlood flood-opacity="0" result="BackgroundImageFix"/>
<feColorMatrix in="SourceAlpha" type="matrix" values="0 0 0 0 0 0 0 0 0 0 0 0 0 0 0 0 0 0 127 0" result="hardAlpha"/>
<feOffset/>
<feGaussianBlur stdDeviation="1.59252"/>
<feComposite in2="hardAlpha" operator="out"/>
<feColorMatrix type="matrix" values="0 0 0 0 0.027451 0 0 0 0 0.439216 0 0 0 0 0.298039 0 0 0 0.5 0"/>
<feBlend mode="normal" in2="BackgroundImageFix" result="effect1_dropShadow_326_91874"/>
<feBlend mode="normal" in="SourceGraphic" in2="effect1_dropShadow_326_91874" result="shape"/>
</filter>
<filter id="filter8_d_326_91874" x="51.4518" y="45.4835" width="13.9779" height="12.076" filterUnits="userSpaceOnUse" color-interpolation-filters="sRGB">
<feFlood flood-opacity="0" result="BackgroundImageFix"/>
<feColorMatrix in="SourceAlpha" type="matrix" values="0 0 0 0 0 0 0 0 0 0 0 0 0 0 0 0 0 0 127 0" result="hardAlpha"/>
<feOffset/>
<feGaussianBlur stdDeviation="1.59252"/>
<feComposite in2="hardAlpha" operator="out"/>
<feColorMatrix type="matrix" values="0 0 0 0 0.027451 0 0 0 0 0.439216 0 0 0 0 0.298039 0 0 0 0.5 0"/>
<feBlend mode="normal" in2="BackgroundImageFix" result="effect1_dropShadow_326_91874"/>
<feBlend mode="normal" in="SourceGraphic" in2="effect1_dropShadow_326_91874" result="shape"/>
</filter>
<filter id="filter9_d_326_91874" x="51.4518" y="56.8952" width="13.9779" height="12.076" filterUnits="userSpaceOnUse" color-interpolation-filters="sRGB">
<feFlood flood-opacity="0" result="BackgroundImageFix"/>
<feColorMatrix in="SourceAlpha" type="matrix" values="0 0 0 0 0 0 0 0 0 0 0 0 0 0 0 0 0 0 127 0" result="hardAlpha"/>
<feOffset/>
<feGaussianBlur stdDeviation="1.59252"/>
<feComposite in2="hardAlpha" operator="out"/>
<feColorMatrix type="matrix" values="0 0 0 0 0.027451 0 0 0 0 0.439216 0 0 0 0 0.298039 0 0 0 0.5 0"/>
<feBlend mode="normal" in2="BackgroundImageFix" result="effect1_dropShadow_326_91874"/>
<feBlend mode="normal" in="SourceGraphic" in2="effect1_dropShadow_326_91874" result="shape"/>
</filter>
<filter id="filter10_f_326_91874" x="69.5738" y="78.8211" width="17.6756" height="19.5771" filterUnits="userSpaceOnUse" color-interpolation-filters="sRGB">
<feFlood flood-opacity="0" result="BackgroundImageFix"/>
<feBlend mode="normal" in="SourceGraphic" in2="BackgroundImageFix" result="shape"/>
<feGaussianBlur stdDeviation="0.139428" result="effect1_foregroundBlur_326_91874"/>
</filter>
<filter id="filter11_d_326_91874" x="87.5892" y="41.6786" width="25.3899" height="40.6073" filterUnits="userSpaceOnUse" color-interpolation-filters="sRGB">
<feFlood flood-opacity="0" result="BackgroundImageFix"/>
<feColorMatrix in="SourceAlpha" type="matrix" values="0 0 0 0 0 0 0 0 0 0 0 0 0 0 0 0 0 0 127 0" result="hardAlpha"/>
<feOffset/>
<feGaussianBlur stdDeviation="1.59252"/>
<feComposite in2="hardAlpha" operator="out"/>
<feColorMatrix type="matrix" values="0 0 0 0 0.027451 0 0 0 0 0.439216 0 0 0 0 0.298039 0 0 0 0.5 0"/>
<feBlend mode="normal" in2="BackgroundImageFix" result="effect1_dropShadow_326_91874"/>
<feBlend mode="normal" in="SourceGraphic" in2="effect1_dropShadow_326_91874" result="shape"/>
</filter>
<filter id="filter12_f_326_91874" x="93.6265" y="75.4372" width="41.7336" height="41.7336" filterUnits="userSpaceOnUse" color-interpolation-filters="sRGB">
<feFlood flood-opacity="0" result="BackgroundImageFix"/>
<feBlend mode="normal" in="SourceGraphic" in2="BackgroundImageFix" result="shape"/>
<feGaussianBlur stdDeviation="0.139428" result="effect1_foregroundBlur_326_91874"/>
</filter>
<filter id="filter13_d_326_91874" x="96.6339" y="77.4738" width="36.5964" height="36.5895" filterUnits="userSpaceOnUse" color-interpolation-filters="sRGB">
<feFlood flood-opacity="0" result="BackgroundImageFix"/>
<feColorMatrix in="SourceAlpha" type="matrix" values="0 0 0 0 0 0 0 0 0 0 0 0 0 0 0 0 0 0 127 0" result="hardAlpha"/>
<feOffset/>
<feGaussianBlur stdDeviation="1.75041"/>
<feComposite in2="hardAlpha" operator="out"/>
<feColorMatrix type="matrix" values="0 0 0 0 1 0 0 0 0 0.627451 0 0 0 0 0.180392 0 0 0 1 0"/>
<feBlend mode="normal" in2="BackgroundImageFix" result="effect1_dropShadow_326_91874"/>
<feBlend mode="normal" in="SourceGraphic" in2="effect1_dropShadow_326_91874" result="shape"/>
</filter>
<filter id="filter14_f_326_91874" x="108.618" y="91.1439" width="12.5924" height="9.26547" filterUnits="userSpaceOnUse" color-interpolation-filters="sRGB">
<feFlood flood-opacity="0" result="BackgroundImageFix"/>
<feBlend mode="normal" in="SourceGraphic" in2="BackgroundImageFix" result="shape"/>
<feGaussianBlur stdDeviation="0.139428" result="effect1_foregroundBlur_326_91874"/>
</filter>
<linearGradient id="paint0_linear_326_91874" x1="50.8328" y1="30.0287" x2="52.9961" y2="129.399" gradientUnits="userSpaceOnUse">
<stop stop-color="#ABF5D1"/>
<stop offset="0.255208" stop-color="#57D9A3"/>
<stop offset="0.661458" stop-color="#36B37E"/>
<stop offset="1" stop-color="#006644"/>
</linearGradient>
<linearGradient id="paint1_linear_326_91874" x1="100.284" y1="39.5392" x2="102.197" y2="127.514" gradientUnits="userSpaceOnUse">
<stop stop-color="#ABF5D1"/>
<stop offset="0.255208" stop-color="#57D9A3"/>
<stop offset="0.661458" stop-color="#36B37E"/>
<stop offset="1" stop-color="#006644"/>
</linearGradient>
<linearGradient id="paint2_linear_326_91874" x1="104.088" y1="87.2705" x2="104.42" y2="118.05" gradientUnits="userSpaceOnUse">
<stop stop-color="#ABF5D1"/>
<stop offset="0.255208" stop-color="#57D9A3"/>
<stop offset="0.661458" stop-color="#36B37E"/>
<stop offset="1" stop-color="#006644"/>
</linearGradient>
<linearGradient id="paint3_linear_326_91874" x1="78.4116" y1="73.7755" x2="78.9238" y2="120.743" gradientUnits="userSpaceOnUse">
<stop stop-color="#ABF5D1"/>
<stop offset="0.255208" stop-color="#57D9A3"/>
<stop offset="0.661458" stop-color="#36B37E"/>
<stop offset="1" stop-color="#006644"/>
</linearGradient>
<linearGradient id="paint4_linear_326_91874" x1="36.5681" y1="62.3638" x2="37.539" y2="123.002" gradientUnits="userSpaceOnUse">
<stop stop-color="#ABF5D1"/>
<stop offset="0.255208" stop-color="#57D9A3"/>
<stop offset="0.661458" stop-color="#36B37E"/>
<stop offset="1" stop-color="#006644"/>
</linearGradient>
<linearGradient id="paint5_linear_326_91874" x1="52.9611" y1="34.0847" x2="52.7939" y2="27.2293" gradientUnits="userSpaceOnUse">
<stop stop-color="#006644"/>
<stop offset="1" stop-color="#36B37E"/>
</linearGradient>
<linearGradient id="paint6_linear_326_91874" x1="80.5397" y1="77.8315" x2="80.3725" y2="70.9762" gradientUnits="userSpaceOnUse">
<stop stop-color="#006644"/>
<stop offset="1" stop-color="#36B37E"/>
</linearGradient>
<linearGradient id="paint7_linear_326_91874" x1="42.1794" y1="37.2581" x2="42.1794" y2="51.2963" gradientUnits="userSpaceOnUse">
<stop stop-color="#FCFDFD"/>
<stop offset="0.989583" stop-color="#F2F4F6"/>
</linearGradient>
<linearGradient id="paint8_linear_326_91874" x1="57.3949" y1="37.2581" x2="57.3949" y2="51.2963" gradientUnits="userSpaceOnUse">
<stop stop-color="#FCFDFD"/>
<stop offset="0.989583" stop-color="#F2F4F6"/>
</linearGradient>
<linearGradient id="paint9_linear_326_91874" x1="42.1794" y1="48.6686" x2="42.1794" y2="62.7068" gradientUnits="userSpaceOnUse">
<stop stop-color="#FCFDFD"/>
<stop offset="0.989583" stop-color="#F2F4F6"/>
</linearGradient>
<linearGradient id="paint10_linear_326_91874" x1="57.3949" y1="48.6686" x2="57.3949" y2="62.7068" gradientUnits="userSpaceOnUse">
<stop stop-color="#FCFDFD"/>
<stop offset="0.989583" stop-color="#F2F4F6"/>
</linearGradient>
<linearGradient id="paint11_linear_326_91874" x1="57.3949" y1="60.0802" x2="57.3949" y2="74.1185" gradientUnits="userSpaceOnUse">
<stop stop-color="#FCFDFD"/>
<stop offset="0.989583" stop-color="#F2F4F6"/>
</linearGradient>
<linearGradient id="paint12_linear_326_91874" x1="42.4819" y1="65.7026" x2="42.4819" y2="102.717" gradientUnits="userSpaceOnUse">
<stop stop-color="#FFF0B3"/>
<stop offset="0.255208" stop-color="#FFC400"/>
<stop offset="0.539749" stop-color="#FFAB00"/>
<stop offset="1" stop-color="#FF8B00"/>
</linearGradient>
<linearGradient id="paint13_linear_326_91874" x1="78.4612" y1="79.2192" x2="79.1462" y2="100.103" gradientUnits="userSpaceOnUse">
<stop stop-color="#FFF0B3"/>
<stop offset="0.255208" stop-color="#FFC400"/>
<stop offset="0.539749" stop-color="#FFAB00"/>
<stop offset="1" stop-color="#FF8B00"/>
</linearGradient>
<linearGradient id="paint14_linear_326_91874" x1="97.6694" y1="44.8636" x2="97.6694" y2="129.098" gradientUnits="userSpaceOnUse">
<stop stop-color="#FCFDFD"/>
<stop offset="0.989583" stop-color="#F2F4F6"/>
</linearGradient>
<linearGradient id="paint15_linear_326_91874" x1="105.222" y1="101.161" x2="104.45" y2="93.0025" gradientUnits="userSpaceOnUse">
<stop stop-color="#006644"/>
<stop offset="1" stop-color="#36B37E"/>
</linearGradient>
<linearGradient id="paint16_linear_326_91874" x1="105.222" y1="110.671" x2="104.45" y2="102.513" gradientUnits="userSpaceOnUse">
<stop stop-color="#006644"/>
<stop offset="1" stop-color="#36B37E"/>
</linearGradient>
<linearGradient id="paint17_linear_326_91874" x1="96.4134" y1="87.6252" x2="74.3181" y2="118.437" gradientUnits="userSpaceOnUse">
<stop/>
<stop offset="1" stop-opacity="0"/>
</linearGradient>
<linearGradient id="paint18_linear_326_91874" x1="114.613" y1="75.9741" x2="115.948" y2="121.196" gradientUnits="userSpaceOnUse">
<stop stop-color="#FFF0B3"/>
<stop offset="0.255208" stop-color="#FFC400"/>
<stop offset="0.539749" stop-color="#FFAB00"/>
<stop offset="1" stop-color="#FF8B00"/>
</linearGradient>
<linearGradient id="paint19_linear_326_91874" x1="110.864" y1="80.9746" x2="110.864" y2="153.77" gradientUnits="userSpaceOnUse">
<stop stop-color="#FCFDFD"/>
<stop offset="0.989583" stop-color="#F2F4F6"/>
</linearGradient>
<linearGradient id="paint20_linear_326_91874" x1="114.95" y1="91.4773" x2="115.154" y2="101.045" gradientUnits="userSpaceOnUse">
<stop stop-color="#FFF0B3"/>
<stop offset="0.255208" stop-color="#FFC400"/>
<stop offset="0.539749" stop-color="#FFAB00"/>
<stop offset="1" stop-color="#FF8B00"/>
</linearGradient>
</defs>
</svg>
