<svg width="53" height="52" viewBox="0 0 53 52" fill="none" xmlns="http://www.w3.org/2000/svg">
<rect x="0.75" width="52" height="52" rx="26" fill="#EA001E"/>
<path d="M23.7321 26.928C24.886 26.928 25.8214 27.8634 25.8214 29.0173V34.1244C25.8214 35.2783 24.886 36.2137 23.7321 36.2137H18.625C17.4711 36.2137 16.5357 35.2783 16.5357 34.1244V29.0173C16.5357 27.8634 17.4711 26.928 18.625 26.928H23.7321ZM34.875 26.928C36.0289 26.928 36.9643 27.8634 36.9643 29.0173V34.1244C36.9643 35.2783 36.0289 36.2137 34.875 36.2137H29.7679C28.614 36.2137 27.6786 35.2783 27.6786 34.1244V29.0173C27.6786 27.8634 28.614 26.928 29.7679 26.928H34.875ZM23.7321 15.7852C24.886 15.7852 25.8214 16.7206 25.8214 17.8744V22.9816C25.8214 24.1355 24.886 25.0709 23.7321 25.0709H18.625C17.4711 25.0709 16.5357 24.1355 16.5357 22.9816V17.8744C16.5357 16.7206 17.4711 15.7852 18.625 15.7852H23.7321ZM34.875 15.7852C36.0289 15.7852 36.9643 16.7206 36.9643 17.8744V22.9816C36.9643 24.1355 36.0289 25.0709 34.875 25.0709H29.7679C28.614 25.0709 27.6786 24.1355 27.6786 22.9816V17.8744C27.6786 16.7206 28.614 15.7852 29.7679 15.7852H34.875Z" fill="white"/>
</svg>
