<svg  viewBox="0 0 96 97" fill="none" xmlns="http://www.w3.org/2000/svg">
<circle cx="48" cy="48.002" r="48" fill="#FFFAE6"/>
<g filter="url(#filter0_f_401_39581)">
<path fill-rule="evenodd" clip-rule="evenodd" d="M28.7998 28.7417C28.7998 24.5335 32.2112 21.1221 36.4194 21.1221H56.8802C61.0884 21.1221 64.4998 24.5335 64.4998 28.7417V61.9904C64.4998 66.1986 61.0884 69.61 56.8802 69.61C55.7961 69.61 54.9172 70.4889 54.9172 71.573V72.6286C54.9172 73.9962 53.8086 75.1048 52.441 75.1048C51.0734 75.1048 49.9647 73.9962 49.9647 72.6286C49.9647 70.9615 48.6133 69.61 46.9462 69.61H46.3533C44.6862 69.61 43.3347 70.9615 43.3347 72.6286C43.3347 73.9962 42.2261 75.1048 40.8585 75.1048C39.4909 75.1048 38.3822 73.9962 38.3822 72.6286V71.5729C38.3822 70.4888 37.5034 69.61 36.4194 69.61C32.2112 69.61 28.7998 66.1986 28.7998 61.9904V28.7417Z" fill="url(#paint0_linear_401_39581)"/>
</g>
<g filter="url(#filter1_d_401_39581)">
<rect x="34.3613" y="26.9595" width="24.5772" height="36.8125" rx="3.04784" fill="url(#paint1_linear_401_39581)"/>
</g>
<g filter="url(#filter2_f_401_39581)">
<path fill-rule="evenodd" clip-rule="evenodd" d="M52.3645 33.6835C53.6031 33.6835 54.6072 32.6794 54.6072 31.4409C54.6072 30.2023 53.6031 29.1982 52.3645 29.1982C51.126 29.1982 50.1219 30.2023 50.1219 31.4409C50.1219 32.6794 51.126 33.6835 52.3645 33.6835ZM40.935 33.6838C42.1736 33.6838 43.1776 32.6798 43.1776 31.4412C43.1776 30.2026 42.1736 29.1986 40.935 29.1986C39.6964 29.1986 38.6924 30.2026 38.6924 31.4412C38.6924 32.6798 39.6964 33.6838 40.935 33.6838ZM54.6072 40.4781C54.6072 41.7166 53.6031 42.7207 52.3645 42.7207C51.126 42.7207 50.1219 41.7166 50.1219 40.4781C50.1219 39.2395 51.126 38.2354 52.3645 38.2354C53.6031 38.2354 54.6072 39.2395 54.6072 40.4781ZM40.935 42.7207C42.1736 42.7207 43.1776 41.7166 43.1776 40.4781C43.1776 39.2395 42.1736 38.2354 40.935 38.2354C39.6964 38.2354 38.6924 39.2395 38.6924 40.4781C38.6924 41.7166 39.6964 42.7207 40.935 42.7207ZM54.6072 49.5143C54.6072 50.7529 53.6031 51.7569 52.3645 51.7569C51.126 51.7569 50.1219 50.7529 50.1219 49.5143C50.1219 48.2757 51.126 47.2717 52.3645 47.2717C53.6031 47.2717 54.6072 48.2757 54.6072 49.5143ZM52.3645 60.7941C53.6031 60.7941 54.6072 59.7901 54.6072 58.5515C54.6072 57.3129 53.6031 56.3089 52.3645 56.3089C51.126 56.3089 50.1219 57.3129 50.1219 58.5515C50.1219 59.7901 51.126 60.7941 52.3645 60.7941ZM43.1776 49.5143C43.1776 50.7529 42.1736 51.7569 40.935 51.7569C39.6964 51.7569 38.6924 50.7529 38.6924 49.5143C38.6924 48.2757 39.6964 47.2717 40.935 47.2717C42.1736 47.2717 43.1776 48.2757 43.1776 49.5143ZM40.935 60.7941C42.1736 60.7941 43.1776 59.7901 43.1776 58.5515C43.1776 57.3129 42.1736 56.3089 40.935 56.3089C39.6964 56.3089 38.6924 57.3129 38.6924 58.5515C38.6924 59.7901 39.6964 60.7941 40.935 60.7941Z" fill="url(#paint2_linear_401_39581)"/>
</g>
<g style="mix-blend-mode:overlay" opacity="0.5">
<path d="M49.8838 70.9831L57.2925 60.6724L54.9303 71.2876V72.5844C54.9303 73.9585 53.8163 75.0725 52.4422 75.0725C51.1092 75.0725 50.0131 74.022 49.9564 72.6902L49.8838 70.9831Z" fill="url(#paint3_linear_401_39581)"/>
</g>
<g filter="url(#filter3_f_401_39581)">
<ellipse cx="64.5279" cy="68.4181" rx="10.4977" ry="10.4977" fill="url(#paint4_linear_401_39581)"/>
</g>
<g filter="url(#filter4_f_401_39581)">
<rect x="60.9346" y="65.1431" width="7.14806" height="6.66785" fill="url(#paint5_linear_401_39581)"/>
</g>
<g filter="url(#filter5_d_401_39581)">
<path fill-rule="evenodd" clip-rule="evenodd" d="M64.0686 63.9616C61.5878 64.1046 59.2462 65.4334 57.3795 67.7578C56.8921 68.3647 56.8924 68.4725 57.3842 69.0865C59.2472 71.4125 61.5967 72.7405 64.0893 72.8766C66.9105 73.0305 69.5761 71.6976 71.6761 69.0828C72.1635 68.4759 72.1631 68.3681 71.6713 67.7541C70.3105 66.0551 68.6914 64.8877 66.901 64.3147C66.3448 64.1367 65.671 64.0066 65.144 63.9755C64.5688 63.9415 64.4448 63.9399 64.0686 63.9616ZM65.1484 65.3277C65.9917 65.4864 66.802 66.06 67.2409 66.8089C67.7706 67.7127 67.8265 68.8059 67.3902 69.7296C67.22 70.0901 67.0573 70.3246 66.777 70.6134C65.2086 72.2297 62.5363 71.7356 61.6267 69.6609C61.2984 68.9123 61.2922 67.9977 61.6102 67.2173C61.9195 66.4581 62.5921 65.7933 63.3561 65.4917C63.9372 65.2624 64.5188 65.2092 65.1484 65.3277ZM64.2197 66.7467C63.7425 66.8499 63.3202 67.1475 63.0783 67.5511C62.9005 67.8477 62.8409 68.068 62.8429 68.4203C62.845 68.7603 62.8752 68.8974 63.0111 69.1824C63.136 69.4443 63.5007 69.8079 63.768 69.937C64.7096 70.3917 65.8048 69.9292 66.1437 68.9338C66.2407 68.649 66.2434 68.2026 66.1499 67.9056C65.9366 67.2278 65.3141 66.7555 64.6011 66.7305C64.4559 66.7254 64.2842 66.7327 64.2197 66.7467Z" fill="url(#paint6_linear_401_39581)"/>
</g>
<defs>
<filter id="filter0_f_401_39581" x="28.5458" y="20.8681" width="36.2082" height="54.4909" filterUnits="userSpaceOnUse" color-interpolation-filters="sRGB">
<feFlood flood-opacity="0" result="BackgroundImageFix"/>
<feBlend mode="normal" in="SourceGraphic" in2="BackgroundImageFix" result="shape"/>
<feGaussianBlur stdDeviation="0.126993" result="effect1_foregroundBlur_401_39581"/>
</filter>
<filter id="filter1_d_401_39581" x="28.7421" y="21.3403" width="35.8155" height="48.0509" filterUnits="userSpaceOnUse" color-interpolation-filters="sRGB">
<feFlood flood-opacity="0" result="BackgroundImageFix"/>
<feColorMatrix in="SourceAlpha" type="matrix" values="0 0 0 0 0 0 0 0 0 0 0 0 0 0 0 0 0 0 127 0" result="hardAlpha"/>
<feOffset/>
<feGaussianBlur stdDeviation="2.80959"/>
<feComposite in2="hardAlpha" operator="out"/>
<feColorMatrix type="matrix" values="0 0 0 0 1 0 0 0 0 0.545098 0 0 0 0 0 0 0 0 0.5 0"/>
<feBlend mode="normal" in2="BackgroundImageFix" result="effect1_dropShadow_401_39581"/>
<feBlend mode="normal" in="SourceGraphic" in2="effect1_dropShadow_401_39581" result="shape"/>
</filter>
<filter id="filter2_f_401_39581" x="38.4135" y="28.9194" width="16.4728" height="32.1534" filterUnits="userSpaceOnUse" color-interpolation-filters="sRGB">
<feFlood flood-opacity="0" result="BackgroundImageFix"/>
<feBlend mode="normal" in="SourceGraphic" in2="BackgroundImageFix" result="shape"/>
<feGaussianBlur stdDeviation="0.139428" result="effect1_foregroundBlur_401_39581"/>
</filter>
<filter id="filter3_f_401_39581" x="53.7763" y="57.6664" width="21.5031" height="21.5031" filterUnits="userSpaceOnUse" color-interpolation-filters="sRGB">
<feFlood flood-opacity="0" result="BackgroundImageFix"/>
<feBlend mode="normal" in="SourceGraphic" in2="BackgroundImageFix" result="shape"/>
<feGaussianBlur stdDeviation="0.126993" result="effect1_foregroundBlur_401_39581"/>
</filter>
<filter id="filter4_f_401_39581" x="60.6806" y="64.8891" width="7.65641" height="7.17594" filterUnits="userSpaceOnUse" color-interpolation-filters="sRGB">
<feFlood flood-opacity="0" result="BackgroundImageFix"/>
<feBlend mode="normal" in="SourceGraphic" in2="BackgroundImageFix" result="shape"/>
<feGaussianBlur stdDeviation="0.126993" result="effect1_foregroundBlur_401_39581"/>
</filter>
<filter id="filter5_d_401_39581" x="51.3955" y="58.3281" width="26.2647" height="20.1798" filterUnits="userSpaceOnUse" color-interpolation-filters="sRGB">
<feFlood flood-opacity="0" result="BackgroundImageFix"/>
<feColorMatrix in="SourceAlpha" type="matrix" values="0 0 0 0 0 0 0 0 0 0 0 0 0 0 0 0 0 0 127 0" result="hardAlpha"/>
<feOffset/>
<feGaussianBlur stdDeviation="2.80959"/>
<feComposite in2="hardAlpha" operator="out"/>
<feColorMatrix type="matrix" values="0 0 0 0 1 0 0 0 0 0.545098 0 0 0 0 0 0 0 0 0.5 0"/>
<feBlend mode="normal" in2="BackgroundImageFix" result="effect1_dropShadow_401_39581"/>
<feBlend mode="normal" in="SourceGraphic" in2="effect1_dropShadow_401_39581" result="shape"/>
</filter>
<linearGradient id="paint0_linear_401_39581" x1="46.6498" y1="21.1221" x2="47.5097" y2="85.8295" gradientUnits="userSpaceOnUse">
<stop stop-color="#FFF0B3"/>
<stop offset="0.255208" stop-color="#FFC400"/>
<stop offset="0.661458" stop-color="#FFAB00"/>
<stop offset="1" stop-color="#FF8B00"/>
</linearGradient>
<linearGradient id="paint1_linear_401_39581" x1="46.6499" y1="26.9595" x2="46.6499" y2="63.772" gradientUnits="userSpaceOnUse">
<stop stop-color="#FCFDFD"/>
<stop offset="0.989583" stop-color="#F2F4F6"/>
</linearGradient>
<linearGradient id="paint2_linear_401_39581" x1="46.6959" y1="29.3963" x2="48.7245" y2="64.0083" gradientUnits="userSpaceOnUse">
<stop stop-color="#FFF0B3"/>
<stop offset="0.255208" stop-color="#FFC400"/>
<stop offset="0.539749" stop-color="#FFAB00"/>
<stop offset="1" stop-color="#FF8B00"/>
</linearGradient>
<linearGradient id="paint3_linear_401_39581" x1="55.7011" y1="63.8012" x2="47.3725" y2="67.2082" gradientUnits="userSpaceOnUse">
<stop/>
<stop offset="0.932213" stop-opacity="0.0677871"/>
<stop offset="1" stop-opacity="0"/>
</linearGradient>
<linearGradient id="paint4_linear_401_39581" x1="79.6321" y1="68.6837" x2="48.5042" y2="68.6837" gradientUnits="userSpaceOnUse">
<stop stop-color="#FEDED8"/>
<stop offset="0.0001" stop-color="#93E380"/>
<stop offset="0.27234" stop-color="#66C95B"/>
<stop offset="0.646809" stop-color="#2FA52D"/>
<stop offset="1" stop-color="#167625"/>
</linearGradient>
<linearGradient id="paint5_linear_401_39581" x1="69.651" y1="68.5614" x2="59.0532" y2="68.5614" gradientUnits="userSpaceOnUse">
<stop stop-color="#FEDED8"/>
<stop offset="0.0001" stop-color="#93E380"/>
<stop offset="0.27234" stop-color="#66C95B"/>
<stop offset="0.646809" stop-color="#2FA52D"/>
<stop offset="1" stop-color="#167625"/>
</linearGradient>
<linearGradient id="paint6_linear_401_39581" x1="64.5278" y1="63.9473" x2="64.5278" y2="72.8886" gradientUnits="userSpaceOnUse">
<stop stop-color="#FCFDFD"/>
<stop offset="0.989583" stop-color="#F2F4F6"/>
</linearGradient>
</defs>
</svg>
