<svg width="150" height="150" viewBox="0 0 150 150" fill="none" xmlns="http://www.w3.org/2000/svg">
<circle cx="75" cy="75" r="75" fill="#E3EFFF"/>
<g filter="url(#filter0_f_326_92071)">
<path fill-rule="evenodd" clip-rule="evenodd" d="M117.883 97.4032C117.883 96.1389 116.856 95.1128 115.592 95.1128H108.352C107.087 95.1128 106.061 96.1389 106.061 97.4032V112.672C106.061 113.937 107.087 114.963 108.352 114.963H115.592C116.856 114.963 117.883 113.937 117.883 112.672V97.4032Z" fill="url(#paint0_linear_326_92071)"/>
</g>
<g filter="url(#filter1_f_326_92071)">
<path fill-rule="evenodd" clip-rule="evenodd" d="M36.9803 95.1128C35.716 95.1128 34.6899 96.1389 34.6899 97.4032V112.672C34.6899 113.937 35.716 114.963 36.9803 114.963H44.221C45.4852 114.963 46.5113 113.937 46.5113 112.672V97.4032C46.5113 96.1389 45.4852 95.1128 44.221 95.1128H36.9803Z" fill="url(#paint1_linear_326_92071)"/>
</g>
<g filter="url(#filter2_f_326_92071)">
<path fill-rule="evenodd" clip-rule="evenodd" d="M106.895 56.1828V56.1706C106.895 51.1593 102.833 47.0946 97.8188 47.0946H97.2111C94.1756 47.0946 94.9146 50.6493 94.9146 49.385V62.9684C94.9146 64.2327 95.9407 65.2588 97.205 65.2588H97.8188C102.833 65.2588 106.895 61.1942 106.895 56.1828Z" fill="url(#paint2_linear_326_92071)"/>
</g>
<g filter="url(#filter3_f_326_92071)">
<path fill-rule="evenodd" clip-rule="evenodd" d="M54.7536 65.2588L55.4865 65.2558C56.6959 65.1947 57.6578 64.193 57.6578 62.9684V49.385C57.6578 49.385 58.3968 47.0946 55.3613 47.0946H54.7536C49.7392 47.0946 45.6776 51.1593 45.6776 56.1706V56.1828C45.6776 61.1942 49.7392 65.2588 54.7536 65.2588Z" fill="url(#paint3_linear_326_92071)"/>
</g>
<g filter="url(#filter4_f_326_92071)">
<path fill-rule="evenodd" clip-rule="evenodd" d="M85.2523 69.9192C85.2523 68.6549 84.2262 67.6288 82.9619 67.6288H69.6106C68.3463 67.6288 67.3202 68.6549 67.3202 69.9192V79.0807C67.3202 80.345 68.3463 81.371 69.6106 81.371H82.9619C84.2262 81.371 85.2523 80.345 85.2523 79.0807V69.9192Z" fill="url(#paint4_linear_326_92071)"/>
</g>
<g filter="url(#filter5_f_326_92071)">
<path fill-rule="evenodd" clip-rule="evenodd" d="M72.4995 37.1765C73.5592 36.3916 74.8693 35.9274 76.2893 35.9274C77.7277 35.9274 79.0592 36.4069 80.1249 37.21C81.1358 37.9735 82.5711 37.772 83.3345 36.7611C84.0949 35.7534 83.8934 34.315 82.8826 33.5546C81.0472 32.1682 78.7629 31.3467 76.2893 31.3467C73.8493 31.3467 71.5956 32.1468 69.7724 33.4966C68.7555 34.2509 68.5417 35.6862 69.296 36.7001C70.0473 37.717 71.4826 37.9307 72.4995 37.1765Z" fill="url(#paint5_linear_326_92071)"/>
</g>
<g filter="url(#filter6_f_326_92071)">
<path fill-rule="evenodd" clip-rule="evenodd" d="M67.2805 32.4058C69.7816 30.5521 72.8782 29.4558 76.2252 29.4558C79.621 29.4558 82.7573 30.5826 85.2767 32.4821C86.2845 33.2456 87.7229 33.044 88.4833 32.0332C89.2437 31.0254 89.0452 29.5871 88.0344 28.8267C84.7484 26.3469 80.6563 24.875 76.2252 24.875C71.8551 24.875 67.818 26.3072 64.5534 28.7228C63.5365 29.4771 63.3258 30.9124 64.077 31.9294C64.8283 32.9432 66.2636 33.157 67.2805 32.4058Z" fill="url(#paint6_linear_326_92071)"/>
</g>
<g filter="url(#filter7_f_326_92071)">
<path fill-rule="evenodd" clip-rule="evenodd" d="M121.33 91.2959V91.2898C121.33 86.654 117.574 82.8978 112.938 82.8978C107.609 82.8978 100.717 82.8978 100.717 82.8978C99.4527 82.8978 98.4266 83.9239 98.4266 85.1882V97.4035C98.4266 98.6678 99.4527 99.6939 100.717 99.6939H112.932C117.571 99.6939 121.33 95.9346 121.33 91.2959Z" fill="url(#paint7_linear_326_92071)"/>
</g>
<g filter="url(#filter8_f_326_92071)">
<path fill-rule="evenodd" clip-rule="evenodd" d="M31.2422 91.2898V91.2959C31.2422 95.9346 35.0015 99.6939 39.6402 99.6939H51.8556C53.1199 99.6939 54.146 98.6678 54.146 97.4035V85.1882C54.146 83.9239 53.1199 82.8978 51.8556 82.8978C51.8556 82.8978 44.9631 82.8978 39.6341 82.8978C34.9984 82.8978 31.2422 86.654 31.2422 91.2898Z" fill="url(#paint8_linear_326_92071)"/>
</g>
<g filter="url(#filter9_f_326_92071)">
<path fill-rule="evenodd" clip-rule="evenodd" d="M99.4954 54.6498C99.4954 46.6396 92.9999 40.144 84.9897 40.144H67.5828C59.5726 40.144 53.0771 46.6396 53.0771 54.6498V57.7036C53.0771 65.7138 59.5726 72.2093 67.5828 72.2093H84.9897C92.9999 72.2093 99.4954 65.7138 99.4954 57.7036V54.6498Z" fill="url(#paint9_linear_326_92071)"/>
</g>
<g filter="url(#filter10_d_326_92071)">
<path d="M67.3232 63.0487C71.118 63.0487 74.1943 59.9723 74.1943 56.1775C74.1943 52.3827 71.118 49.3064 67.3232 49.3064C63.5284 49.3064 60.4521 52.3827 60.4521 56.1775C60.4521 59.9723 63.5284 63.0487 67.3232 63.0487Z" fill="url(#paint10_linear_326_92071)"/>
</g>
<g filter="url(#filter11_d_326_92071)">
<path d="M85.2492 63.0487C89.0441 63.0487 92.1204 59.9723 92.1204 56.1775C92.1204 52.3827 89.0441 49.3064 85.2492 49.3064C81.4544 49.3064 78.3781 52.3827 78.3781 56.1775C78.3781 59.9723 81.4544 63.0487 85.2492 63.0487Z" fill="url(#paint11_linear_326_92071)"/>
</g>
<g filter="url(#filter12_f_326_92071)">
<path fill-rule="evenodd" clip-rule="evenodd" d="M103.007 85.1885C103.007 82.9622 102.122 80.8245 100.549 79.2487C98.9732 77.676 96.8355 76.7904 94.6093 76.7904H57.9632C55.737 76.7904 53.5993 77.676 52.0235 79.2487C50.4508 80.8245 49.5652 82.9622 49.5652 85.1885C49.5652 91.2534 49.5652 100.5 49.5652 106.565C49.5652 108.792 50.4508 110.929 52.0235 112.505C53.5993 114.078 55.737 114.963 57.9632 114.963H94.6093C96.8355 114.963 98.9732 114.078 100.549 112.505C102.122 110.929 103.007 108.792 103.007 106.565V85.1885Z" fill="url(#paint12_linear_326_92071)"/>
</g>
<defs>
<filter id="filter0_f_326_92071" x="105.838" y="94.8895" width="12.268" height="20.2966" filterUnits="userSpaceOnUse" color-interpolation-filters="sRGB">
<feFlood flood-opacity="0" result="BackgroundImageFix"/>
<feBlend mode="normal" in="SourceGraphic" in2="BackgroundImageFix" result="shape"/>
<feGaussianBlur stdDeviation="0.111649" result="effect1_foregroundBlur_326_92071"/>
</filter>
<filter id="filter1_f_326_92071" x="34.4666" y="94.8895" width="12.268" height="20.2966" filterUnits="userSpaceOnUse" color-interpolation-filters="sRGB">
<feFlood flood-opacity="0" result="BackgroundImageFix"/>
<feBlend mode="normal" in="SourceGraphic" in2="BackgroundImageFix" result="shape"/>
<feGaussianBlur stdDeviation="0.111649" result="effect1_foregroundBlur_326_92071"/>
</filter>
<filter id="filter2_f_326_92071" x="94.6121" y="46.8713" width="12.506" height="18.6108" filterUnits="userSpaceOnUse" color-interpolation-filters="sRGB">
<feFlood flood-opacity="0" result="BackgroundImageFix"/>
<feBlend mode="normal" in="SourceGraphic" in2="BackgroundImageFix" result="shape"/>
<feGaussianBlur stdDeviation="0.111649" result="effect1_foregroundBlur_326_92071"/>
</filter>
<filter id="filter3_f_326_92071" x="45.4543" y="46.8713" width="12.506" height="18.6108" filterUnits="userSpaceOnUse" color-interpolation-filters="sRGB">
<feFlood flood-opacity="0" result="BackgroundImageFix"/>
<feBlend mode="normal" in="SourceGraphic" in2="BackgroundImageFix" result="shape"/>
<feGaussianBlur stdDeviation="0.111649" result="effect1_foregroundBlur_326_92071"/>
</filter>
<filter id="filter4_f_326_92071" x="67.0969" y="67.4055" width="18.3787" height="14.1889" filterUnits="userSpaceOnUse" color-interpolation-filters="sRGB">
<feFlood flood-opacity="0" result="BackgroundImageFix"/>
<feBlend mode="normal" in="SourceGraphic" in2="BackgroundImageFix" result="shape"/>
<feGaussianBlur stdDeviation="0.111649" result="effect1_foregroundBlur_326_92071"/>
</filter>
<filter id="filter5_f_326_92071" x="68.5544" y="31.0561" width="15.5315" height="6.90774" filterUnits="userSpaceOnUse" color-interpolation-filters="sRGB">
<feFlood flood-opacity="0" result="BackgroundImageFix"/>
<feBlend mode="normal" in="SourceGraphic" in2="BackgroundImageFix" result="shape"/>
<feGaussianBlur stdDeviation="0.1453" result="effect1_foregroundBlur_326_92071"/>
</filter>
<filter id="filter6_f_326_92071" x="63.3367" y="24.5844" width="25.899" height="8.65139" filterUnits="userSpaceOnUse" color-interpolation-filters="sRGB">
<feFlood flood-opacity="0" result="BackgroundImageFix"/>
<feBlend mode="normal" in="SourceGraphic" in2="BackgroundImageFix" result="shape"/>
<feGaussianBlur stdDeviation="0.1453" result="effect1_foregroundBlur_326_92071"/>
</filter>
<filter id="filter7_f_326_92071" x="98.136" y="82.6072" width="23.4849" height="17.3773" filterUnits="userSpaceOnUse" color-interpolation-filters="sRGB">
<feFlood flood-opacity="0" result="BackgroundImageFix"/>
<feBlend mode="normal" in="SourceGraphic" in2="BackgroundImageFix" result="shape"/>
<feGaussianBlur stdDeviation="0.1453" result="effect1_foregroundBlur_326_92071"/>
</filter>
<filter id="filter8_f_326_92071" x="30.9516" y="82.6072" width="23.4849" height="17.3773" filterUnits="userSpaceOnUse" color-interpolation-filters="sRGB">
<feFlood flood-opacity="0" result="BackgroundImageFix"/>
<feBlend mode="normal" in="SourceGraphic" in2="BackgroundImageFix" result="shape"/>
<feGaussianBlur stdDeviation="0.1453" result="effect1_foregroundBlur_326_92071"/>
</filter>
<filter id="filter9_f_326_92071" x="52.8538" y="39.9207" width="46.8649" height="32.5119" filterUnits="userSpaceOnUse" color-interpolation-filters="sRGB">
<feFlood flood-opacity="0" result="BackgroundImageFix"/>
<feBlend mode="normal" in="SourceGraphic" in2="BackgroundImageFix" result="shape"/>
<feGaussianBlur stdDeviation="0.111649" result="effect1_foregroundBlur_326_92071"/>
</filter>
<filter id="filter10_d_326_92071" x="55.3535" y="44.2078" width="23.9394" height="23.9394" filterUnits="userSpaceOnUse" color-interpolation-filters="sRGB">
<feFlood flood-opacity="0" result="BackgroundImageFix"/>
<feColorMatrix in="SourceAlpha" type="matrix" values="0 0 0 0 0 0 0 0 0 0 0 0 0 0 0 0 0 0 127 0" result="hardAlpha"/>
<feOffset/>
<feGaussianBlur stdDeviation="2.54928"/>
<feComposite in2="hardAlpha" operator="out"/>
<feColorMatrix type="matrix" values="0 0 0 0 0.278431 0 0 0 0 0.219608 0 0 0 0 0.611765 0 0 0 0.5 0"/>
<feBlend mode="normal" in2="BackgroundImageFix" result="effect1_dropShadow_326_92071"/>
<feBlend mode="normal" in="SourceGraphic" in2="effect1_dropShadow_326_92071" result="shape"/>
</filter>
<filter id="filter11_d_326_92071" x="73.2796" y="44.2078" width="23.9394" height="23.9394" filterUnits="userSpaceOnUse" color-interpolation-filters="sRGB">
<feFlood flood-opacity="0" result="BackgroundImageFix"/>
<feColorMatrix in="SourceAlpha" type="matrix" values="0 0 0 0 0 0 0 0 0 0 0 0 0 0 0 0 0 0 127 0" result="hardAlpha"/>
<feOffset/>
<feGaussianBlur stdDeviation="2.54928"/>
<feComposite in2="hardAlpha" operator="out"/>
<feColorMatrix type="matrix" values="0 0 0 0 0.278431 0 0 0 0 0.219608 0 0 0 0 0.611765 0 0 0 0.5 0"/>
<feBlend mode="normal" in2="BackgroundImageFix" result="effect1_dropShadow_326_92071"/>
<feBlend mode="normal" in="SourceGraphic" in2="effect1_dropShadow_326_92071" result="shape"/>
</filter>
<filter id="filter12_f_326_92071" x="49.3419" y="76.5671" width="53.8887" height="38.6196" filterUnits="userSpaceOnUse" color-interpolation-filters="sRGB">
<feFlood flood-opacity="0" result="BackgroundImageFix"/>
<feBlend mode="normal" in="SourceGraphic" in2="BackgroundImageFix" result="shape"/>
<feGaussianBlur stdDeviation="0.111649" result="effect1_foregroundBlur_326_92071"/>
</filter>
<linearGradient id="paint0_linear_326_92071" x1="111.972" y1="95.1128" x2="111.882" y2="121.177" gradientUnits="userSpaceOnUse">
<stop stop-color="#B3D4FF"/>
<stop offset="0.503525" stop-color="#2684FF"/>
<stop offset="0.812161" stop-color="#0065FF"/>
<stop offset="1" stop-color="#0747A6"/>
</linearGradient>
<linearGradient id="paint1_linear_326_92071" x1="40.6006" y1="95.1128" x2="40.5106" y2="121.177" gradientUnits="userSpaceOnUse">
<stop stop-color="#B3D4FF"/>
<stop offset="0.503525" stop-color="#2684FF"/>
<stop offset="0.812161" stop-color="#0065FF"/>
<stop offset="1" stop-color="#0747A6"/>
</linearGradient>
<linearGradient id="paint2_linear_326_92071" x1="100.865" y1="47.0946" x2="100.791" y2="70.9451" gradientUnits="userSpaceOnUse">
<stop stop-color="#B3D4FF"/>
<stop offset="0.503525" stop-color="#2684FF"/>
<stop offset="0.812161" stop-color="#0065FF"/>
<stop offset="1" stop-color="#0747A6"/>
</linearGradient>
<linearGradient id="paint3_linear_326_92071" x1="51.7073" y1="47.0946" x2="51.6334" y2="70.9451" gradientUnits="userSpaceOnUse">
<stop stop-color="#B3D4FF"/>
<stop offset="0.503525" stop-color="#2684FF"/>
<stop offset="0.812161" stop-color="#0065FF"/>
<stop offset="1" stop-color="#0747A6"/>
</linearGradient>
<linearGradient id="paint4_linear_326_92071" x1="76.2863" y1="67.6288" x2="76.2578" y2="85.6732" gradientUnits="userSpaceOnUse">
<stop stop-color="#B3D4FF"/>
<stop offset="0.503525" stop-color="#2684FF"/>
<stop offset="0.812161" stop-color="#0065FF"/>
<stop offset="1" stop-color="#0747A6"/>
</linearGradient>
<linearGradient id="paint5_linear_326_92071" x1="76.1748" y1="31.3687" x2="72.8114" y2="41.8181" gradientUnits="userSpaceOnUse">
<stop stop-color="#FE8F7D"/>
<stop offset="0.499013" stop-color="#EA001E"/>
<stop offset="1" stop-color="#BA0517"/>
</linearGradient>
<linearGradient id="paint6_linear_326_92071" x1="76.0402" y1="24.9031" x2="72.6715" y2="38.7969" gradientUnits="userSpaceOnUse">
<stop stop-color="#FE8F7D"/>
<stop offset="0.499013" stop-color="#EA001E"/>
<stop offset="1" stop-color="#BA0517"/>
</linearGradient>
<linearGradient id="paint7_linear_326_92071" x1="109.656" y1="82.9564" x2="96.6308" y2="106.307" gradientUnits="userSpaceOnUse">
<stop stop-color="#FE8F7D"/>
<stop offset="0.499013" stop-color="#EA001E"/>
<stop offset="1" stop-color="#BA0517"/>
</linearGradient>
<linearGradient id="paint8_linear_326_92071" x1="42.4715" y1="82.9564" x2="29.4464" y2="106.307" gradientUnits="userSpaceOnUse">
<stop stop-color="#FE8F7D"/>
<stop offset="0.499013" stop-color="#EA001E"/>
<stop offset="1" stop-color="#BA0517"/>
</linearGradient>
<linearGradient id="paint9_linear_326_92071" x1="76.2862" y1="40.144" x2="76.2264" y2="82.2476" gradientUnits="userSpaceOnUse">
<stop stop-color="#B3D4FF"/>
<stop offset="0.503525" stop-color="#2684FF"/>
<stop offset="0.812161" stop-color="#0065FF"/>
<stop offset="1" stop-color="#0747A6"/>
</linearGradient>
<linearGradient id="paint10_linear_326_92071" x1="65.434" y1="49.3064" x2="65.434" y2="62.9428" gradientUnits="userSpaceOnUse">
<stop stop-color="#FCFDFD"/>
<stop offset="0.989583" stop-color="#F2F4F6"/>
</linearGradient>
<linearGradient id="paint11_linear_326_92071" x1="83.36" y1="49.3064" x2="83.36" y2="62.9428" gradientUnits="userSpaceOnUse">
<stop stop-color="#FCFDFD"/>
<stop offset="0.989583" stop-color="#F2F4F6"/>
</linearGradient>
<linearGradient id="paint12_linear_326_92071" x1="76.2862" y1="76.7904" x2="76.2126" y2="126.914" gradientUnits="userSpaceOnUse">
<stop stop-color="#B3D4FF"/>
<stop offset="0.503525" stop-color="#2684FF"/>
<stop offset="0.812161" stop-color="#0065FF"/>
<stop offset="1" stop-color="#0747A6"/>
</linearGradient>
</defs>
</svg>
