<svg width="150" height="150" viewBox="0 0 150 150" fill="none" xmlns="http://www.w3.org/2000/svg">
<path d="M150 75C150 116.421 116.421 150 75 150C33.5786 150 0 116.421 0 75C0 33.5786 33.5786 0 75 0C116.421 0 150 33.5786 150 75Z" fill="#E3EFFF"/>
<g filter="url(#filter0_f_3937_218919)">
<path fill-rule="evenodd" clip-rule="evenodd" d="M55.4383 36.4544C49.6808 36.7871 45.6987 37.2082 44.4069 37.6208C41.8078 38.4509 39.4288 40.7894 38.5318 43.3958C38.2179 44.3074 37.7596 47.7467 37.486 51.2409C37.2318 54.4884 37.235 63.4479 37.4907 64.5895C38.1145 67.3736 40.2165 69.568 43.0355 70.378C44.2711 70.7331 47.6839 70.8964 53.9142 70.8986C60.0021 70.9008 63.8471 70.7271 65.3647 70.3816C68.1635 69.7444 70.6129 67.2895 71.2527 64.4807C71.5938 62.9829 71.7673 59.114 71.7652 53.0546C71.763 46.8267 71.5996 43.4153 71.2444 42.1801C70.4422 39.3904 68.2267 37.2515 65.5262 36.6596C64.7577 36.4911 57.3948 36.3414 55.4383 36.4544ZM84.4692 36.5071C82.2271 36.7127 80.6807 37.4424 79.3097 38.9418C77.8674 40.5194 77.3559 41.9849 77.1442 45.1459C76.9515 48.0245 76.9542 58.1583 77.1484 61.1787C77.4036 65.1456 77.8681 66.446 79.6632 68.2201C80.8321 69.3753 82.0319 70.0698 83.3956 70.3803C84.9189 70.727 88.7629 70.8996 94.9201 70.8977C101.219 70.8955 104.485 70.7388 105.734 70.3787C108.553 69.5657 110.646 67.3771 111.271 64.5884C111.527 63.4468 111.53 54.4873 111.276 51.2398C111.002 47.7457 110.544 44.3064 110.23 43.3947C109.384 40.9376 107.258 38.7114 104.897 37.8104C102.986 37.0813 97.0407 36.5221 90.3478 36.4421C87.8331 36.4121 85.1877 36.4414 84.4692 36.5071ZM83.6869 76.575C84.1977 76.4809 85.4321 76.3504 86.43 76.2853C89.0775 76.1123 100.222 76.1055 102.759 76.2753C103.957 76.3554 105.296 76.5234 105.735 76.6487C108.427 77.4171 110.494 79.4717 111.209 82.0892C111.428 82.892 111.462 83.7215 111.462 88.2404C111.461 93.5517 111.318 96.2452 110.812 100.432C110.392 103.918 109.811 105.294 107.994 107.114C105.772 109.341 104.184 109.8 96.6631 110.392C93.4225 110.647 84.4536 110.645 83.3093 110.389C80.4851 109.756 78.2215 107.555 77.4999 104.74C77.1558 103.397 76.9997 100.084 76.9974 94.0748C76.9951 88.0215 77.1746 84.0082 77.5143 82.5242C78.164 79.6854 80.8478 77.0988 83.6869 76.575ZM43.0638 76.6359C43.5151 76.5047 44.6547 76.3454 45.5964 76.2817C48.1921 76.1063 59.3282 76.104 62.0414 76.2784C63.3586 76.3631 64.8535 76.5273 65.3634 76.6434C68.1618 77.2805 70.6091 79.7329 71.2523 82.5444C71.5872 84.0078 71.7666 88.0491 71.7642 94.0737C71.7619 100.115 71.6059 103.396 71.2556 104.762C70.5453 107.534 68.2417 109.766 65.4524 110.386C64.305 110.641 55.3206 110.646 52.0986 110.393C48.598 110.118 45.1615 109.66 44.2504 109.347C42.937 108.895 41.862 108.205 40.7674 107.111C39.6727 106.017 38.9824 104.942 38.5305 103.629C38.217 102.718 37.7589 99.2834 37.4843 95.7842C37.2314 92.5634 37.2359 83.5825 37.4909 82.4356C38.1115 79.6447 40.2041 77.4668 43.0638 76.6359Z" fill="url(#paint0_linear_3937_218919)"/>
</g>
<g style="mix-blend-mode:overlay">
<path d="M83.5079 110.481L99.1356 90.095L112.277 110.481H83.5079Z" fill="url(#paint1_linear_3937_218919)"/>
</g>
<g filter="url(#filter1_f_3937_218919)">
<path d="M127.519 101.428C127.519 110.535 120.136 117.918 111.029 117.918C101.921 117.918 94.5386 110.535 94.5386 101.428C94.5386 92.3206 101.921 84.9378 111.029 84.9378C120.136 84.9378 127.519 92.3206 127.519 101.428Z" fill="url(#paint2_linear_3937_218919)"/>
</g>
<g filter="url(#filter2_d_3937_218919)">
<path d="M106.609 101.923C107.622 101.161 108.563 100.805 110.188 100.569C111.36 100.462 113.041 100.594 113.439 100.667C115.683 101.082 117.712 102.938 118.436 105.236C118.718 106.131 118.746 106.53 118.728 109.465L118.712 112.148L118.568 112.455C118.375 112.866 118.085 113.176 117.763 113.315C117.188 113.562 117.013 113.569 111.09 113.569H105.489L105.134 113.399C104.701 113.193 104.368 112.869 104.167 112.459L104.016 112.15L103.967 110.209C103.897 107.429 103.994 106.164 104.369 105.003C104.769 103.762 105.499 102.758 106.609 101.923Z" fill="url(#paint3_linear_3937_218919)"/>
</g>
<path d="M110.583 102.077L110.284 100.557L111.46 100.392L112.646 100.567L112.289 102.038L113.103 110.721L111.242 112.465L109.576 110.759L110.583 102.077Z" fill="url(#paint4_linear_3937_218919)"/>
<g filter="url(#filter3_d_3937_218919)">
<path d="M116.715 94.0277C116.715 96.9966 114.308 99.4034 111.339 99.4034C108.37 99.4034 105.963 96.9966 105.963 94.0277C105.963 91.0587 108.37 88.6519 111.339 88.6519C114.308 88.6519 116.715 91.0587 116.715 94.0277Z" fill="url(#paint5_linear_3937_218919)"/>
</g>
<defs>
<filter id="filter0_f_3937_218919" x="37.0738" y="36.1917" width="74.614" height="74.6138" filterUnits="userSpaceOnUse" color-interpolation-filters="sRGB">
<feFlood flood-opacity="0" result="BackgroundImageFix"/>
<feBlend mode="normal" in="SourceGraphic" in2="BackgroundImageFix" result="shape"/>
<feGaussianBlur stdDeviation="0.111649" result="effect1_foregroundBlur_3937_218919"/>
</filter>
<filter id="filter1_f_3937_218919" x="94.248" y="84.6472" width="33.5612" height="33.5612" filterUnits="userSpaceOnUse" color-interpolation-filters="sRGB">
<feFlood flood-opacity="0" result="BackgroundImageFix"/>
<feBlend mode="normal" in="SourceGraphic" in2="BackgroundImageFix" result="shape"/>
<feGaussianBlur stdDeviation="0.1453" result="effect1_foregroundBlur_3937_218919"/>
</filter>
<filter id="filter2_d_3937_218919" x="99.8237" y="96.4063" width="23.031" height="21.2846" filterUnits="userSpaceOnUse" color-interpolation-filters="sRGB">
<feFlood flood-opacity="0" result="BackgroundImageFix"/>
<feColorMatrix in="SourceAlpha" type="matrix" values="0 0 0 0 0 0 0 0 0 0 0 0 0 0 0 0 0 0 127 0" result="hardAlpha"/>
<feOffset/>
<feGaussianBlur stdDeviation="2.06117"/>
<feComposite in2="hardAlpha" operator="out"/>
<feColorMatrix type="matrix" values="0 0 0 0 0.862745 0 0 0 0 0.0117647 0 0 0 0 0.145098 0 0 0 1 0"/>
<feBlend mode="normal" in2="BackgroundImageFix" result="effect1_dropShadow_3937_218919"/>
<feBlend mode="normal" in="SourceGraphic" in2="effect1_dropShadow_3937_218919" result="shape"/>
</filter>
<filter id="filter3_d_3937_218919" x="101.841" y="84.5296" width="18.9961" height="18.9962" filterUnits="userSpaceOnUse" color-interpolation-filters="sRGB">
<feFlood flood-opacity="0" result="BackgroundImageFix"/>
<feColorMatrix in="SourceAlpha" type="matrix" values="0 0 0 0 0 0 0 0 0 0 0 0 0 0 0 0 0 0 127 0" result="hardAlpha"/>
<feOffset/>
<feGaussianBlur stdDeviation="2.06117"/>
<feComposite in2="hardAlpha" operator="out"/>
<feColorMatrix type="matrix" values="0 0 0 0 0.862745 0 0 0 0 0.0117647 0 0 0 0 0.145098 0 0 0 1 0"/>
<feBlend mode="normal" in2="BackgroundImageFix" result="effect1_dropShadow_3937_218919"/>
<feBlend mode="normal" in="SourceGraphic" in2="effect1_dropShadow_3937_218919" result="shape"/>
</filter>
<linearGradient id="paint0_linear_3937_218919" x1="74.3808" y1="36.415" x2="74.1805" y2="133.801" gradientUnits="userSpaceOnUse">
<stop stop-color="#B3D4FF"/>
<stop offset="0.503525" stop-color="#2684FF"/>
<stop offset="0.812161" stop-color="#0065FF"/>
<stop offset="1" stop-color="#0747A6"/>
</linearGradient>
<linearGradient id="paint1_linear_3937_218919" x1="103.186" y1="87.3609" x2="83.1357" y2="112.677" gradientUnits="userSpaceOnUse">
<stop/>
<stop offset="1" stop-opacity="0"/>
</linearGradient>
<linearGradient id="paint2_linear_3937_218919" x1="110.708" y1="85.0528" x2="81.7409" y2="123.135" gradientUnits="userSpaceOnUse">
<stop stop-color="#FE8F7D"/>
<stop offset="0.499013" stop-color="#EA001E"/>
<stop offset="1" stop-color="#BA0517"/>
</linearGradient>
<linearGradient id="paint3_linear_3937_218919" x1="111.339" y1="100.529" x2="111.339" y2="113.569" gradientUnits="userSpaceOnUse">
<stop stop-color="#FCFDFD"/>
<stop offset="0.989583" stop-color="#F2F4F6"/>
</linearGradient>
<linearGradient id="paint4_linear_3937_218919" x1="111.305" y1="100.434" x2="103.939" y2="103.264" gradientUnits="userSpaceOnUse">
<stop stop-color="#FE8F7D"/>
<stop offset="0.499013" stop-color="#EA001E"/>
<stop offset="1" stop-color="#BA0517"/>
</linearGradient>
<linearGradient id="paint5_linear_3937_218919" x1="111.339" y1="88.6519" x2="111.339" y2="99.4034" gradientUnits="userSpaceOnUse">
<stop stop-color="#FCFDFD"/>
<stop offset="0.989583" stop-color="#F2F4F6"/>
</linearGradient>
</defs>
</svg>
