<svg width="96" height="97" viewBox="0 0 96 97" fill="none" xmlns="http://www.w3.org/2000/svg">
<circle cx="48" cy="48.002" r="48" fill="#E3FCEF"/>
<g filter="url(#filter0_f_4363_38116)">
<path fill-rule="evenodd" clip-rule="evenodd" d="M55.4825 22.6524C54.6901 21.8602 53.6157 21.415 52.4955 21.415C47.7654 21.415 33.8749 21.415 33.8749 21.415C32.4742 21.415 31.131 21.9715 30.1406 22.9619C29.1502 23.9523 28.5938 25.2955 28.5938 26.6962C28.5938 35.9157 28.5938 55.9712 28.5938 65.1908C28.5938 66.5914 29.1502 67.9348 30.1406 68.9252C31.131 69.9156 32.4742 70.4719 33.8749 70.4719C40.8457 70.4719 53.6797 70.4719 60.6505 70.4719C62.0512 70.4719 63.3944 69.9156 64.3848 68.9252C65.3752 67.9348 65.9317 66.5914 65.9317 65.1908C65.9317 65.1908 65.9317 41.248 65.9317 34.8514C65.9317 33.731 65.4867 32.6566 64.6943 31.8642C62.5135 29.6834 57.6633 24.8332 55.4825 22.6524Z" fill="url(#paint0_linear_4363_38116)"/>
</g>
<path d="M64.8205 31.925L55.0314 22.136C54.5805 21.685 53.9688 21.4316 53.3311 21.4316L53.5119 29.2016C53.5823 32.223 56.0384 34.643 59.0605 34.6686L65.9812 34.7272C65.9812 33.6762 65.5637 32.6682 64.8205 31.925Z" fill="url(#paint1_linear_4363_38116)"/>
<path fill-rule="evenodd" clip-rule="evenodd" d="M43.6652 36.8902L56.6802 36.8901C57.5616 36.8901 58.2773 37.6058 58.2773 38.4872C58.2773 39.3685 57.5616 40.084 56.6802 40.084L43.6652 40.084C42.7838 40.084 42.0684 39.3686 42.0684 38.4872C42.0684 37.6056 42.7838 36.8902 43.6652 36.8902ZM49.6302 57.1511H43.6652C42.7838 57.1511 42.0684 57.8668 42.0684 58.7481C42.0684 59.6295 42.7838 60.345 43.6652 60.345H49.6302C50.5116 60.345 51.227 59.6295 51.227 58.7481C51.227 57.8668 50.5116 57.1511 49.6302 57.1511ZM52.2235 47.0209H43.6652C42.7838 47.0209 42.0684 47.7364 42.0684 48.6179C42.0684 49.4993 42.7838 50.2148 43.6652 50.2148H52.2235C53.1049 50.2148 53.8205 49.4993 53.8205 48.6179C53.8205 47.7366 53.1049 47.0209 52.2235 47.0209Z" fill="url(#paint2_linear_4363_38116)"/>
<rect x="33.7178" y="35.6753" width="5.49481" height="5.49481" rx="1.97068" stroke="url(#paint3_linear_4363_38116)" stroke-width="1.97068" stroke-linejoin="round"/>
<rect x="33.7178" y="45.8999" width="5.49481" height="5.49481" rx="1.97068" stroke="url(#paint4_linear_4363_38116)" stroke-width="1.97068" stroke-linejoin="round"/>
<rect x="33.7178" y="56.1245" width="5.49481" height="5.49482" rx="1.97068" stroke="url(#paint5_linear_4363_38116)" stroke-width="1.97068" stroke-linejoin="round"/>
<g filter="url(#filter1_f_4363_38116)">
<path fill-rule="evenodd" clip-rule="evenodd" d="M67.0313 68.5862C68.8694 66.5367 69.9875 63.8282 69.9875 60.8585C69.9875 54.464 64.8037 49.2803 58.4093 49.2803C52.0148 49.2803 46.8311 54.464 46.8311 60.8585C46.8311 67.253 52.0148 72.4367 58.4093 72.4367C61.1347 72.4367 63.6402 71.495 65.6181 69.9192L65.8488 71.1067C65.8992 71.366 66.0259 71.6044 66.2127 71.7912L72.9036 78.482C73.4212 78.9997 74.2604 78.9997 74.778 78.482L75.5623 77.6977C76.0799 77.1801 76.0799 76.3409 75.5623 75.8233L68.885 69.1459C68.6898 68.9507 68.4385 68.8214 68.1663 68.7759L67.0313 68.5862Z" fill="url(#paint6_linear_4363_38116)"/>
</g>
<ellipse cx="58.4088" cy="60.8585" rx="8.40587" ry="8.40587" fill="url(#paint7_linear_4363_38116)"/>
<path d="M37.23 40.2657C37.0017 40.2657 36.7735 40.1816 36.5933 40.0014L34.7915 38.1996C34.4432 37.8513 34.4432 37.2747 34.7915 36.9264C35.1399 36.578 35.7165 36.578 36.0648 36.9264L37.23 38.0915L41.3981 33.9234C41.7465 33.575 42.323 33.575 42.6714 33.9234C43.0197 34.2717 43.0197 34.8483 42.6714 35.1966L37.8666 40.0014C37.6864 40.1816 37.4582 40.2657 37.23 40.2657Z" fill="url(#paint8_linear_4363_38116)"/>
<defs>
<filter id="filter0_f_4363_38116" x="28.3139" y="21.1352" width="37.8976" height="49.6164" filterUnits="userSpaceOnUse" color-interpolation-filters="sRGB">
<feFlood flood-opacity="0" result="BackgroundImageFix"/>
<feBlend mode="normal" in="SourceGraphic" in2="BackgroundImageFix" result="shape"/>
<feGaussianBlur stdDeviation="0.139937" result="effect1_foregroundBlur_4363_38116"/>
</filter>
<filter id="filter1_f_4363_38116" x="46.5522" y="49.0014" width="29.6769" height="30.1476" filterUnits="userSpaceOnUse" color-interpolation-filters="sRGB">
<feFlood flood-opacity="0" result="BackgroundImageFix"/>
<feBlend mode="normal" in="SourceGraphic" in2="BackgroundImageFix" result="shape"/>
<feGaussianBlur stdDeviation="0.139428" result="effect1_foregroundBlur_4363_38116"/>
</filter>
<linearGradient id="paint0_linear_4363_38116" x1="47.2627" y1="21.415" x2="47.9417" y2="80.2205" gradientUnits="userSpaceOnUse">
<stop stop-color="#ABF5D1"/>
<stop offset="0.255208" stop-color="#57D9A3"/>
<stop offset="0.661458" stop-color="#36B37E"/>
<stop offset="1" stop-color="#006644"/>
</linearGradient>
<linearGradient id="paint1_linear_4363_38116" x1="59.6561" y1="21.4316" x2="59.6561" y2="34.7272" gradientUnits="userSpaceOnUse">
<stop stop-color="#FCFDFD"/>
<stop offset="0.989583" stop-color="#F2F4F6"/>
</linearGradient>
<linearGradient id="paint2_linear_4363_38116" x1="50.1728" y1="36.8901" x2="50.1728" y2="59.0837" gradientUnits="userSpaceOnUse">
<stop stop-color="#FCFDFD"/>
<stop offset="0.989583" stop-color="#F2F4F6"/>
</linearGradient>
<linearGradient id="paint3_linear_4363_38116" x1="36.4652" y1="35.6753" x2="36.4652" y2="41.1701" gradientUnits="userSpaceOnUse">
<stop stop-color="#FCFDFD"/>
<stop offset="1" stop-color="#F2F4F6"/>
</linearGradient>
<linearGradient id="paint4_linear_4363_38116" x1="36.4652" y1="45.8999" x2="36.4652" y2="51.3947" gradientUnits="userSpaceOnUse">
<stop stop-color="#FCFDFD"/>
<stop offset="1" stop-color="#F2F4F6"/>
</linearGradient>
<linearGradient id="paint5_linear_4363_38116" x1="36.4652" y1="56.1245" x2="36.4652" y2="61.6193" gradientUnits="userSpaceOnUse">
<stop stop-color="#FCFDFD"/>
<stop offset="1" stop-color="#F2F4F6"/>
</linearGradient>
<linearGradient id="paint6_linear_4363_38116" x1="61.4752" y1="49.4657" x2="62.4501" y2="81.9624" gradientUnits="userSpaceOnUse">
<stop stop-color="#FFF0B3"/>
<stop offset="0.255208" stop-color="#FFC400"/>
<stop offset="0.539749" stop-color="#FFAB00"/>
<stop offset="1" stop-color="#FF8B00"/>
</linearGradient>
<linearGradient id="paint7_linear_4363_38116" x1="58.4088" y1="52.4526" x2="58.4088" y2="69.2644" gradientUnits="userSpaceOnUse">
<stop stop-color="#FCFDFD"/>
<stop offset="0.989583" stop-color="#F2F4F6"/>
</linearGradient>
<linearGradient id="paint8_linear_4363_38116" x1="38.7315" y1="33.6621" x2="38.7315" y2="40.2657" gradientUnits="userSpaceOnUse">
<stop stop-color="#FDFDFD"/>
<stop offset="1" stop-color="#EDF0F2"/>
</linearGradient>
</defs>
</svg>
