<svg width="17" height="20" viewBox="0 0 17 20" fill="none" xmlns="http://www.w3.org/2000/svg">
<path d="M13.7543 11.9992C14.9963 11.9992 16.0032 13.0061 16.0032 14.2481V15.1665C16.0032 15.7399 15.8239 16.2989 15.4906 16.7654C13.9447 18.9287 11.4204 20.0004 8.00012 20.0004C4.57915 20.0004 2.05619 18.9282 0.51403 16.7639C0.182067 16.298 0.00366211 15.7401 0.00366211 15.1681V14.2481C0.00366211 13.0061 1.01052 11.9992 2.25254 11.9992H13.7543ZM8.00012 0.00390625C10.7615 0.00390625 13.0001 2.24248 13.0001 5.00391C13.0001 7.76533 10.7615 10.0039 8.00012 10.0039C5.2387 10.0039 3.00012 7.76533 3.00012 5.00391C3.00012 2.24248 5.2387 0.00390625 8.00012 0.00390625Z" fill="#5C5E61"/>
</svg>
