<svg width="18" height="20" viewBox="0 0 18 20" fill="none" xmlns="http://www.w3.org/2000/svg">
<path d="M15.1573 14.8823L13.9703 16.0562C13.0954 16.9149 11.9603 18.0188 10.5644 19.3684C9.69218 20.2118 8.30836 20.2117 7.43624 19.3682L3.94515 15.9723C3.50638 15.5415 3.13912 15.1782 2.84328 14.8823C-0.557134 11.4819 -0.557134 5.96878 2.84328 2.56837C6.24369 -0.832036 11.7568 -0.832036 15.1573 2.56837C18.5577 5.96878 18.5577 11.4819 15.1573 14.8823ZM11.5005 9.00006C11.5005 7.61924 10.3811 6.49986 9.00026 6.49986C7.61944 6.49986 6.50006 7.61924 6.50006 9.00006C6.50006 10.3809 7.61944 11.5003 9.00026 11.5003C10.3811 11.5003 11.5005 10.3809 11.5005 9.00006Z" fill="#EA001E"/>
</svg>
