<svg width="20" height="14" viewBox="0 0 20 14" fill="none" xmlns="http://www.w3.org/2000/svg">
<path d="M3.24923 0C1.454 0 0 1.45538 0 3.25V10.75C0 12.5449 1.45507 14 3.25 14H16.75C18.5449 14 20 12.5449 20 10.75V3.25C20 1.45538 18.546 0 16.7508 0H3.24923ZM4.28021 5.21954L5.00017 5.93917L5.71967 5.21967C6.01256 4.92678 6.48743 4.92678 6.78033 5.21967C7.07322 5.51256 7.07322 5.98744 6.78033 6.28033L6.06108 6.99958L6.7802 7.71837C7.07317 8.01119 7.07328 8.48606 6.78046 8.77903C6.48763 9.07199 6.01276 9.0721 5.71979 8.77928L5.00042 8.06024L4.28033 8.78033C3.98744 9.07322 3.51256 9.07322 3.21967 8.78033C2.92678 8.48744 2.92678 8.01256 3.21967 7.71967L3.93951 6.99983L3.21979 6.28046C2.92683 5.98763 2.92672 5.51276 3.21954 5.21979C3.51237 4.92683 3.98724 4.92672 4.28021 5.21954ZM9.7802 5.21954L10.5002 5.93917L11.2197 5.21967C11.5126 4.92678 11.9874 4.92678 12.2803 5.21967C12.5732 5.51256 12.5732 5.98744 12.2803 6.28033L11.5611 6.99958L12.2802 7.71837C12.5732 8.01119 12.5733 8.48606 12.2805 8.77903C11.9876 9.07199 11.5128 9.0721 11.2198 8.77928L10.5004 8.06024L9.78033 8.78033C9.48744 9.07322 9.01256 9.07322 8.71967 8.78033C8.42678 8.48744 8.42678 8.01256 8.71967 7.71967L9.43951 6.99983L8.71979 6.28046C8.42683 5.98763 8.42672 5.51276 8.71954 5.21979C9.01237 4.92683 9.48724 4.92672 9.7802 5.21954ZM13.75 9.25C13.75 8.83579 14.0858 8.5 14.5 8.5H16.25C16.6642 8.5 17 8.83579 17 9.25C17 9.66421 16.6642 10 16.25 10H14.5C14.0858 10 13.75 9.66421 13.75 9.25Z" fill="#5C5E61"/>
</svg>
