<svg width="25" height="24" viewBox="0 0 25 24" fill="none" xmlns="http://www.w3.org/2000/svg">
<path fill-rule="evenodd" clip-rule="evenodd" d="M10.2164 4.88358C10.2222 4.8122 10.2252 4.74 10.2252 4.66709C10.2252 3.18769 9.00212 2 7.47864 2C5.95516 2 4.73208 3.18769 4.73208 4.66709C4.73208 5.72771 5.36072 6.63839 6.278 7.06898L6.21297 7.10507L3.08018 8.83451C2.80123 8.98037 2.60812 9.23041 2.54374 9.52212C2.45791 9.81383 2.50083 10.1264 2.65103 10.3764C2.86561 10.7306 3.25184 10.939 3.65953 10.939C3.83119 10.939 3.98139 10.8973 4.15305 10.8348L6.96396 9.26586V6.70792V5.64535V5.56201C6.96396 5.437 7.07124 5.33283 7.19999 5.33283H7.80082C7.92956 5.33283 8.03685 5.437 8.03685 5.56201V6.10371V8.667L12.3283 6.2716C12.4142 6.20909 12.5429 6.20909 12.6287 6.2716L20.9328 10.8557C21.0615 10.8973 21.2117 10.939 21.3405 10.939C21.7482 10.939 22.1344 10.7306 22.349 10.3764C22.4992 10.1264 22.5421 9.83467 22.4563 9.54296C22.3704 9.25124 22.1773 9.0012 21.9198 8.85535L13.0794 3.93789C12.9077 3.83371 12.7146 3.79204 12.5 3.79204C12.3069 3.79204 12.0923 3.83371 11.9206 3.93789L10.2684 4.85471L10.2164 4.88358ZM8.46538 5.56226C8.48684 5.58309 8.52975 5.60393 8.57267 5.60393L8.70141 5.58309C8.74432 5.56226 8.78724 5.52058 8.83015 5.45807C9.08764 5.16636 9.21639 4.81214 9.21639 4.41624C9.21639 4.3329 9.21639 4.24955 9.19493 4.1662C9.15201 3.937 9.06618 3.72863 8.93744 3.5411C8.87306 3.43692 8.80869 3.33274 8.72286 3.27023L8.61558 3.22855H8.55121C8.48684 3.24939 8.46538 3.29106 8.44392 3.33274C8.42246 3.39525 8.44392 3.45776 8.48683 3.49943C8.5512 3.56193 8.61558 3.62446 8.6585 3.7078C8.83015 3.97867 8.89452 4.29122 8.85161 4.60377C8.83015 4.81214 8.74432 4.99967 8.61558 5.1872L8.52975 5.29138L8.44392 5.37473C8.40101 5.43724 8.42247 5.52058 8.46538 5.56226ZM7.30735 4.41633C7.30735 4.5414 7.41464 4.62478 7.52193 4.62478C7.56485 4.62478 7.60777 4.60393 7.67214 4.56224C7.71506 4.52055 7.73651 4.47886 7.73651 4.41633C7.73651 4.29125 7.62922 4.20787 7.52193 4.20787C7.39319 4.20787 7.30735 4.3121 7.30735 4.41633ZM6.42799 5.60406L6.32071 5.56239C6.21342 5.45821 6.10612 5.31235 6.04175 5.18733C5.93446 4.9998 5.87009 4.79143 5.87009 4.58306V4.47888C5.87009 4.04131 5.99884 3.70792 6.25633 3.39537C6.29924 3.33286 6.34216 3.29119 6.38508 3.27035L6.47091 3.24952C6.51382 3.24952 6.55674 3.27035 6.59965 3.29119C6.64257 3.33286 6.66403 3.41621 6.62111 3.47872L6.53528 3.56207L6.44945 3.66625C6.29924 3.87462 6.21342 4.08298 6.19196 4.31219C6.1705 4.64557 6.25633 4.95812 6.49236 5.24984L6.53528 5.31235L6.5782 5.35402C6.62111 5.41653 6.64257 5.4582 6.59965 5.52071C6.55674 5.56239 6.51382 5.60406 6.42799 5.60406ZM6.89955 5.12437L6.98538 5.1452L7.07122 5.12437C7.11413 5.0827 7.15704 5.0202 7.13559 4.9577C7.11413 4.89519 7.09267 4.87436 7.04976 4.83269C6.8781 4.66602 6.83518 4.43684 6.92101 4.20767C6.96392 4.1035 7.0283 4.041 7.09267 3.97849C7.13558 3.93683 7.15704 3.89516 7.15704 3.85349L7.11413 3.74932L7.00684 3.70765C6.96392 3.70765 6.92101 3.72849 6.87809 3.77015C6.68497 3.95766 6.57769 4.18684 6.57769 4.43684C6.57769 4.56185 6.59914 4.68685 6.66352 4.81186C6.72789 4.93686 6.79226 5.04103 6.89955 5.12437ZM8.03696 5.14575L7.92967 5.10408C7.88676 5.0624 7.88676 5.04156 7.88676 4.99989C7.88676 4.95822 7.90821 4.91655 7.95112 4.87487C8.01549 4.81237 8.07987 4.74985 8.12278 4.64567C8.20861 4.41646 8.16569 4.18726 7.99404 4.02057C7.96891 3.99616 7.95114 3.97176 7.93641 3.95154L7.93641 3.95154L7.93641 3.95153L7.9364 3.95152L7.9364 3.95152C7.92599 3.93722 7.9171 3.92501 7.90822 3.91638C7.88676 3.85387 7.92967 3.79136 7.97258 3.74969L8.05841 3.72885L8.14424 3.74969C8.25152 3.83304 8.33734 3.93722 8.38026 4.06224C8.44463 4.18726 8.46609 4.31228 8.46609 4.4373C8.46609 4.68734 8.3588 4.91655 8.16569 5.10408C8.12278 5.12491 8.07986 5.14575 8.03696 5.14575ZM12.4857 21.45H12.4795C10.4029 21.45 8.32705 21.45 6.25125 21.4484C5.24764 21.4484 4.78534 20.9857 4.78451 19.9864C4.78451 19.438 4.7846 18.8897 4.7847 18.3415L4.78471 18.3384V18.3381C4.7851 16.1433 4.7855 13.9497 4.77952 11.7541C4.77952 11.5115 4.84853 11.3736 5.06471 11.2482C7.47852 9.83612 9.88651 8.41242 12.292 6.98622C12.4458 6.89651 12.5581 6.89485 12.7136 6.98622C15.129 8.41906 17.5462 9.84858 19.9691 11.2673C20.1653 11.3828 20.2211 11.5065 20.2202 11.7192C20.2161 13.7139 20.2162 15.7086 20.2162 17.7031V17.7031C20.2163 18.5 20.2163 19.2968 20.2161 20.0936C20.2152 20.9558 19.733 21.445 18.8624 21.4484C17.3748 21.453 15.8867 21.452 14.3988 21.4509H14.3987C13.761 21.4505 13.1233 21.45 12.4857 21.45ZM12.5107 20.749C15.8715 20.7456 18.5839 18.0336 18.5864 14.6762C18.588 11.3155 15.8441 8.57854 12.4799 8.58436C9.14066 8.591 6.41921 11.3354 6.42253 14.6903C6.42586 18.0436 9.14898 20.7539 12.5107 20.749ZM15.4145 14.6816C15.4219 13.0361 14.0957 11.7012 12.4477 11.6971C10.7706 11.6921 9.43524 13.0095 9.43108 14.6708C9.42692 16.2981 10.7723 17.6529 12.4003 17.667C14.0475 17.6811 15.4078 16.3338 15.4145 14.6816Z" fill="#EA001E"/>
</svg>
