<svg width="200" height="87" viewBox="0 0 200 87" fill="none" xmlns="http://www.w3.org/2000/svg">
<path d="M92.1253 74.1909C87.1695 74.0956 82.8809 72.4755 79.45 68.7587C78.497 67.6151 78.3064 66.3761 78.9735 65.1372C79.5453 64.0888 80.7843 63.517 82.0232 63.6123C82.8809 63.7076 83.4527 64.2795 84.0245 64.8513C87.1695 67.8057 90.8864 68.854 95.0797 67.7104C96.7951 67.2338 98.2247 66.2808 98.7965 64.4701C99.4636 62.2781 98.0341 59.8955 95.6515 58.9425C94.222 58.3707 92.7924 58.3707 91.2676 58.3707C89.7427 58.2754 88.1226 58.1801 86.693 57.7036C82.4044 56.4646 79.1641 52.9384 78.7829 48.7451C78.3064 44.0753 80.403 40.5491 84.3105 38.2618C89.5521 35.2121 94.8891 35.9745 100.131 38.643C100.703 38.9289 101.274 39.3101 101.846 39.7866C103.371 40.9302 103.752 42.741 102.799 44.1705C101.846 45.6001 99.8448 45.886 98.32 44.7424C96.7951 43.5987 95.175 42.9316 93.3642 42.6457C90.9817 42.3598 88.5991 42.4551 86.693 44.0752C85.5494 45.1236 84.6917 46.3625 84.8823 47.8874C85.0729 49.6981 86.2165 51.0323 87.932 51.6995C89.4568 52.2713 91.1723 52.2713 92.7924 52.3666C95.0797 52.4619 97.2716 52.8431 99.3683 53.9868C106.135 57.6083 107.088 66.4714 101.179 71.2365C98.5106 73.3332 95.4609 74.2862 92.1253 74.1909Z" fill="#818386"/>
<path d="M171.322 74.191C166.461 74.0957 162.268 72.5708 158.837 68.9493C157.408 67.4245 157.408 65.5184 158.742 64.2795C159.981 63.1359 161.792 63.3265 163.126 64.756C166.271 67.9963 171.608 69.0446 175.325 67.2339C177.04 66.3762 178.279 65.1372 178.088 63.1358C177.993 61.0392 176.659 59.6096 174.753 58.9425C173.037 58.3707 171.322 58.3707 169.606 58.2754C166.652 58.0848 163.793 57.4177 161.506 55.4163C156.073 50.5559 156.931 42.3598 163.221 38.4524C168.844 34.9262 176.849 36.4511 181.329 40.0726C182.663 41.2162 182.854 43.027 181.805 44.3612C180.757 45.6001 178.946 45.886 177.517 44.7424C174.753 42.741 171.703 42.0739 168.368 42.741C168.082 42.8363 167.796 42.9317 167.51 43.027C165.413 43.8847 163.698 46.1719 163.984 47.8874C164.27 50.1747 166.271 51.8901 168.844 52.176C171.131 52.4619 173.419 52.3666 175.611 52.8431C181.615 54.2727 185.522 60.2768 183.902 65.8996C182.568 70.4742 179.137 72.7614 174.753 73.8098C173.609 74.191 172.466 74.191 171.322 74.191Z" fill="#818386"/>
<path d="M137.204 55.9882C137.204 51.0325 137.204 45.9814 137.204 41.0257C137.204 37.8807 139.872 35.8793 142.731 36.737C144.637 37.3089 145.686 38.929 145.781 41.2163C145.781 46.6485 145.781 52.0808 145.781 57.5131C145.781 61.9923 145.781 66.3762 145.781 70.8555C145.781 74.1911 143.303 76.1924 140.253 75.3347C138.442 74.8582 137.299 73.1427 137.299 70.9508C137.204 65.8997 137.204 60.944 137.204 55.9882Z" fill="#838587"/>
<path d="M117.095 55.988C117.095 51.0323 117.095 45.9812 117.095 41.0255C117.095 38.357 118.81 36.4509 121.288 36.4509C123.766 36.4509 125.481 38.357 125.481 41.0255C125.481 51.0323 125.481 61.0391 125.481 71.0459C125.481 73.4285 124.052 75.1439 121.86 75.4298C119.668 75.7157 117.762 74.4768 117.19 72.3801C117.095 71.9036 117.095 71.5224 117.095 71.0459C117.095 65.9948 117.095 61.0391 117.095 55.988Z" fill="#ED3428"/>
<path d="M91.9376 19.4285V24.6892C91.9376 25.5201 91.7492 26.1433 91.3724 26.5588C90.9956 26.9742 90.498 27.1819 89.8797 27.1819C89.2807 27.1819 88.7928 26.9742 88.416 26.5588C88.0488 26.1433 87.8653 25.5201 87.8653 24.6892V18.3851C87.8653 17.39 87.8314 16.617 87.7638 16.0663C87.6962 15.5156 87.5126 15.0664 87.2131 14.7185C86.9136 14.3611 86.4402 14.1823 85.7929 14.1823C84.4982 14.1823 83.6432 14.6268 83.2277 15.5156C82.8219 16.4045 82.619 17.6798 82.619 19.3416V24.6892C82.619 25.5105 82.4306 26.1337 82.0538 26.5588C81.6867 26.9742 81.1988 27.1819 80.5901 27.1819C79.9911 27.1819 79.4984 26.9742 79.1119 26.5588C78.7351 26.1337 78.5467 25.5105 78.5467 24.6892V13.3708C78.5467 12.6268 78.7158 12.0616 79.0539 11.6752C79.4017 11.2887 79.8558 11.0955 80.4162 11.0955C80.9572 11.0955 81.4065 11.279 81.764 11.6462C82.1311 12.0036 82.3147 12.5012 82.3147 13.1389V13.5157C83.0007 12.6944 83.7349 12.0906 84.5175 11.7041C85.3001 11.3177 86.1697 11.1244 87.1261 11.1244C88.1213 11.1244 88.9763 11.3225 89.6913 11.7186C90.4062 12.1148 90.9956 12.7138 91.4593 13.5157C92.126 12.7041 92.8409 12.1051 93.6042 11.7186C94.3675 11.3225 95.2129 11.1244 96.1404 11.1244C97.2225 11.1244 98.1548 11.337 98.9374 11.7621C99.72 12.1872 100.304 12.7959 100.691 13.5881C101.029 14.3031 101.198 15.4287 101.198 16.9648V24.6892C101.198 25.5201 101.01 26.1433 100.633 26.5588C100.256 26.9742 99.7586 27.1819 99.1403 27.1819C98.5413 27.1819 98.0485 26.9742 97.6621 26.5588C97.2853 26.1337 97.0969 25.5105 97.0969 24.6892V18.0373C97.0969 17.1871 97.0582 16.5059 96.9809 15.9939C96.9133 15.4818 96.7201 15.0519 96.4012 14.704C96.0824 14.3562 95.5993 14.1823 94.952 14.1823C94.4303 14.1823 93.9327 14.3369 93.4593 14.6461C92.9955 14.9552 92.6332 15.3707 92.3724 15.8924C92.0825 16.5591 91.9376 17.7378 91.9376 19.4285Z" fill="#ED3428"/>
<path d="M108.691 27.6747L109.053 26.7906L104.184 14.5301C103.884 13.8248 103.734 13.3128 103.734 12.994C103.734 12.6558 103.821 12.3418 103.995 12.052C104.169 11.7621 104.406 11.5302 104.705 11.3563C105.014 11.1824 105.333 11.0955 105.662 11.0955C106.232 11.0955 106.662 11.279 106.952 11.6462C107.241 12.0036 107.498 12.5205 107.72 13.1968L111.067 22.9357L114.241 13.878C114.492 13.1437 114.72 12.5688 114.922 12.1534C115.125 11.738 115.338 11.4578 115.56 11.3128C115.792 11.1679 116.116 11.0955 116.531 11.0955C116.831 11.0955 117.116 11.1776 117.386 11.3418C117.666 11.4964 117.879 11.709 118.024 11.9795C118.178 12.25 118.256 12.535 118.256 12.8345C118.217 13.0181 118.154 13.279 118.067 13.6171C117.98 13.9553 117.874 14.2983 117.748 14.6461L112.589 28.1529C112.145 29.3413 111.71 30.2736 111.285 30.9499C110.86 31.6262 110.295 32.1431 109.589 32.5006C108.894 32.8677 107.952 33.0513 106.763 33.0513C105.604 33.0513 104.734 32.9257 104.155 32.6745C103.575 32.4233 103.285 31.9644 103.285 31.2977C103.285 30.8437 103.42 30.491 103.691 30.2398C103.971 29.9983 104.382 29.8775 104.923 29.8775C105.135 29.8775 105.343 29.9065 105.546 29.9645C105.797 30.0224 106.014 30.0514 106.198 30.0514C106.652 30.0514 107.01 29.9838 107.27 29.8485C107.531 29.7133 107.763 29.4765 107.966 29.1384C108.179 28.8099 108.42 28.322 108.691 27.6747Z" fill="#ED3428"/>
<path d="M40.992 75.7051C46.614 75.7051 51.1715 75.1216 51.1715 74.4018C51.1715 73.6819 46.614 73.0984 40.992 73.0984C35.37 73.0984 30.8125 73.6819 30.8125 74.4018C30.8125 75.1216 35.37 75.7051 40.992 75.7051Z" fill="#D0D2D3"/>
<path d="M44.4806 11.3437C48.6393 12.0264 52.4255 13.4539 55.8394 15.8745C55.9015 15.9366 55.9635 15.9986 56.0256 16.1228C53.6669 16.1228 51.2462 16.1228 48.8875 16.1228C48.1427 16.1228 48.1427 16.1228 48.1427 16.8055C48.1427 17.7365 48.1427 18.6674 48.1427 19.5984C48.0806 19.5984 48.0186 19.6605 48.0186 19.6605C47.8944 19.5984 47.7082 19.5364 47.5841 19.4743C41.9357 17.4882 36.4115 17.6744 31.1976 20.6535C23.9354 24.874 20.5215 31.3288 21.1422 39.7076C21.4526 44.0522 23.1285 47.9623 26.1699 51.0656C30.8252 55.9067 35.6045 60.5616 40.3839 65.3406C40.5702 65.5268 40.6943 65.5889 40.8805 65.3406C45.5358 60.6857 50.3151 56.0308 54.9083 51.2518C61.4257 44.4246 62.0464 33.9355 56.5222 26.3015C56.2739 25.9291 56.1497 25.6188 56.1497 25.1843C56.1497 22.2052 56.1497 19.226 56.1497 16.2469C56.2739 16.2469 56.3359 16.309 56.5842 16.4951C62.6671 21.1501 66.3292 27.2945 67.1361 34.9906C68.0051 43.3074 65.5844 50.569 59.7498 56.5273C54.0394 62.4235 48.2048 68.1336 42.4323 73.9056C42.3081 74.0298 41.2529 75.0849 40.9426 75.4573C40.6943 75.7055 40.5702 75.7055 40.3839 75.4573C40.0115 75.0849 39.0184 74.0918 38.8943 73.9677C33.1838 68.1335 27.5354 62.4856 21.825 56.8377C17.7904 52.8034 15.1214 47.9623 14.2525 42.3143C12.8869 33.5011 15.1835 25.7429 21.3284 19.2881C25.6733 14.6953 31.0114 12.2126 37.2804 11.2817C37.2804 11.2817 39.3423 11.0955 40.8805 11.0955C42.4187 11.0955 44.4806 11.3437 44.4806 11.3437Z" fill="#EB1D25"/>
<path d="M48.13 32.4457C48.13 33.3766 48.13 34.3076 48.13 35.2386C48.13 35.5489 48.068 35.611 47.7576 35.611C45.8955 35.611 44.0334 35.611 42.1092 35.611C41.7989 35.611 41.7368 35.5489 41.7368 35.2386C41.7368 33.3766 41.7368 31.5147 41.7368 29.5907C41.7368 29.2803 41.7989 29.2183 42.1092 29.2183C43.9713 29.2183 45.8334 29.2183 47.7576 29.2183C48.068 29.2183 48.1921 29.2803 48.13 29.6527C48.13 30.5837 48.13 31.5147 48.13 32.4457Z" fill="#5A5B5D"/>
<path d="M41.7368 40.3899C41.7368 39.459 41.7368 38.528 41.7368 37.597C41.7368 37.3487 41.7989 37.2246 42.1092 37.2246C43.9713 37.2246 45.8955 37.2246 47.7576 37.2246C48.068 37.2246 48.13 37.2867 48.13 37.597C48.13 39.459 48.13 41.3209 48.13 43.245C48.13 43.5553 48.068 43.6173 47.7576 43.6173C45.8955 43.6173 43.9713 43.6173 42.1092 43.6173C41.7989 43.6173 41.7368 43.5553 41.7368 43.245C41.7368 42.314 41.7368 41.3209 41.7368 40.3899Z" fill="#818284"/>
<path d="M40.185 32.4457C40.185 33.3766 40.185 34.3076 40.185 35.2386C40.185 35.5489 40.123 35.611 39.8126 35.611C37.9505 35.611 36.0884 35.611 34.1642 35.611C33.9159 35.611 33.7918 35.5489 33.7918 35.2386C33.7918 33.3766 33.7918 31.5147 33.7918 29.5907C33.7918 29.3424 33.8539 29.2183 34.1642 29.2183C36.0263 29.2183 37.8884 29.2183 39.8126 29.2183C40.185 29.2183 40.185 29.3424 40.185 29.6527C40.185 30.5837 40.185 31.5147 40.185 32.4457Z" fill="#474748"/>
<path d="M33.7918 40.3899C33.7918 39.459 33.7918 38.528 33.7918 37.597C33.7918 37.2867 33.8539 37.2246 34.1642 37.2246C36.0263 37.2246 37.8884 37.2246 39.8126 37.2246C40.123 37.2246 40.185 37.2867 40.185 37.597C40.185 39.459 40.185 41.3209 40.185 43.245C40.185 43.4932 40.123 43.6173 39.8126 43.6173C37.9505 43.6173 36.0884 43.6173 34.1642 43.6173C33.8539 43.6173 33.7918 43.5553 33.7918 43.245C33.7918 42.314 33.7918 41.3209 33.7918 40.3899Z" fill="#A6A8AB"/>
</svg>
