<svg width="24" height="24" viewBox="0 0 24 24" fill="none" xmlns="http://www.w3.org/2000/svg">
<rect width="24" height="24" fill="white"/>
<path d="M17.0347 13.7498C18.1215 13.7498 19.0025 14.6308 19.0025 15.7176V16.5212C19.0025 17.0229 18.8457 17.5121 18.554 17.9202C17.2013 19.8131 14.9926 20.7508 11.9998 20.7508C9.00648 20.7508 6.79889 19.8127 5.4495 17.9189C5.15903 17.5112 5.00293 17.0231 5.00293 16.5225V15.7176C5.00293 14.6308 5.88393 13.7498 6.9707 13.7498H17.0347ZM11.9998 3.25391C14.4161 3.25391 16.3748 5.21266 16.3748 7.62891C16.3748 10.0452 14.4161 12.0039 11.9998 12.0039C9.58359 12.0039 7.62483 10.0452 7.62483 7.62891C7.62483 5.21266 9.58359 3.25391 11.9998 3.25391Z" fill="#EA001E"/>
</svg>
