<svg width="69" height="69" viewBox="0 0 69 69" fill="none" xmlns="http://www.w3.org/2000/svg">
<g clip-path="url(#clip0_6034_268581)">
<path d="M63.9944 39.2021C66.6472 22.8569 55.5472 7.45605 39.202 4.80333C22.8568 2.15061 7.4559 13.2506 4.80318 29.5958C2.15046 45.941 13.2504 61.3419 29.5956 63.9946C45.9408 66.6473 61.3417 55.5474 63.9944 39.2021Z" fill="#C73A11"/>
<path d="M23.3498 32.5454C24.5742 32.5454 25.5668 30.8753 25.5668 28.8152C25.5668 26.755 24.5742 25.085 23.3498 25.085C22.1254 25.085 21.1328 26.755 21.1328 28.8152C21.1328 30.8753 22.1254 32.5454 23.3498 32.5454Z" fill="#303030"/>
<path d="M47.6664 28.8152C47.6664 30.8562 46.6811 32.5454 45.4494 32.5454C44.2178 32.5454 43.2324 30.8914 43.2324 28.8152C43.2324 26.7389 44.2178 25.085 45.4494 25.085C46.6811 25.085 47.6664 26.7389 47.6664 28.8152Z" fill="#303030"/>
<path d="M46.7152 47.7125C47.4894 48.4515 48.7211 47.6421 48.334 46.6216C46.117 41.0966 40.6976 37.1553 34.3633 37.1553C28.1345 37.1553 22.7856 40.9207 20.5334 46.34C20.1111 47.3254 21.3779 48.1699 22.1169 47.4309C26.5158 43.2081 35.8061 37.1553 46.7152 47.7125Z" fill="#5E4939"/>
<path d="M22.8905 16.9122L20.875 18.9277L27.5935 25.6462L29.609 23.6307L22.8905 16.9122Z" fill="#303030"/>
<path d="M47.9589 18.934L45.9434 16.9185L39.2249 23.6369L41.2404 25.6525L47.9589 18.934Z" fill="#303030"/>
</g>
<defs>
<clipPath id="clip0_6034_268581">
<rect width="68.7976" height="68.7976" fill="white"/>
</clipPath>
</defs>
</svg>
