<svg width="61" height="60" viewBox="0 0 61 60" fill="none" xmlns="http://www.w3.org/2000/svg">
<g clip-path="url(#clip0_6034_268591)">
<g clip-path="url(#clip1_6034_268591)">
<path d="M51.379 51.1957C63.0878 39.4869 63.0878 20.5033 51.379 8.79456C39.6703 -2.91419 20.6866 -2.91419 8.9779 8.79456C-2.73084 20.5033 -2.73084 39.4869 8.9779 51.1957C20.6866 62.9044 39.6703 62.9044 51.379 51.1957Z" fill="#16D00C"/>
<path d="M21.352 22.7331C21.352 24.7742 20.3666 26.4633 19.135 26.4633C17.9033 26.4633 16.918 24.8094 16.918 22.7331C16.918 20.6921 17.9033 19.0029 19.135 19.0029C20.3666 19.0029 21.352 20.6569 21.352 22.7331Z" fill="#303030"/>
<path d="M43.4516 22.7331C43.4516 24.7742 42.4663 26.4633 41.2346 26.4633C40.0029 26.4633 39.0176 24.8094 39.0176 22.7331C39.0176 20.6921 40.0029 19.0029 41.2346 19.0029C42.4663 19.0029 43.4516 20.6569 43.4516 22.7331Z" fill="#303030"/>
<path d="M10.0547 32.833C11.1808 42.9679 19.7673 50.8154 30.2189 50.8154C40.6353 50.8154 49.2218 42.9327 50.3831 32.833H10.0547Z" fill="#695342"/>
<path d="M16.2852 45.2906C19.9098 48.7393 24.8013 50.8156 30.2206 50.8156C35.3937 50.8156 40.074 48.8801 43.6634 45.7129L43.4875 45.2906C29.9391 38.6748 16.4611 45.1851 16.2852 45.2906Z" fill="#F06669"/>
</g>
</g>
<defs>
<clipPath id="clip0_6034_268591">
<rect width="60" height="60" fill="white" transform="translate(0.203125)"/>
</clipPath>
<clipPath id="clip1_6034_268591">
<rect width="60" height="60" fill="white" transform="translate(0.203125)"/>
</clipPath>
</defs>
</svg>
