<svg width="70" height="69" viewBox="0 0 70 69" fill="none" xmlns="http://www.w3.org/2000/svg">
<g clip-path="url(#clip0_6034_268582)">
<path d="M64.7913 39.2021C67.444 22.8569 56.3441 7.45605 39.9989 4.80333C23.6537 2.15061 8.25278 13.2506 5.60006 29.5958C2.94733 45.941 14.0473 61.3419 30.3925 63.9946C46.7377 66.6473 62.1386 55.5474 64.7913 39.2021Z" fill="#D5651E"/>
<path d="M24.1467 32.5454C25.3711 32.5454 26.3637 30.8753 26.3637 28.8152C26.3637 26.755 25.3711 25.085 24.1467 25.085C22.9223 25.085 21.9297 26.755 21.9297 28.8152C21.9297 30.8753 22.9223 32.5454 24.1467 32.5454Z" fill="#303030"/>
<path d="M48.4633 28.8152C48.4633 30.8562 47.478 32.5454 46.2463 32.5454C45.0146 32.5454 44.0293 30.8914 44.0293 28.8152C44.0293 26.7389 45.0146 25.085 46.2463 25.085C47.478 25.085 48.4633 26.7389 48.4633 28.8152Z" fill="#303030"/>
<path d="M47.5121 47.7125C48.2863 48.4515 49.5179 47.6421 49.1308 46.6216C46.9138 41.0966 41.4945 37.1553 35.1602 37.1553C28.9314 37.1553 23.5824 40.9207 21.3302 46.34C20.908 47.3254 22.1748 48.1699 22.9138 47.4309C27.3126 43.2081 36.603 37.1553 47.5121 47.7125Z" fill="#5E4939"/>
<path d="M23.6874 16.9122L21.6719 18.9277L28.3904 25.6462L30.4059 23.6307L23.6874 16.9122Z" fill="#303030"/>
<path d="M48.7558 18.934L46.7402 16.9185L40.0218 23.6369L42.0373 25.6525L48.7558 18.934Z" fill="#303030"/>
</g>
<defs>
<clipPath id="clip0_6034_268582">
<rect width="68.7976" height="68.7976" fill="white" transform="translate(0.796875)"/>
</clipPath>
</defs>
</svg>
