<svg width="70" height="69" viewBox="0 0 70 69" fill="none" xmlns="http://www.w3.org/2000/svg">
<g clip-path="url(#clip0_6034_268583)">
<path d="M64.5882 39.2021C67.2409 22.8569 56.141 7.45605 39.7957 4.80333C23.4505 2.15061 8.04965 13.2506 5.39693 29.5958C2.74421 45.941 13.8442 61.3419 30.1894 63.9946C46.5346 66.6473 61.9355 55.5474 64.5882 39.2021Z" fill="#E9762E"/>
<path d="M23.9436 32.5454C25.168 32.5454 26.1606 30.8753 26.1606 28.8152C26.1606 26.755 25.168 25.085 23.9436 25.085C22.7192 25.085 21.7266 26.755 21.7266 28.8152C21.7266 30.8753 22.7192 32.5454 23.9436 32.5454Z" fill="#303030"/>
<path d="M48.2602 28.8152C48.2602 30.8562 47.2749 32.5454 46.0432 32.5454C44.8115 32.5454 43.8262 30.8914 43.8262 28.8152C43.8262 26.7389 44.8115 25.085 46.0432 25.085C47.2749 25.085 48.2602 26.7389 48.2602 28.8152Z" fill="#303030"/>
<path d="M47.3089 47.7125C48.0831 48.4515 49.3148 47.6421 48.9277 46.6216C46.7107 41.0966 41.2913 37.1553 34.957 37.1553C28.7283 37.1553 23.3793 40.9207 21.1271 46.34C20.7048 47.3254 21.9717 48.1699 22.7107 47.4309C27.1095 43.2081 36.3998 37.1553 47.3089 47.7125Z" fill="#5E4939"/>
<path d="M23.4843 16.9122L21.4688 18.9277L28.1872 25.6462L30.2028 23.6307L23.4843 16.9122Z" fill="#303030"/>
<path d="M48.5546 18.934L46.5391 16.9185L39.8206 23.6369L41.8361 25.6525L48.5546 18.934Z" fill="#303030"/>
</g>
<defs>
<clipPath id="clip0_6034_268583">
<rect width="68.7976" height="68.7976" fill="white" transform="translate(0.59375)"/>
</clipPath>
</defs>
</svg>
