<svg width="61" height="61" viewBox="0 0 61 61" fill="none" xmlns="http://www.w3.org/2000/svg">
<g clip-path="url(#clip0_6034_268584)">
<path d="M30.3902 60.3938C46.9575 60.3938 60.3879 46.9633 60.3879 30.3961C60.3879 13.8288 46.9575 0.398437 30.3902 0.398437C13.823 0.398437 0.392578 13.8288 0.392578 30.3961C0.392578 46.9633 13.823 60.3938 30.3902 60.3938Z" fill="#E5982D"/>
<path d="M43.6687 24.82C43.6687 26.8621 42.6829 28.5522 41.4506 28.5522C40.2183 28.5522 39.2324 26.8974 39.2324 24.82C39.2324 22.7427 40.2183 21.0879 41.4506 21.0879C42.6829 21.0879 43.6687 22.7427 43.6687 24.82Z" fill="#303030"/>
<path d="M19.3393 28.5522C20.5643 28.5522 21.5574 26.8812 21.5574 24.82C21.5574 22.7588 20.5643 21.0879 19.3393 21.0879C18.1142 21.0879 17.1211 22.7588 17.1211 24.82C17.1211 26.8812 18.1142 28.5522 19.3393 28.5522Z" fill="#303030"/>
<path d="M18.8799 12.9107L16.8633 14.9272L23.5853 21.6492L25.6018 19.6326L18.8799 12.9107Z" fill="#303030"/>
<path d="M43.96 14.9336L41.9434 12.917L35.2214 19.639L37.238 21.6556L43.96 14.9336Z" fill="#303030"/>
<path d="M41.451 44.1142C40.8173 37.495 36.0993 32.3545 30.3602 32.3545C24.6564 32.3545 19.9384 37.5302 19.3398 44.1495L41.451 44.1142Z" fill="#695342"/>
<path d="M19.3398 44.1846C19.3398 44.1846 28.635 34.8543 41.451 44.1494L19.3398 44.1846Z" fill="#F06669"/>
</g>
<defs>
<clipPath id="clip0_6034_268584">
<rect width="60" height="60" fill="white" transform="translate(0.392578 0.398438)"/>
</clipPath>
</defs>
</svg>
