<svg width="61" height="60" viewBox="0 0 61 60" fill="none" xmlns="http://www.w3.org/2000/svg">
<g clip-path="url(#clip0_6034_268586)">
<g clip-path="url(#clip1_6034_268586)">
<path d="M51.5704 51.1954C63.2792 39.4867 63.2792 20.5031 51.5704 8.79431C39.8617 -2.91443 20.8781 -2.91443 9.16931 8.79431C-2.53944 20.5031 -2.53944 39.4867 9.16931 51.1954C20.8781 62.9042 39.8617 62.9042 51.5704 51.1954Z" fill="#F6E542"/>
<path d="M21.5434 22.7331C21.5434 24.7742 20.5581 26.4633 19.3264 26.4633C18.0947 26.4633 17.1094 24.8094 17.1094 22.7331C17.1094 20.6921 18.0947 19.0029 19.3264 19.0029C20.5581 19.0029 21.5434 20.6569 21.5434 22.7331Z" fill="#303030"/>
<path d="M43.643 22.7331C43.643 24.7742 42.6577 26.4633 41.426 26.4633C40.1943 26.4633 39.209 24.8094 39.209 22.7331C39.209 20.6921 40.1943 19.0029 41.426 19.0029C42.6577 19.0029 43.643 20.6569 43.643 22.7331Z" fill="#303030"/>
<path d="M48.1114 16.434C47.7947 16.3285 47.478 16.2581 47.1613 16.1525C46.4927 15.9766 45.8592 15.8006 45.2258 15.5895C44.3108 15.2727 43.4663 14.9208 42.6921 14.4986C41.8827 14.0763 41.1085 13.5836 40.4047 13.0205C39.6305 12.4223 38.8915 11.7185 38.2229 11.0147C38.1877 10.9795 38.1173 10.9795 38.0821 10.9795C38.0469 11.0147 38.0117 11.0499 38.0117 11.1203C38.0469 12.1408 38.4692 13.1965 39.173 14.1818C39.8416 15.0616 40.7214 15.8006 41.7067 16.3285C42.6569 16.8211 43.7126 17.1379 44.7683 17.2082C44.8035 17.2082 44.8387 17.2082 44.9091 17.2082C46.1056 17.2786 47.1613 17.0675 48.1114 16.6452C48.1466 16.61 48.1818 16.5748 48.1818 16.5044C48.1818 16.5044 48.1466 16.434 48.1114 16.434Z" fill="#414042"/>
<path d="M12.674 16.434C12.9907 16.3285 13.3075 16.2581 13.6242 16.1525C14.2928 15.9766 14.9262 15.8006 15.5597 15.5895C16.4746 15.2727 17.3192 14.9208 18.0934 14.4986C18.9028 14.0763 19.677 13.5836 20.3808 13.0205C21.155 12.4223 21.894 11.7185 22.5626 11.0147C22.5978 10.9795 22.6682 10.9795 22.7034 10.9795C22.7385 11.0147 22.7737 11.0499 22.7737 11.1203C22.7385 12.1408 22.3163 13.1965 21.6124 14.1818C20.9438 15.0616 20.0641 15.8006 19.0787 16.3285C18.1286 16.8211 17.0729 17.1379 16.0171 17.2082C15.9819 17.2082 15.9468 17.2082 15.8764 17.2082C14.6799 17.2786 13.6242 17.0675 12.674 16.6452C12.6388 16.61 12.6036 16.5748 12.6036 16.5044C12.5685 16.5044 12.6036 16.434 12.674 16.434Z" fill="#414042"/>
<path d="M19.0435 42.8977C18.7267 42.9329 18.5508 42.5458 18.5508 42.2643C18.5508 40.927 18.9379 39.5546 19.6065 38.2173C20.2751 36.9857 21.1901 35.8244 22.3162 34.8742C24.5332 33.0091 27.454 31.9534 30.3748 31.9534C33.3308 31.883 36.322 32.9739 38.5039 34.8742C40.7913 36.8097 42.1637 39.5898 42.1989 42.2643C42.1989 42.581 41.9877 42.9681 41.671 42.8977C41.3895 42.8625 41.1432 42.4754 40.9672 42.2994C40.6505 42.0179 40.2986 41.7716 39.9819 41.5253C39.3132 41.0326 38.5742 40.6103 37.8704 40.2232C35.1608 38.7804 32.0992 38.0062 29.0376 38.2877C27.0669 38.4637 25.2018 39.0619 23.4423 39.9417C22.3866 40.4695 21.4012 41.103 20.4863 41.842C20.0992 42.0883 19.5009 42.8273 19.0435 42.8977C19.0786 42.8977 19.0435 42.8977 19.0435 42.8977Z" fill="#5E4939"/>
</g>
</g>
<defs>
<clipPath id="clip0_6034_268586">
<rect width="60" height="60" fill="white" transform="translate(0.392578)"/>
</clipPath>
<clipPath id="clip1_6034_268586">
<rect width="60" height="60" fill="white" transform="translate(0.392578)"/>
</clipPath>
</defs>
</svg>
