<svg width="60" height="60" viewBox="0 0 60 60" fill="none" xmlns="http://www.w3.org/2000/svg">
<g clip-path="url(#clip0_6034_268588)">
<path d="M51.2432 50.6022C62.8162 39.0292 62.8162 20.2657 51.2432 8.6927C39.6702 -2.8803 20.9067 -2.8803 9.33367 8.6927C-2.23933 20.2657 -2.23933 39.0292 9.33367 50.6022C20.9067 62.1752 39.6702 62.1752 51.2432 50.6022Z" fill="#C2E035"/>
<path d="M21.5623 22.4697C21.5623 24.4871 20.5884 26.1566 19.371 26.1566C18.1536 26.1566 17.1797 24.5218 17.1797 22.4697C17.1797 20.4523 18.1536 18.7827 19.371 18.7827C20.5884 18.7827 21.5623 20.4175 21.5623 22.4697Z" fill="#303030"/>
<path d="M43.406 22.4697C43.406 24.4871 42.4321 26.1566 41.2147 26.1566C39.9973 26.1566 39.0234 24.5218 39.0234 22.4697C39.0234 20.4523 39.9973 18.7827 41.2147 18.7827C42.4321 18.7827 43.406 20.4175 43.406 22.4697Z" fill="#303030"/>
<path d="M38.468 10.6783C38.781 10.7827 39.0941 10.8522 39.4071 10.9566C40.068 11.1305 40.6941 11.3044 41.3202 11.5131C42.2245 11.8261 43.0593 12.174 43.8245 12.5913C44.6245 13.0087 45.3897 13.4957 46.0854 14.0522C46.8506 14.6435 47.5811 15.3392 48.2419 16.0348C48.2767 16.0696 48.3463 16.0696 48.3811 16.0696C48.4158 16.0348 48.4506 16 48.4506 15.9305C48.4158 14.9218 47.9984 13.8783 47.3028 12.9044C46.6419 12.0348 45.7724 11.3044 44.7984 10.7827C43.8593 10.2957 42.8158 9.98265 41.7724 9.91308C41.7376 9.91308 41.7028 9.91308 41.6332 9.91308C40.4506 9.84352 39.4071 10.0522 38.468 10.4696C38.4332 10.5044 38.3984 10.5392 38.3984 10.6087C38.3984 10.6435 38.4332 10.6783 38.468 10.6783Z" fill="#414042"/>
<path d="M22.1193 10.6783C21.8063 10.7827 21.4932 10.8522 21.1802 10.9566C20.5193 11.1305 19.8932 11.3044 19.2672 11.5131C18.3628 11.8261 17.528 12.174 16.7628 12.5913C15.9628 13.0087 15.1976 13.4957 14.5019 14.0522C13.7367 14.6435 13.0063 15.3392 12.3454 16.0348C12.3106 16.0696 12.2411 16.0696 12.2063 16.0696C12.1715 16.0348 12.1367 16 12.1367 15.9305C12.1715 14.9218 12.5889 13.8783 13.2845 12.9044C13.9454 12.0348 14.815 11.3044 15.7889 10.7827C16.728 10.2957 17.7715 9.98265 18.815 9.91308C18.8498 9.91308 18.8845 9.91308 18.9541 9.91308C20.1367 9.84352 21.1802 10.0522 22.1193 10.4696C22.1541 10.5044 22.1889 10.5392 22.1889 10.6087C22.2237 10.6435 22.1889 10.6783 22.1193 10.6783Z" fill="#414042"/>
<path d="M41.2146 42.7824C40.5885 36.2433 35.9276 31.165 30.2581 31.165C24.6233 31.165 19.9624 36.2781 19.3711 42.8172L41.2146 42.7824Z" fill="#695342"/>
<path d="M19.3711 42.8174C19.3711 42.8174 28.5537 33.6 41.2146 42.7826L19.3711 42.8174Z" fill="#F06669"/>
</g>
<defs>
<clipPath id="clip0_6034_268588">
<rect width="59.3044" height="59.3044" fill="white" transform="translate(0.658203)"/>
</clipPath>
</defs>
</svg>
