<svg width="61" height="60" viewBox="0 0 61 60" fill="none" xmlns="http://www.w3.org/2000/svg">
<g clip-path="url(#clip0_6034_268589)">
<g clip-path="url(#clip1_6034_268589)">
<path d="M51.379 51.1957C63.0878 39.4869 63.0878 20.5033 51.379 8.79456C39.6703 -2.91419 20.6866 -2.91419 8.9779 8.79456C-2.73084 20.5033 -2.73084 39.4869 8.9779 51.1957C20.6866 62.9044 39.6703 62.9044 51.379 51.1957Z" fill="#94DC2A"/>
<path d="M17.9032 34.5221C17.129 33.7831 15.8973 34.5925 16.2844 35.613C18.5014 41.138 23.9208 45.0793 30.2551 45.0793C36.4838 45.0793 41.8328 41.3139 44.085 35.8946C44.5073 34.9092 43.2404 34.0646 42.5014 34.8036C38.1026 39.0617 28.7771 45.1145 17.9032 34.5221Z" fill="#5E4939"/>
<path d="M21.352 24.6335C21.352 26.6746 20.3666 28.3637 19.135 28.3637C17.9033 28.3637 16.918 26.7098 16.918 24.6335C16.918 22.5925 17.9033 20.9033 19.135 20.9033C20.3666 20.9033 21.352 22.5573 21.352 24.6335Z" fill="#303030"/>
<path d="M43.4516 24.6335C43.4516 26.6746 42.4663 28.3637 41.2346 28.3637C40.0029 28.3637 39.0176 26.7098 39.0176 24.6335C39.0176 22.5925 40.0029 20.9033 41.2346 20.9033C42.4663 20.9033 43.4516 22.5573 43.4516 24.6335Z" fill="#303030"/>
</g>
</g>
<defs>
<clipPath id="clip0_6034_268589">
<rect width="60" height="60" fill="white" transform="translate(0.203125)"/>
</clipPath>
<clipPath id="clip1_6034_268589">
<rect width="60" height="60" fill="white" transform="translate(0.203125)"/>
</clipPath>
</defs>
</svg>
