<svg width="61" height="60" viewBox="0 0 61 60" fill="none" xmlns="http://www.w3.org/2000/svg">
<g clip-path="url(#clip0_6034_268590)">
<g clip-path="url(#clip1_6034_268590)">
<path d="M51.379 51.1957C63.0878 39.4869 63.0878 20.5033 51.379 8.79456C39.6703 -2.91419 20.6866 -2.91419 8.9779 8.79456C-2.73084 20.5033 -2.73084 39.4869 8.9779 51.1957C20.6866 62.9044 39.6703 62.9044 51.379 51.1957Z" fill="#65D71F"/>
<path d="M17.9032 34.5226C17.129 33.7836 15.8973 34.593 16.2844 35.6135C18.5014 41.1384 23.9208 45.0798 30.2551 45.0798C36.4838 45.0798 41.8328 41.3144 44.085 35.895C44.5073 34.9097 43.2404 34.0651 42.5014 34.8041C38.1026 39.0622 28.7771 45.115 17.9032 34.5226Z" fill="#5E4939"/>
<path d="M22.4413 25.6899C21.5967 23.5785 19.5556 22.2061 17.2682 22.2061C15.016 22.2061 13.0102 23.5433 12.1656 25.5844C11.9896 25.9715 12.1304 26.4289 12.4823 26.6753C12.8342 26.9216 13.2917 26.8864 13.6084 26.5697C15.2624 24.9509 17.9017 23.6489 20.9984 26.6401C21.1744 26.816 21.3855 26.8864 21.6319 26.8864C21.8078 26.8864 21.9838 26.8512 22.1245 26.7456C22.4764 26.5345 22.6172 26.077 22.4413 25.6899Z" fill="#303030"/>
<path d="M48.2362 25.6899C47.3916 23.5785 45.3505 22.2061 43.0632 22.2061C40.811 22.2061 38.8051 23.5433 37.9605 25.5844C37.7846 25.9715 37.9253 26.4289 38.2772 26.6753C38.6291 26.9216 39.0866 26.8864 39.4033 26.5697C41.0573 24.9509 43.6966 23.6489 46.7934 26.6401C46.9693 26.816 47.1805 26.8864 47.4268 26.8864C47.6027 26.8864 47.7787 26.8512 47.9195 26.7456C48.2362 26.5345 48.3769 26.077 48.2362 25.6899Z" fill="#303030"/>
<path d="M8.15356 39.6606C11.0494 39.6606 13.397 37.3131 13.397 34.4172C13.397 31.5214 11.0494 29.1738 8.15356 29.1738C5.25771 29.1738 2.91016 31.5214 2.91016 34.4172C2.91016 37.3131 5.25771 39.6606 8.15356 39.6606Z" fill="#F06669"/>
<path d="M52.2473 39.6606C55.1432 39.6606 57.4907 37.3131 57.4907 34.4172C57.4907 31.5214 55.1432 29.1738 52.2473 29.1738C49.3515 29.1738 47.0039 31.5214 47.0039 34.4172C47.0039 37.3131 49.3515 39.6606 52.2473 39.6606Z" fill="#F06669"/>
</g>
</g>
<defs>
<clipPath id="clip0_6034_268590">
<rect width="60" height="60" fill="white" transform="translate(0.203125)"/>
</clipPath>
<clipPath id="clip1_6034_268590">
<rect width="60" height="60" fill="white" transform="translate(0.203125)"/>
</clipPath>
</defs>
</svg>
